<svg xmlns="http://www.w3.org/2000/svg" width="24" height="30" viewBox="0 0 24 30">
  <g>
    <path d="M18.33 6.273h4.926a2.413 2.413 0 00-.367-.459L18.023.949a3.009 3.009 0 00-.459-.368v4.896c0 .46.337.796.765.796zM11.169 10.985c-.03-.06-.092-.122-.275-.122-.184 0-.215.061-.215.092-.183.428.031 1.377.46 2.387.275-1.286.244-2.05.03-2.357z" transform="translate(0 .5)"/>
    <path d="M18.33 8.323a2.808 2.808 0 01-2.816-2.815V.153H2.938c-.735 0-1.408.275-1.928.796a2.683 2.683 0 00-.796 1.927V26.47a2.73 2.73 0 002.724 2.723H20.96a2.73 2.73 0 002.723-2.723V8.323H18.33zm.091 11.292a2.276 2.276 0 01-1.591.673c-.857 0-1.867-.49-2.999-1.408-.612.123-1.285.306-2.08.52-.674.184-1.255.398-1.775.582-.918 1.652-2.112 3.335-3.244 3.61a1.206 1.206 0 01-1.193-.245c-.398-.336-.582-.795-.49-1.284.245-1.255 2.264-2.326 4.1-3.06.245-.46.46-.949.674-1.439.367-.918.673-1.744.887-2.448-.857-1.59-1.56-3.55-1.071-4.62.245-.52.704-.826 1.316-.826.55 0 .979.214 1.254.642.551.796.46 2.356-.214 4.682.306.52.643 1.01.949 1.346.428.46.857.888 1.254 1.224 2.448-.428 4.07-.244 4.56.551.061.184.336.796-.337 1.5z" transform="translate(0 .5)"/>
    <path d="M11.475 16.463c-.184.49-.367 1.01-.581 1.56-.062.153-.123.276-.184.429.275-.092.49-.153.704-.214.459-.123.918-.245 1.316-.368-.245-.214-.46-.459-.704-.734-.153-.153-.337-.398-.551-.673zM6.181 22.307c.092.153.123.153.214.153.429-.122 1.04-.734 1.653-1.652-1.224.612-1.806 1.193-1.867 1.5zM15.484 18.574c.52.306.979.49 1.377.49.336.03.581-.061.734-.306.153-.245-.643-.337-2.111-.184z" transform="translate(0 .5)"/>
  </g>
</svg>
