<svg width="4" height="17" viewBox="0 0 4 17" fill="none" xmlns="http://www.w3.org/2000/svg">
<path d="M2.00014 13.5999C1.5759 13.5999 1.16879 13.7687 0.868819 14.0687C0.568847 14.3687 0.400382 14.7756 0.400382 15.2001C0.400382 15.6244 0.568847 16.0313 0.868819 16.3313C1.16879 16.6316 1.57586 16.8 2.00014 16.8C2.42442 16.8 2.83149 16.6316 3.13147 16.3313C3.43144 16.0313 3.5999 15.6244 3.5999 15.2001C3.5999 14.7756 3.43144 14.3687 3.13147 14.0687C2.83149 13.7687 2.42442 13.5999 2.00014 13.5999ZM1.99966 0.800049C1.57542 0.800049 1.16831 0.968532 0.868339 1.26854C0.568367 1.56854 0.399902 1.97566 0.399902 2.39999V8.80002C0.399902 9.37164 0.704695 9.89986 1.19965 10.1857C1.6946 10.4715 2.30471 10.4715 2.79968 10.1857C3.29464 9.89986 3.59942 9.37164 3.59942 8.80002V2.39999C3.59942 1.97569 3.43096 1.56854 3.13099 1.26854C2.83101 0.968532 2.42394 0.800049 1.99966 0.800049Z" fill="white"/>
</svg>
