<svg width="2" height="11" viewBox="0 0 2 11" fill="none" xmlns="http://www.w3.org/2000/svg">
<path d="M1.00015 8.49991C0.734996 8.49991 0.480556 8.60538 0.293073 8.79289C0.10559 8.98039 0.000299869 9.23471 0.000299869 9.50004C0.000299869 9.76523 0.10559 10.0195 0.293073 10.207C0.480556 10.3947 0.734974 10.5 1.00015 10.5C1.26533 10.5 1.51974 10.3947 1.70723 10.207C1.89471 10.0195 2 9.7652 2 9.50004C2 9.23469 1.89471 8.98039 1.70723 8.79289C1.51974 8.60538 1.26533 8.49991 1.00015 8.49991ZM0.99985 0.5C0.734696 0.5 0.480256 0.605302 0.292773 0.792806C0.10529 0.980309 0 1.23476 0 1.49996V5.49998C0 5.85724 0.190495 6.18738 0.49984 6.36601C0.809188 6.54465 1.1905 6.54465 1.49986 6.36601C1.80921 6.18738 1.9997 5.85725 1.9997 5.49998V1.49996C1.9997 1.23478 1.89441 0.980309 1.70693 0.792806C1.51945 0.605302 1.26503 0.5 0.99985 0.5Z" fill="currentColor"/>
</svg>
