<svg xmlns="http://www.w3.org/2000/svg" width="45" height="37" viewBox="0 0 45 37">
    <g fill="none" fill-rule="evenodd">
        <g fill="#D5D5D5" fill-rule="nonzero">
            <g>
                <path d="M44.453 17.647c-.264-.337-4.49-5.652-10.794-9.262l6.652-6.652c.396-.397.396-1.039 0-1.436-.397-.396-1.039-.396-1.436 0l-7.097 7.098c-2.85-1.373-6.048-2.319-9.444-2.319C10.204 5.076.618 17.134.216 17.647c-.288.368-.288.884 0 1.252.264.337 4.49 5.653 10.794 9.263l-6.652 6.651c-.397.397-.397 1.039 0 1.436.198.199.458.298.718.298.26 0 .52-.1.718-.297l7.097-7.098c2.85 1.373 6.048 2.32 9.443 2.32 12.13 0 21.717-12.058 22.119-12.572.288-.369.288-.884 0-1.253zm-42.113.627c2.12-2.44 10.37-11.168 19.994-11.168 2.786 0 5.45.744 7.89 1.842l-2.918 2.918c-1.376-1.07-3.098-1.714-4.972-1.714-4.478 0-8.121 3.644-8.121 8.122 0 1.874.643 3.595 1.713 4.971l-3.402 3.403C7.48 23.873 3.68 19.818 2.34 18.274zm26.086 0c0 3.359-2.732 6.09-6.092 6.09-1.313 0-2.527-.422-3.523-1.131l8.483-8.483c.71.996 1.132 2.21 1.132 3.524zm-12.183 0c0-3.36 2.732-6.092 6.091-6.092 1.314 0 2.528.423 3.524 1.132l-8.483 8.483c-.71-.996-1.132-2.21-1.132-3.523zm6.091 11.167c-2.785 0-5.45-.743-7.889-1.842l2.918-2.917c1.376 1.07 3.097 1.713 4.971 1.713 4.478 0 8.122-3.643 8.122-8.121 0-1.874-.644-3.596-1.714-4.972L32.145 9.9c5.045 2.775 8.844 6.83 10.185 8.375-2.121 2.44-10.372 11.167-19.996 11.167z" transform="translate(-328 -188) translate(328 188)"/>
            </g>
        </g>
    </g>
</svg>
