<svg xmlns="http://www.w3.org/2000/svg" width="5" height="14" viewBox="0 0 5 14">
    <g fill="none" fill-rule="evenodd">
        <g fill="#FF8335" fill-rule="nonzero">
            <g>
                <g>
                    <g>
                        <path d="M2.685 9.976c.211.025.444-.352.698-1.13.118-.364.228-.724.33-1.08.101-.355.207-.71.317-1.066.483-1.582.724-2.903.724-3.96 0-1.795-.707-2.68-2.12-2.654C1.212.128.5 1.046.5 2.84c0 1.04.241 2.327.724 3.86.186.575.336 1.036.45 1.383.115.347.197.584.248.71.28.754.533 1.148.762 1.182zm-.051 3.897c.49 0 .888-.173 1.193-.52.28-.322.42-.694.42-1.118 0-.423-.145-.8-.433-1.13-.287-.321-.694-.482-1.218-.482-.5 0-.893.16-1.181.482-.28.322-.419.707-.419 1.156 0 .44.14.816.419 1.13.296.321.703.482 1.219.482z" transform="translate(-1107 -1088) translate(871 988) translate(0 74) translate(236 26)"/>
                    </g>
                </g>
            </g>
        </g>
    </g>
</svg>
