<svg xmlns="http://www.w3.org/2000/svg" width="42" height="43" viewBox="0 0 42 43">
    <g fill="none" fill-rule="evenodd">
        <path fill="#FFF" fill-rule="nonzero" d="M0 0H40.95V40.95H0z" transform="translate(0 1)"/>
        <path stroke="#282423" stroke-width="1.8" d="M12.259 22.037L17.823 27.441 27.559 16.633" transform="translate(0 1)"/>
        <path stroke="#282423" stroke-linecap="round" stroke-linejoin="bevel" stroke-width="1.8" d="M19.46 4.925c-9.942 0-18 8.064-18 18.012 0 1.883.288 3.698.823 5.404m32.294 4.377c1.824-2.816 2.882-6.175 2.882-9.78 0-7.979-5.183-14.746-12.363-17.113M4.342 32.718c3.207 4.954 8.78 8.232 15.117 8.232 4.535 0 8.678-1.678 11.843-4.447" transform="translate(0 1)"/>
        <path stroke="#282423" stroke-width="1.8" d="M15.277 9.845L19.813 4.763 14.65.319M10.605 33.32L3.912 32.063 2.781 38.783M32.689 26.541L34.39 33.139 40.95 31.314" transform="translate(0 1)"/>
    </g>
</svg>
