<?xml version="1.0" encoding="UTF-8"?>
<svg width="42px" height="44px" viewBox="0 0 42 44" version="1.1" xmlns="http://www.w3.org/2000/svg" xmlns:xlink="http://www.w3.org/1999/xlink">
    <!-- Generator: Sketch 61.2 (89653) - https://sketch.com -->
    <title>4</title>
    <desc>Created with Sketch.</desc>
    <g id="Market" stroke="none" stroke-width="1" fill="none" fill-rule="evenodd">
        <g id="21_6_Market" transform="translate(-688.000000, -693.000000)">
            <g id="Modal" transform="translate(278.000000, 134.000000)">
                <g id="Bullets" transform="translate(52.000000, 375.000000)">
                    <g id="4" transform="translate(358.000000, 184.000000)">
                        <rect id="Rectangle" fill="#FFFFFF" fill-rule="nonzero" x="0" y="0" width="42" height="44"></rect>
                        <path d="M20.9586,2 L21.6678,1.29492 L20.9586,0.581727 L20.2495,1.29492 L20.9586,2 Z M2.88323,7.55815 L3.14785,6.59379 L2.17166,6.32592 L1.91572,7.30531 L2.88323,7.55815 Z M39.1168,7.55815 L40.0843,7.30531 L39.8283,6.32592 L38.8521,6.59379 L39.1168,7.55815 Z M26.949,6.60639 L21.6678,1.29492 L20.2495,2.70508 L25.5307,8.01656 L26.949,6.60639 Z M20.2495,1.29492 L14.9683,6.60639 L16.3866,8.01656 L21.6678,2.70508 L20.2495,1.29492 Z M19.9586,2.88524 L19.9586,30.5246 L21.9586,30.5246 L21.9586,2.88524 L19.9586,2.88524 Z M10.4119,8.58711 L3.14785,6.59379 L2.6186,8.5225 L9.88268,10.5158 L10.4119,8.58711 Z M1.91572,7.30531 L0.0324907,14.5117 L1.96751,15.0174 L3.85074,7.81098 L1.91572,7.30531 Z M2.46944,8.83137 L16.38,32.5066 L18.1044,31.4934 L4.19382,7.8182 L2.46944,8.83137 Z M32.1173,10.5158 L39.3814,8.5225 L38.8521,6.59379 L31.5881,8.58711 L32.1173,10.5158 Z M38.1493,7.81098 L40.0325,15.0174 L41.9675,14.5117 L40.0843,7.30531 L38.1493,7.81098 Z M37.8062,7.8182 L23.8956,31.4934 L25.62,32.5066 L39.5306,8.83137 L37.8062,7.8182 Z" id="Shape" fill="#282423" fill-rule="nonzero"></path>
                        <circle id="Oval" stroke="#282423" stroke-width="2" cx="21" cy="37" r="6"></circle>
                    </g>
                </g>
            </g>
        </g>
    </g>
</svg>