<svg width="12" height="14" viewBox="0 0 12 14" fill="none" xmlns="http://www.w3.org/2000/svg">
<path fill-rule="evenodd" clip-rule="evenodd" d="M0.450137 6.51319C0.2086 6.26698 0.2086 5.88649 0.450137 5.64029L4.73193 1.27578C6.40073 -0.42526 9.0796 -0.42526 10.7484 1.27578C12.4172 2.97682 12.4172 5.70743 10.7484 7.40847L5.17109 13.0935C3.98536 14.3022 2.05307 14.3022 0.889296 13.0935C-0.296432 11.8849 -0.296432 9.93765 0.889296 8.72902L5.61025 3.91687C6.3129 3.20064 7.47667 3.20064 8.17932 3.91687C8.88197 4.6331 8.88197 5.81934 8.17932 6.53557L4.75388 10.0272C4.51235 10.2734 4.13906 10.2734 3.89753 10.0272C3.65599 9.78097 3.65599 9.40048 3.89753 9.15428L7.32296 5.66267C7.5645 5.41647 7.5645 5.03597 7.32296 4.78977C7.08143 4.54357 6.70814 4.54357 6.4666 4.78977L1.74565 9.60192C1.043 10.3181 1.043 11.5044 1.74565 12.2206C2.44831 12.9368 3.61207 12.9368 4.31472 12.2206L9.89204 6.53557C11.0778 5.32694 11.0778 3.35731 9.89204 2.17106C8.70631 0.96243 6.79597 0.96243 5.61025 2.17106L1.32845 6.53557C1.08692 6.75939 0.691674 6.75939 0.450137 6.51319Z" fill="black"/>
</svg>
