<svg width="95" height="109" viewBox="0 0 95 109" fill="none" xmlns="http://www.w3.org/2000/svg">
  <path fill-rule="evenodd" clip-rule="evenodd"
        d="M40.025 4.28683C44.6196 1.63413 50.2804 1.63413 54.875 4.28683L87.1801 22.9382C91.7747 25.5909 94.6051 30.4933 94.6051 35.7987V73.1013C94.6051 78.4067 91.7747 83.3091 87.1801 85.9618L54.875 104.613C50.2804 107.266 44.6196 107.266 40.025 104.613L7.71993 85.9618C3.12532 83.3091 0.294922 78.4067 0.294922 73.1013V35.7987C0.294922 30.4933 3.12532 25.5909 7.71992 22.9382L40.025 4.28683Z"
        fill="white" fill-opacity="0.5"/>
  <path fill-rule="evenodd" clip-rule="evenodd"
        d="M40.75 9.29702C44.9269 6.88547 50.0731 6.88547 54.25 9.29702L83.6182 26.2528C87.7951 28.6643 90.3682 33.121 90.3682 37.9441V71.8557C90.3682 76.6788 87.7951 81.1355 83.6182 83.547L54.25 100.503C50.0731 102.914 44.9269 102.914 40.75 100.503L11.3817 83.547C7.2048 81.1355 4.63171 76.6788 4.63171 71.8557V37.9441C4.63171 33.121 7.2048 28.6643 11.3817 26.2528L40.75 9.29702Z"
        fill="white" fill-opacity="0.8"/>
  <g clip-path="url(#clip0_601_161)" filter="url(#filter0_d_601_161)">
    <path d="M35.38 73.6602H58.65" stroke="#37383F" stroke-width="1.62" stroke-linecap="round"/>
    <path d="M38.98 77.2598H55.05" stroke="#37383F" stroke-width="1.62" stroke-linecap="round"/>
    <path fill-rule="evenodd" clip-rule="evenodd"
          d="M69.24 59.7001C69.24 54.7301 65.21 50.7101 60.25 50.7101C60.24 50.7101 60.22 50.7101 60.21 50.7101C60.22 50.4601 60.25 50.2001 60.25 49.9501C60.25 42.6901 54.37 36.8101 47.11 36.8101C39.85 36.8101 34.56 42.1101 34.01 48.8601C28.85 49.3401 24.8 53.6801 24.8 58.9701C24.8 63.3901 27.64 67.1501 31.59 68.5401C31.7 68.5801 31.81 68.6301 31.93 68.6601C32.54 68.8501 33.17 68.9801 33.82 69.0501C33.84 69.0501 33.86 69.0501 33.88 69.0501C33.9 69.0501 33.92 69.0501 33.94 69.0501C36.92 69.4401 42.99 69.3401 48.43 69.3401C57.02 69.3401 62.4 69.7001 65.08 67.6701C67.59 66.0801 69.23 62.8801 69.23 59.6901L69.24 59.7001Z"
          fill="white" stroke="#37383F" stroke-width="1.6" stroke-miterlimit="10"/>
    <path
      d="M38.19 48.63C38.14 48.63 38.08 48.63 38.02 48.61C37.58 48.52 37.3 48.09 37.39 47.65C38.11 44.18 40.81 41.47 44.28 40.74C44.72 40.65 45.15 40.93 45.24 41.37C45.33 41.81 45.05 42.24 44.61 42.33C41.77 42.92 39.56 45.14 38.97 47.98C38.89 48.36 38.55 48.63 38.18 48.63H38.19Z"
      fill="#37383F"/>
    <path fill-rule="evenodd" clip-rule="evenodd"
          d="M53.28 54.1198L47.64 48.4398C47.3 48.0998 46.81 48.0598 46.52 48.3398L40.74 54.1098C40.46 54.3898 40.5 54.8898 40.84 55.2298C41.18 55.5698 41.67 55.6098 41.96 55.3298L46.15 51.1398V60.2198C46.15 60.6898 46.53 61.0798 47.01 61.0798C47.49 61.0798 47.87 60.6998 47.87 60.2198V51.1398L52.06 55.3298C52.34 55.6098 52.84 55.5698 53.18 55.2298C53.52 54.8898 53.56 54.3998 53.28 54.1098V54.1198Z"
          fill="#E30329"/>
  </g>
  <defs>
    <filter id="filter0_d_601_161" x="15" y="32" width="64.04" height="60.0698" filterUnits="userSpaceOnUse"
            color-interpolation-filters="sRGB">
      <feFlood flood-opacity="0" result="BackgroundImageFix"/>
      <feColorMatrix in="SourceAlpha" type="matrix" values="0 0 0 0 0 0 0 0 0 0 0 0 0 0 0 0 0 0 127 0"
                     result="hardAlpha"/>
      <feOffset dy="5"/>
      <feGaussianBlur stdDeviation="4.5"/>
      <feColorMatrix type="matrix" values="0 0 0 0 0.203922 0 0 0 0 0.219608 0 0 0 0 0.270588 0 0 0 0.25 0"/>
      <feBlend mode="normal" in2="BackgroundImageFix" result="effect1_dropShadow_601_161"/>
      <feBlend mode="normal" in="SourceGraphic" in2="effect1_dropShadow_601_161" result="shape"/>
    </filter>
    <clipPath id="clip0_601_161">
      <rect width="46.04" height="42.07" fill="white" transform="translate(24 36)"/>
    </clipPath>
  </defs>
</svg>
