<svg xmlns="http://www.w3.org/2000/svg" width="26" height="23" viewBox="0 0 26 23">
    <g fill="#000" fill-rule="nonzero" opacity=".821">
        <path d="M6.202 11.578c-3.006 0-6.067.941-6.067 2.77v5.699c0 1.83 3.06 2.77 6.067 2.77 3.006 0 6.067-.94 6.067-2.77v-5.698c0-1.83-3.06-2.77-6.067-2.77zm0 9.802c-2.98 0-4.577-.967-4.577-1.36v-.94c1.165.6 2.87.888 4.577.888 1.706 0 3.413-.313 4.577-.888v.967c0 .392-1.598 1.333-4.577 1.333zm0-2.85c-2.98 0-4.577-.966-4.577-1.358v-.967c1.165.6 2.87.888 4.577.888 1.706 0 3.413-.313 4.577-.888v.967c0 .418-1.598 1.359-4.577 1.359zm0-2.822c-2.98 0-4.577-.967-4.577-1.36 0-.391 1.598-1.358 4.577-1.358 2.98 0 4.577.967 4.577 1.359s-1.598 1.359-4.577 1.359zM19.798.183c-3.006 0-6.067.94-6.067 2.77v17.094c0 1.83 3.06 2.77 6.067 2.77 3.006 0 6.067-.94 6.067-2.77V2.953c0-1.803-3.06-2.77-6.067-2.77zm0 1.437c2.98 0 4.577.967 4.577 1.36 0 .392-1.598 1.359-4.577 1.359-2.98 0-4.577-.967-4.577-1.36 0-.392 1.598-1.359 4.577-1.359zm0 19.76c-2.98 0-4.577-.967-4.577-1.36v-.94c1.164.6 2.87.888 4.577.888 1.706 0 3.412-.313 4.577-.888v.967c.027.392-1.598 1.333-4.577 1.333zm0-2.85c-2.98 0-4.577-.966-4.577-1.358v-.967c1.164.6 2.87.888 4.577.888 1.706 0 3.412-.313 4.577-.888v.967c.027.418-1.598 1.359-4.577 1.359zm0-2.822c-2.98 0-4.577-.967-4.577-1.36v-.966c1.164.601 2.87.888 4.577.888 1.706 0 3.412-.313 4.577-.888v.967c.027.392-1.598 1.359-4.577 1.359zm0-2.849c-2.98 0-4.577-.967-4.577-1.359v-.967c1.164.601 2.87.889 4.577.889 1.706 0 3.412-.314 4.577-.889v.967c.027.392-1.598 1.36-4.577 1.36zm0-2.849c-2.98 0-4.577-.967-4.577-1.359v-.967c1.164.601 2.87.889 4.577.889 1.706 0 3.412-.314 4.577-.889v.967c.027.392-1.598 1.36-4.577 1.36zm0-2.849c-2.98 0-4.577-.967-4.577-1.359v-.967c1.164.601 2.87.889 4.577.889 1.706 0 3.412-.314 4.577-.889v.967c.027.392-1.598 1.36-4.577 1.36z"/>
    </g>
</svg>
