<svg xmlns="http://www.w3.org/2000/svg" width="15" height="11" viewBox="0 0 15 11">
    <g fill="currentColor" fill-rule="nonzero">
        <path d="M13.8.016H1.2C.565.017.051.61.05 1.34v8.318c.001.731.515 1.324 1.15 1.325h12.6c.635-.001 1.149-.594 1.15-1.325V1.341C14.949.61 14.435.017 13.8.016zm0 9.92H1.2a.226.226 0 0 1-.17-.08.3.3 0 0 1-.07-.197v-5.73h13.08v5.73a.3.3 0 0 1-.07.196.226.226 0 0 1-.17.082zM1.2 1.064h12.6c.133 0 .24.125.24.278v1.54H.96v-1.54c0-.153.107-.278.24-.278z"/>
        <path d="M5.857 7.538H2.63c-.251 0-.455.234-.455.523 0 .29.204.524.455.524h3.227c.25 0 .454-.234.454-.524 0-.289-.203-.523-.454-.523z"/>
    </g>
</svg>