<svg width="15" height="17" viewBox="0 0 15 17" fill="none" xmlns="http://www.w3.org/2000/svg">
<path d="M5.95518 1.0609C6.20283 0.438736 6.80128 0 7.50009 0C8.19891 0 8.79736 0.438753 9.04501 1.0609C11.517 1.7516 13.3333 4.05936 13.3333 6.79993V10.7926L14.8601 13.1285C15.0305 13.3894 15.0464 13.7247 14.9014 14.0011C14.7564 14.2775 14.474 14.45 14.1667 14.45H10.3872C10.1849 15.8917 8.96933 17 7.5 17C6.03067 17 4.815 15.8917 4.61283 14.45H0.833336C0.525986 14.45 0.24362 14.2775 0.0986365 14.0011C-0.0464151 13.7247 -0.0305301 13.3894 0.139978 13.1285L1.66668 10.7926V6.79993C1.66668 4.05936 3.48318 1.75161 5.95501 1.0609H5.95518ZM6.32126 14.4499C6.49288 14.9451 6.95583 15.2999 7.50009 15.2999C8.04436 15.2999 8.50732 14.9451 8.67892 14.4499H6.32126ZM7.50009 2.54993C5.19893 2.54993 3.33343 4.45274 3.33343 6.79993V11.0499C3.33343 11.2177 3.28473 11.3818 3.19345 11.5214L2.39052 12.7499H12.6097L11.8068 11.5214C11.7155 11.3818 11.6668 11.2177 11.6668 11.0499V6.79993C11.6668 4.45274 9.80128 2.54993 7.50011 2.54993H7.50009Z" fill="currentColor"/>
</svg>
