<svg xmlns="http://www.w3.org/2000/svg" width="50" height="50" viewBox="0 0 50 50">
    <g fill="none" fill-rule="evenodd">
        <g stroke="#37383F" stroke-width="1.44">
            <g>
                <g>
                    <g>
                        <g transform="translate(-88 -229) translate(59 208) translate(27 20) translate(.447 .77)">
                            <g>
                                <path fill="#FFF" d="M2.16.72C1.365.72.72 1.365.72 2.16v17.166c0 .795.645 1.44 1.44 1.44h31.612c.795 0 1.44-.645 1.44-1.44V2.16c0-.795-.645-1.44-1.44-1.44H2.16z" transform="rotate(57 9.266 17.374)"/>
                                <path fill="#E30329" d="M.72 13.611v3.574h34.492V13.61H.72z" transform="rotate(57 9.266 17.374)"/>
                            </g>
                            <ellipse cx="28.908" cy="16.762" fill="#FFF" rx="7.186" ry="7.162"/>
                            <ellipse cx="36.814" cy="21.059" fill="#FFF" rx="7.186" ry="7.162"/>
                            <path fill="#FFF" d="M6.635 21.779c-.796 0-1.44.645-1.44 1.44v24.328c0 .795.644 1.44 1.44 1.44h38.08c.795 0 1.44-.645 1.44-1.44V23.219c0-.795-.645-1.44-1.44-1.44H6.635z"/>
                            <path fill="#E30329" d="M37.92 30.373c-.182 0-.362.035-.531.102-2.335.926-3.449 2.47-3.449 4.742 0 2.268 1.114 3.916 3.432 5.033.195.094.409.142.625.142h11.03c.795 0 1.44-.644 1.44-1.44v-7.139c0-.795-.645-1.44-1.44-1.44H37.92z"/>
                            <ellipse cx="39.688" cy="35.383" fill="#FFF" rx="2.156" ry="2.149"/>
                            <path stroke-linecap="round" d="M9.278 31.7v-4.334c.003-.937.182-1.564.536-1.882.354-.319.94-.478 1.755-.478h24.257"/>
                        </g>
                    </g>
                </g>
            </g>
        </g>
    </g>
</svg>
