<svg xmlns="http://www.w3.org/2000/svg" width="23" height="17" viewBox="0 0 23 17">
    <g fill="none" fill-rule="evenodd" stroke="#1E2028" stroke-width="1.404" opacity=".624">
        <path d="M20.5 5.157h-3.402V2.618c0-.606-.492-1.098-1.098-1.098H2.5c-.606 0-1.098.492-1.098 1.098v8.218c0 .607.492 1.098 1.098 1.098h3.402v2.539c0 .606.492 1.098 1.098 1.098h13.5c.606 0 1.098-.492 1.098-1.098V6.255c0-.607-.492-1.098-1.098-1.098z"/>
        <path d="M7 5.157c-.606 0-1.098.491-1.098 1.098v8.218c0 .606.492 1.098 1.098 1.098h13.5c.606 0 1.098-.492 1.098-1.098V6.255c0-.607-.492-1.098-1.098-1.098H7z"/>
        <path stroke-linecap="round" d="M7.88 12.518h7.386"/>
    </g>
</svg>
