<svg width="45" height="46" viewBox="0 0 45 46" fill="none" xmlns="http://www.w3.org/2000/svg">
<path d="M44.6857 8.47114L39.8221 3.6075C39.8151 3.59998 39.8103 3.59194 39.8033 3.58442C39.7963 3.57691 39.7877 3.57262 39.7802 3.56565L36.5289 0.314273C36.1098 -0.104758 35.4306 -0.104758 35.0116 0.314273L19.6308 15.6961C18.473 14.9964 17.1472 14.615 15.7598 14.615C13.7537 14.615 11.8672 15.3967 10.4487 16.8153L2.19629 25.0671C-0.732096 27.996 -0.732096 32.7615 2.19629 35.6899L9.30961 42.8037C10.7287 44.2228 12.6152 45.004 14.6213 45.004C16.6279 45.004 18.5138 44.2228 19.9324 42.8037L28.1842 34.5513C30.6705 32.0645 31.0375 28.2578 29.3018 25.3713L44.6857 9.98845C45.1048 9.56942 45.1048 8.89017 44.6857 8.47114ZM35.7707 2.59131L37.5252 4.34576L34.6344 7.23659C34.4332 7.43778 34.32 7.71088 34.32 7.99524C34.32 8.2796 34.4332 8.5527 34.6344 8.75443L35.6302 9.74969L33.6386 11.7418L32.6422 10.746C32.2232 10.3275 31.544 10.327 31.1249 10.746L27.094 14.777C26.8928 14.9782 26.7796 15.2513 26.7796 15.5356C26.7796 15.8205 26.8928 16.0931 27.094 16.2948L28.0898 17.2901L24.818 20.5619L21.3091 17.0524L35.7707 2.59131ZM26.6674 33.034L18.4151 41.2864C17.4021 42.2999 16.0549 42.8579 14.6218 42.8579C13.1887 42.8579 11.841 42.2999 10.8274 41.2864L3.71413 34.1726C1.62274 32.0812 1.62274 28.6769 3.71413 26.5844L11.966 18.3326C12.9795 17.3191 14.3267 16.7611 15.7598 16.7611C17.1928 16.7611 18.5406 17.3191 19.5541 18.3326L24.054 22.8324C24.0556 22.8341 24.0567 22.8362 24.0588 22.8383C24.061 22.8405 24.0626 22.841 24.0647 22.8432L26.668 25.4464C28.7594 27.5378 28.7594 30.9416 26.6674 33.034ZM27.9476 23.6914L26.3353 22.0792L30.3663 18.0487C30.5675 17.8475 30.6807 17.5745 30.6807 17.2901C30.6807 17.0057 30.5675 16.7326 30.3663 16.5309L29.3705 15.5356L31.8841 13.022L32.8805 14.0178C33.2995 14.4363 33.9787 14.4368 34.3978 14.0178L37.9067 10.5083C38.3257 10.0893 38.3257 9.41007 37.9067 8.9905L36.9109 7.99524L39.043 5.86307L42.4103 9.2298L27.9476 23.6914Z" fill="#37383F"/>
<path d="M16.4238 20.4202C16.0048 20.0012 15.325 20.0012 14.9065 20.4202L5.80158 29.5251C5.38255 29.9442 5.38255 30.6234 5.80158 31.0425C6.22061 31.4615 6.90039 31.4615 7.31888 31.0425L15.6652 22.6967L22.3047 29.3363L13.9584 37.682C13.5394 38.101 13.5394 38.7803 13.9584 39.1993C14.1682 39.4091 14.4424 39.5137 14.7171 39.5137C14.9918 39.5137 15.2665 39.4091 15.4758 39.1993L24.5807 30.0944C24.7819 29.8932 24.8951 29.6201 24.8951 29.3358C24.8951 29.0514 24.7819 28.7783 24.5807 28.5771L16.4238 20.4202Z" fill="#E42851"/>
<path d="M17.4198 31.4045C17.6945 31.4045 17.9692 31.2998 18.179 31.09C18.598 30.671 18.598 29.9912 18.179 29.5727L15.5704 26.9647C15.1514 26.5456 14.4721 26.5456 14.0526 26.9647C13.6335 27.3837 13.6335 28.0635 14.0526 28.482L16.6612 31.09C16.8709 31.2993 17.1457 31.4045 17.4198 31.4045Z" fill="#E42851"/>
<path d="M14.764 34.0597C15.0387 34.0597 15.3129 33.9551 15.5227 33.7453C15.9417 33.3263 15.9417 32.647 15.5227 32.228L12.9146 29.6199C12.4961 29.2009 11.8163 29.2009 11.3973 29.6199C10.9783 30.039 10.9783 30.7182 11.3973 31.1372L14.0054 33.7453C14.2146 33.9551 14.4893 34.0597 14.764 34.0597Z" fill="#E42851"/>
</svg>
