<svg xmlns="http://www.w3.org/2000/svg" fill="none" viewBox="0 0 34 34">
  <path fill="currentColor" fill-rule="evenodd" d="m20.723 11.688 1.85 1.85a.13.13 0 0 1 0 .186l-6.568 6.569-2.036-2.037 6.568-6.569a.13.13 0 0 1 .186 0Zm-7.858 7.671-.475.476-.402 2.438 2.439-.402.475-.475-2.037-2.037Zm10.812-4.532-8.502 8.502-4.498.741a.423.423 0 0 1-.486-.486l.741-4.498 8.502-8.502a1.69 1.69 0 0 1 2.392 0l1.85 1.852c.661.66.661 1.73 0 2.391Z" clip-rule="evenodd" />
  <circle cx="17" cy="17" r="16.5" stroke="none" />
</svg>
