<svg width="28" height="28" viewBox="0 0 28 28" fill="none" xmlns="http://www.w3.org/2000/svg">
<path fill-rule="evenodd" d="M1.06066 3.18198C0.474874 2.5962 0.474874 1.64645 1.06066 1.06066C1.64645 0.474876 2.59619 0.474876 3.18198 1.06066L26.7398 24.6185C27.3256 25.2043 27.3256 26.154 26.7398 26.7398C26.154 27.3256 25.2043 27.3256 24.6185 26.7398L1.06066 3.18198Z"/>
<path fill-rule="evenodd" d="M24.6185 1.06066C25.2043 0.474874 26.1541 0.474874 26.7399 1.06066C27.3256 1.64645 27.3256 2.59619 26.7399 3.18198L3.18204 26.7398C2.59625 27.3256 1.64651 27.3256 1.06072 26.7398C0.474933 26.154 0.474934 25.2043 1.06072 24.6185L24.6185 1.06066Z"/>
</svg>
