<svg xmlns="http://www.w3.org/2000/svg" width="46" height="34" viewBox="0 0 46 34">
    <g fill="none" fill-rule="evenodd">
        <path fill-rule="nonzero" stroke="#37383F" stroke-width="2" d="M23 1c-3.423 0-6.865 1.285-9.476 3.853-1.94 1.91-3.117 4.28-3.616 6.75C4.842 12.57 1 16.923 1 22.176 1 28.137 5.942 33 12 33h23.435C40.709 33 45 28.778 45 23.588c0-4.898-3.835-8.885-8.698-9.323.022-3.407-1.208-6.82-3.841-9.412C29.853 2.287 26.423 1 23 1z"/>
        <path fill="#E30329" d="M22.5 13.066h.8a.6.6 0 0 1 .6.6v11.245a.6.6 0 0 1-.6.6h-.8a.6.6 0 0 1-.6-.6V13.666a.6.6 0 0 1 .6-.6z"/>
        <path stroke="#E30329" stroke-linecap="round" stroke-width="2" d="M18.54 17.296l4.249-4.03a.3.3 0 0 1 .418.006l4.051 4.024"/>
    </g>
</svg>
