<svg width="16px" height="18px" viewBox="0 0 16 18" version="1.1" xmlns="http://www.w3.org/2000/svg" xmlns:xlink="http://www.w3.org/1999/xlink">
  <g id="Copy" stroke-width="1.56" fill="none">
    <path d="M15,0.78 L4,0.78 C3.87849736,0.78 3.78,0.878497355 3.78,1 L3.78,3.7786101 L3.00039,3.7789999 L1,3.78 C0.878497355,3.78 0.78,3.87849736 0.78,4 L0.78,17 C0.78,17.1215026 0.878497355,17.22 1,17.22 L12,17.22 C12.1215026,17.22 12.22,17.1215026 12.22,17 L12.22,14.22 L15,14.22 C15.1215026,14.22 15.22,14.1215026 15.22,14 L15.22,1 C15.22,0.878497355 15.1215026,0.78 15,0.78 Z" id="Combined-Shape"></path>
    <path d="M1,3.78 C0.878497355,3.78 0.78,3.87849736 0.78,4 L0.78,17 C0.78,17.1215026 0.878497355,17.22 1,17.22 L12,17.22 C12.1215026,17.22 12.22,17.1215026 12.22,17 L12.22,4 C12.22,3.87849736 12.1215026,3.78 12,3.78 L1,3.78 Z" id="Rectangle-Copy"></path>
  </g>
</svg>
