<svg width="51" height="52" viewBox="0 0 51 52" fill="none" xmlns="http://www.w3.org/2000/svg">
<path d="M14.0265 52H36.4049C44.0975 52 50.3914 45.7061 50.3914 38.0135V14.2365C50.3914 6.54392 44.0975 0.25 36.4049 0.25H14.0265C6.33396 0.25 0.0400391 6.54392 0.0400391 14.2365V38.0135C0.0400391 45.7061 6.33396 52 14.0265 52ZM5.63463 14.2365C5.63463 9.62095 9.41099 5.84459 14.0265 5.84459H36.4049C41.0204 5.84459 44.7968 9.62095 44.7968 14.2365V38.0135C44.7968 42.6291 41.0204 46.4054 36.4049 46.4054H14.0265C9.41099 46.4054 5.63463 42.6291 5.63463 38.0135V14.2365Z" fill="#EA3323"/>
<path d="M26.7541 26.4047C27.873 27.5236 29.5514 27.5236 30.6703 26.5445L32.6284 24.7263L34.5866 26.5445C35.7055 27.6635 37.5237 27.5236 38.5028 26.4047C39.6217 25.2858 39.4818 23.4675 38.3629 22.4885L36.6845 20.8101L38.3629 19.1317C39.4818 18.0128 39.4818 16.3344 38.5028 15.2155C37.3839 14.0966 35.7055 14.0966 34.5866 15.0756L32.6284 16.8939L30.8102 15.0756C29.6913 13.9567 27.873 14.0966 26.894 15.2155C25.7751 16.3344 25.9149 18.1527 27.0339 19.1317L28.7122 20.8101L27.0339 22.4885C25.7751 23.4675 25.7751 25.2858 26.7541 26.4047Z" fill="#EA3323"/>
<path d="M34.3068 32.4189H15.7048C14.1663 32.4189 12.9075 33.6777 12.9075 35.2162C12.9075 36.7548 14.1663 38.0135 15.7048 38.0135H34.1669C35.7054 38.0135 36.9642 36.7548 36.9642 35.2162C36.9642 33.6777 35.8453 32.4189 34.3068 32.4189Z" fill="#EA3323"/>
<path d="M11.3691 26.4047C12.488 27.5236 14.1664 27.5236 15.2853 26.5445L17.2434 24.7263L19.2015 26.5445C20.3205 27.6635 22.1387 27.5236 23.1178 26.4047C24.2367 25.2858 24.0968 23.4675 22.9779 22.4885L21.2995 20.8101L22.9779 19.1317C24.0968 18.0128 24.0968 16.3344 23.1178 15.2155C21.9988 14.0966 20.3205 14.0966 19.2015 15.0756L17.2434 16.8939L15.4252 15.0756C14.3063 13.9567 12.488 14.0966 11.509 15.2155C10.3901 16.3344 10.5299 18.1527 11.6488 19.1317L13.3272 20.8101L11.6488 22.4885C10.3901 23.4675 10.3901 25.2858 11.3691 26.4047Z" fill="#EA3323"/>
</svg>
