<svg width="29" height="34" viewBox="0 0 29 34" fill="none" xmlns="http://www.w3.org/2000/svg">
  <path fill-rule="evenodd" clip-rule="evenodd"
        d="M1.88281 5H27.1173L24.2905 30.4417C24.0654 32.4675 22.3531 34 20.315 34H8.68521C6.64701 34 4.93475 32.4675 4.70967 30.4417L1.88281 5ZM4.11734 7L6.69744 30.2209C6.80998 31.2337 7.66611 32 8.68521 32H20.315C21.334 32 22.1902 31.2337 22.3027 30.2209L24.8828 7H4.11734Z"
        fill="#37383F" />
  <path fill-rule="evenodd" clip-rule="evenodd"
        d="M6.60449 7H22.3946L20.9416 2.71534C20.3911 1.09209 18.8675 0 17.1535 0H11.8456C10.1316 0 8.60804 1.09209 8.05755 2.71534L6.60449 7ZM9.39463 5L9.9516 3.35767C10.2268 2.54604 10.9886 2 11.8456 2H17.1535C18.0105 2 18.7723 2.54605 19.0475 3.35767L19.6045 5H9.39463Z"
        fill="#37383F" />
  <path fill-rule="evenodd" clip-rule="evenodd"
        d="M0 6C0 5.44772 0.447715 5 1 5H28C28.5523 5 29 5.44772 29 6V6C29 6.55228 28.5523 7 28 7H1C0.447716 7 0 6.55228 0 6V6Z"
        fill="#37383F" />
  <rect x="11" y="11" width="2" height="16" rx="1" fill="#E30329" />
  <rect x="16" y="11" width="2" height="16" rx="1" fill="#E30329" />
</svg>
