<svg xmlns="http://www.w3.org/2000/svg" width="37" height="37" viewBox="0 0 37 37">
    <g fill="none" fill-rule="evenodd" stroke="#FFF" stroke-width="1.728">
        <path d="M32.832 34.56H1.728C.778 34.56 0 33.782 0 32.832V6.048c0-.95.778-1.728 1.728-1.728h31.104c.95 0 1.728.778 1.728 1.728v26.784c0 .95-.778 1.728-1.728 1.728z" transform="translate(1 1)"/>
        <path d="M8.64 5.184V2.592C8.64 1.16 9.8 0 11.232 0h12.096c1.432 0 2.592 1.16 2.592 2.592v2.592M20.736 12.96v2.592c0 1.432-1.16 2.592-2.592 2.592h-1.728c-1.432 0-2.592-1.16-2.592-2.592V12.96M0 12.96L34.56 12.96" transform="translate(1 1)"/>
    </g>
</svg>
