<svg xmlns="http://www.w3.org/2000/svg" width="43" height="43" viewBox="0 0 43 43">
    <g fill="none" fill-rule="evenodd">
        <path stroke="#FFF" stroke-width="1.86" d="M40.92 20.46c0 2.48-4.03 4.237-4.96 6.407-.93 2.273.723 6.303-1.033 8.06-1.757 1.756-5.787.103-8.06 1.033-2.17.93-3.927 4.96-6.407 4.96s-4.237-4.03-6.407-4.96c-2.273-.93-6.303.723-8.06-1.033-1.756-1.757-.103-5.787-1.033-8.06C4.03 24.697 0 22.94 0 20.46s4.03-4.237 4.96-6.407c.93-2.273-.723-6.303 1.033-8.06 1.757-1.756 5.787-.103 8.06-1.033C16.223 4.03 17.98 0 20.46 0s4.237 4.03 6.407 4.96c2.273.93 6.303-.723 8.06 1.033 1.756 1.757.103 5.787 1.033 8.06.93 2.17 4.96 3.927 4.96 6.407z" transform="translate(1 1)"/>
        <path fill="#FFF" fill-rule="nonzero" d="M14.157 17.255c1.141 0 2.066-.925 2.066-2.067 0-1.141-.925-2.066-2.066-2.066-1.142 0-2.067.925-2.067 2.066 0 1.142.925 2.067 2.067 2.067zM26.66 27.692c1.142 0 2.068-.925 2.068-2.067 0-1.14-.926-2.066-2.067-2.066-1.142 0-2.067.925-2.067 2.066 0 1.142.925 2.067 2.067 2.067z" transform="translate(1 1)"/>
        <path stroke="#FFF" stroke-width="1.86" d="M14.052 27.175L26.865 14.259" transform="translate(1 1)"/>
    </g>
</svg>
