<svg xmlns="http://www.w3.org/2000/svg" width="135" height="115" viewBox="0 0 135 115">
  <g fill="none" fill-rule="evenodd">
    <g fill-rule="nonzero">
      <path stroke="#37383F" stroke-width="2.2"
            d="M25.476 64.728C-.133 43.892.785 12.476.785 12.476 14.202 12.476 25.475 0 25.475 0S36.75 12.476 50.168 12.476c0 0 .917 31.416-24.691 52.252z"
            transform="translate(-820 -219) translate(325 157) translate(497 64) translate(81.537 1.097)" />
      <path fill="#E30329"
            d="M25.476 47.175c-11.95-9.888-11.523-24.798-11.523-24.798 6.262 0 11.523-5.92 11.523-5.92s5.26 5.92 11.522 5.92c0 0 .428 14.91-11.522 24.798z"
            transform="translate(-820 -219) translate(325 157) translate(497 64) translate(81.537 1.097)" />
      <path stroke="#37383F" stroke-width="2.2"
            d="M25.476 47.175c-11.95-9.888-11.523-24.798-11.523-24.798 6.262 0 11.523-5.92 11.523-5.92s5.26 5.92 11.522 5.92c0 0 .428 14.91-11.522 24.798z"
            transform="translate(-820 -219) translate(325 157) translate(497 64) translate(81.537 1.097)" />
      <path fill="#FFF" stroke="#37383F" stroke-width="1.87"
            d="M25.476 38.398c-5.122-4.238-4.939-10.627-4.939-10.627 2.684 0 4.939-2.538 4.939-2.538s2.254 2.538 4.938 2.538c0 0 .183 6.39-4.938 10.627z"
            transform="translate(-820 -219) translate(325 157) translate(497 64) translate(81.537 1.097)" />
    </g>
    <path fill="#FFF" d="M25.244 30.718H98.781V81.184H25.244z"
          transform="translate(-820 -219) translate(325 157) translate(497 64)" />
    <g transform="translate(-820 -219) translate(325 157) translate(497 64)">
      <ellipse cx="48.975" cy="56.4" fill="#E30329" rx="10.918" ry="10.853" />
      <path fill="#37383F"
            d="M28.818 83.339c-.913 0-1.826-.002-2.738-.004-.728-.003-1.452-.31-1.957-.83-.483-.498-.761-1.188-.764-1.874-.026-16.284-.026-32.57 0-48.854.004-.73.318-1.46.854-1.963.498-.468 1.177-.738 1.867-.742 23.662-.037 47.325-.037 70.986 0 .789.004 1.564.36 2.076.962.41.483.643 1.11.645 1.743.026 16.284.026 32.57 0 48.854-.002.715-.303 1.426-.818 1.928-.5.488-1.197.773-1.903.776-.912.002-1.825.004-2.738.004.002.906.002 1.812 0 2.718-.004.925-.513 1.834-1.326 2.319-.42.25-.908.384-1.395.385-1.825.003-3.651.003-5.476 0-.87-.003-1.726-.442-2.231-1.161-.317-.45-.489-.995-.49-1.55v-2.698c-14.558.014-29.115.014-43.674 0 .002.902.002 1.803 0 2.705-.004.707-.294 1.406-.794 1.905-.503.503-1.208.796-1.927.799-1.825.003-3.65.003-5.475 0-.82-.003-1.633-.392-2.145-1.043-.37-.472-.576-1.07-.577-1.669v-2.71zm2.73.004c0 .902-.002 1.804 0 2.705h.001c1.82 0 3.639.003 5.458 0V83.35l-5.46-.007zm60.05 0l-5.459.007v2.698h.002c1.82 0 3.638.003 5.458 0v-2.705zm1.479-2.715l3.98-.006c.233-16.277.027-32.557 0-48.836-23.655-.185-47.311 0-70.967 0h-.001c-.078 16.278-.078 32.558 0 48.836H38.373l.057.004c15.385.005 30.77.019 46.156.01.018-.004.037-.005.056-.008.045-.004.089-.004.134-.006h8.188l.114.006zm-2.843-5.433H32.913c-.046-.001-.09-.001-.134-.005-.356-.035-.695-.216-.921-.49-.171-.206-.278-.462-.303-.728-.005-.044-.005-.089-.007-.133V38.568c.002-.043.002-.088.007-.133.051-.528.44-1.008.962-1.164.084-.026.173-.043.262-.053.045-.004.088-.004.134-.007h57.32c.046.003.09.006.135.007.043.007.088.011.132.02.35.07.67.281.868.577.124.185.202.399.224.62.004.045.004.09.007.133v4.07h1.364l.134.006c.044.007.089.011.133.02.481.096.895.465 1.04.937.025.085.043.172.051.26.004.045.004.09.007.133v5.426c-.003.045-.003.09-.007.133-.051.53-.44 1.008-.962 1.166-.084.026-.173.043-.262.053-.045.004-.089.004-.134.005H91.6V61.63h1.364l.134.006c.044.007.089.011.133.02.48.096.895.465 1.04.937.025.085.043.172.051.26.004.045.004.09.007.133v5.426c-.003.045-.003.09-.007.133-.051.53-.44 1.008-.962 1.166-.084.025-.173.043-.262.053-.045.004-.089.004-.134.005H91.6v4.07c-.003.044-.003.09-.007.133-.052.529-.441 1.008-.962 1.165-.085.026-.174.043-.262.053-.045.004-.09.004-.134.005zm-1.365-32.557v-2.713H34.277v32.557H88.87V69.77h-4.094c-.045-.001-.09-.001-.134-.005-.356-.036-.695-.216-.921-.49-.17-.206-.277-.463-.303-.729-.004-.043-.004-.088-.007-.133v-5.426c.003-.043.003-.088.007-.133.034-.352.215-.689.492-.915.206-.169.466-.274.732-.302.045-.004.089-.004.134-.006h4.094V50.777h-4.094c-.045-.001-.09-.001-.134-.005-.356-.036-.695-.216-.921-.49-.17-.206-.277-.463-.303-.729-.004-.043-.004-.088-.007-.133v-5.426c.003-.043.003-.088.007-.133.052-.527.44-1.008.962-1.164.084-.025.173-.043.262-.053.045-.004.089-.004.134-.006h4.094zm-39.558 1.356c1.701.006 3.409.362 4.965 1.05 1.894.839 3.569 2.163 4.821 3.812 1.365 1.795 2.215 3.965 2.424 6.217.231 2.49-.326 5.045-1.577 7.208-1.34 2.315-3.471 4.178-5.943 5.2-2.596 1.074-5.563 1.222-8.254.416-2.865-.859-5.375-2.788-6.941-5.331-1.375-2.233-1.998-4.918-1.742-7.551.212-2.168 1.025-4.275 2.319-6.027 1.534-2.077 3.738-3.656 6.22-4.432 1.184-.37 2.426-.558 3.667-.562h.04zm42.288 20.349h-5.46v2.713h5.46v-2.713zM49.275 46.707c-1.33.004-2.66.283-3.875.822-1.925.855-3.556 2.366-4.551 4.228-.935 1.745-1.295 3.792-1.022 5.76.214 1.535.818 3.018 1.74 4.274 1.408 1.92 3.556 3.29 5.915 3.739 1.823.347 3.743.157 5.457-.548 2.153-.888 3.957-2.583 4.968-4.676.878-1.817 1.15-3.907.766-5.9-.38-1.966-1.41-3.8-2.888-5.162-1.316-1.214-2.98-2.052-4.745-2.377-.582-.107-1.175-.16-1.765-.16zm42.324-1.356h-5.46v2.713h5.46V45.35z" />
      <ellipse cx="49.311" cy="56.4" fill="#FFF" stroke="#37383F" stroke-width="1.87" rx="3.359" ry="3.339" />
      <ellipse cx="103.031" cy="107.619" stroke="#37383F" stroke-width="1.089" rx="4.338" ry="4.305" />
      <ellipse cx="61.276" cy="2.69" stroke="#37383F" stroke-width="1.089" rx="1.627" ry="1.614" />
      <ellipse cx="85.136" cy="101.7" stroke="#37383F" stroke-width="1.089" rx="1.627" ry="1.614" />
      <ellipse cx="6.507" cy="11.838" stroke="#37383F" stroke-width="1.089" rx="4.338" ry="4.305" />
      <ellipse cx="2.711" cy="62.957" stroke="#E30329" stroke-width="2.178" rx="2.711" ry="2.69" />
      <ellipse cx="117.672" cy="92.014" stroke="#E30329" stroke-width="2.178" rx="2.711" ry="2.69" />
      <ellipse cx="27.656" cy="2.69" stroke="#E30329" stroke-width="2.178" rx="2.711" ry="2.69" />
    </g>
  </g>
</svg>
