<svg xmlns="http://www.w3.org/2000/svg" width="43" height="43" viewBox="0 0 43 43">
  <g fill="currentColor" fill-rule="evenodd">
    <path d="M21.5 43C33.3552 43 43 33.3552 43 21.5C43 9.64483 33.3552 0 21.5 0C9.64483 0 0 9.64483 0 21.5C0 33.3552 9.64483 43 21.5 43ZM21.5 1.9172C32.2981 1.9172 41.0828 10.7019 41.0828 21.5C41.0828 32.2981 32.2981 41.0828 21.5 41.0828C10.7019 41.0828 1.9172 32.2981 1.9172 21.5C1.9172 10.7019 10.7019 1.9172 21.5 1.9172Z" fill="#282423"/>
    <path d="M16.2002 19.5678C18.3929 19.5678 20.1699 17.7902 20.1699 15.5981C20.1705 13.4054 18.3929 11.6278 16.2002 11.6278C14.0075 11.6278 12.2305 13.4054 12.2305 15.5975C12.2326 17.7892 14.0086 19.5651 16.2002 19.5678ZM16.2002 13.545C17.3337 13.545 18.2527 14.464 18.2527 15.5975C18.2533 16.7316 17.3343 17.6506 16.2002 17.6506C15.0667 17.6506 14.1477 16.7316 14.1477 15.5975C14.1487 14.4646 15.0672 13.5466 16.2002 13.545Z" fill="#282423"/>
    <path d="M22.5894 27.6431C22.5894 29.8358 24.3669 31.6129 26.5591 31.6129C28.7518 31.6129 30.5293 29.8358 30.5293 27.6431C30.5293 25.4504 28.7518 23.6729 26.5591 23.6729C24.3675 23.6755 22.592 25.4515 22.5894 27.6431ZM28.6122 27.6431C28.6122 28.7766 27.6931 29.6957 26.5591 29.6957C25.4256 29.6957 24.5066 28.7766 24.5066 27.6431C24.5066 26.5096 25.4256 25.5906 26.5591 25.59C27.6926 25.5917 28.6105 26.5096 28.6122 27.6431Z" fill="#282423"/>
    <path d="M14.2007 32.6919C14.6442 32.9813 15.2385 32.8561 15.5274 32.4127L29.0783 11.6348C29.266 11.3476 29.2864 10.9822 29.1318 10.6762C28.9766 10.3702 28.6701 10.1702 28.3278 10.152C27.9854 10.1338 27.6591 10.2996 27.4724 10.5874L13.9215 31.3653C13.6321 31.8093 13.7573 32.403 14.2007 32.6919Z" fill="#282423"/>
  </g>
</svg>
