<svg xmlns="http://www.w3.org/2000/svg" width="68" height="77" viewBox="0 0 68 77">
    <g fill="none" fill-rule="evenodd" stroke="#96979A" stroke-width="3.2">
        <path d="M17.286 1.6a2.624 2.624 0 0 0-2.624 2.624v55.719a2.624 2.624 0 0 0 2.624 2.624h45.99a2.624 2.624 0 0 0 2.624-2.624V4.224A2.624 2.624 0 0 0 63.276 1.6h-45.99z"/>
        <path fill="#FFF" d="M4.724 14.433A2.624 2.624 0 0 0 2.1 17.057v55.719A2.624 2.624 0 0 0 4.724 75.4h45.99a2.624 2.624 0 0 0 2.623-2.624V17.057a2.624 2.624 0 0 0-2.623-2.624H4.724z"/>
        <path stroke-linecap="round" d="M19.643 34.537h18.494M19.643 45.407h18.494M19.643 56.278h18.494"/>
    </g>
</svg>
