<svg xmlns="http://www.w3.org/2000/svg" width="28" height="32" viewBox="0 0 28 32">
    <g fill="none" fill-rule="evenodd" stroke-width="1.6">
        <path stroke="#37383F" d="M7.01.8c-.53 0-.96.43-.96.96v23.147c0 .53.43.96.96.96h19.23c.53 0 .96-.43.96-.96V1.76c0-.53-.43-.96-.96-.96H7.01z"/>
        <path fill="#FFF" stroke="#37383F" d="M1.76 6.133c-.53 0-.96.43-.96.96V30.24c0 .53.43.96.96.96h19.23c.53 0 .96-.43.96-.96V7.093c0-.53-.43-.96-.96-.96H1.76z"/>
        <path stroke="#E30329" stroke-linecap="round" d="M8 14.353L15.729 14.353M8 18.871L15.729 18.871M8 23.388L15.729 23.388"/>
    </g>
</svg>
