<svg xmlns="http://www.w3.org/2000/svg" width="18" height="18" viewBox="0 0 18 18">
    <path fill="#E9314D" fill-rule="nonzero" d="M15.36 15.36C17.12 13.6 18 11.48 18 9c0-2.493-.88-4.617-2.64-6.37C13.6.877 11.48 0 9 0 6.513 0 4.39.877 2.63 2.63.877 4.39 0 6.513 0 9c0 2.48.877 4.6 2.63 6.36C4.39 17.12 6.513 18 9 18c2.48 0 4.6-.88 6.36-2.64zM9 7.65l2.46-2.46a.893.893 0 0 1 .67-.28c.26 0 .487.093.68.28.18.187.27.41.27.67 0 .267-.09.493-.27.68L10.35 9l2.46 2.46c.187.187.28.41.28.67a.926.926 0 0 1-.28.68.926.926 0 0 1-.68.28.914.914 0 0 1-.67-.28L9 10.35l-2.46 2.46a.926.926 0 0 1-.68.28.914.914 0 0 1-.67-.28.926.926 0 0 1-.28-.68c0-.26.093-.483.28-.67L7.65 9 5.19 6.55a.948.948 0 0 1-.28-.68c0-.26.093-.483.28-.67a.899.899 0 0 1 .67-.29.91.91 0 0 1 .68.29L9 7.65z"/>
</svg>
