<svg width="14" height="16" viewBox="0 0 14 16" fill="none" xmlns="http://www.w3.org/2000/svg">
<path fill-rule="evenodd" clip-rule="evenodd" d="M7.14753 4.53765V1.28H1.45901V14.72H12.3123V6.60994L9.2074 6.60994C9.20739 6.60994 9.20742 6.60994 9.2074 6.60994C8.04773 6.60996 7.15648 5.66054 7.14757 4.54789L7.14753 4.53765ZM9.20736 5.32994H13.5923V15.2012C13.594 15.4124 13.5132 15.6156 13.368 15.7656C13.2228 15.9156 13.0251 16 12.8188 16H0.952438C0.741652 16.0002 0.539923 15.9122 0.393922 15.7565C0.247921 15.6007 0.170296 15.3907 0.179006 15.175V0.798836C0.177302 0.587576 0.258035 0.384368 0.403267 0.234366C0.548499 0.084364 0.746199 -7.21458e-06 0.952438 4.62711e-10H8.42753V4.53765C8.43104 4.97628 8.77916 5.32996 9.20736 5.32994Z" fill="black"/>
<path fill-rule="evenodd" clip-rule="evenodd" d="M9.46301 4.16758V0H9.66116C9.86633 0.00122951 10.0632 0.0813346 10.2109 0.22372L13.4069 3.41972C13.5279 3.55406 13.5976 3.72602 13.605 3.90536C13.6059 3.92663 13.6059 3.948 13.605 3.96943V4.16758H9.46301ZM11.0645 2.88758L10.743 2.56605V2.88758H11.0645Z" fill="black"/>
</svg>
