<svg xmlns="http://www.w3.org/2000/svg" width="14" height="16" viewBox="0 0 14 16">
    <g fill="none" fill-rule="evenodd">
        <g fill-rule="nonzero">
            <g>
                <g>
                    <g>
                        <path stroke="#000" stroke-width="1.28" d="M7.788.64v3.903c.003.393.161.748.414 1.004.258.262.614.423 1.005.423h3.745v9.236l-12 .154L.819.794 7.788.64z" transform="translate(-675 -164) translate(122 154) translate(542 1) translate(11 9)"/>
                        <path fill="#000" d="M9.448 12.581c.063.083.068.188.012.274-.056.086-.163.14-.28.14h-.93c-.117.001-.225-.053-.278-.14C7.447 12.047 7 11.32 7 11.32c-.168.33-.268.441-.972 1.539-.056.085-.162.139-.278.141h-.93c-.117 0-.224-.054-.28-.14-.056-.087-.051-.192.012-.274L6.154 10.5 4.552 8.41c-.064-.082-.07-.187-.013-.273.056-.086.164-.138.28-.137h.925c.117 0 .225.052.284.137.694 1.089.525.754.972 1.53l.972-1.53c.06-.085.167-.137.284-.137h.924c.117-.001.225.051.281.137.056.086.051.191-.013.273l-1.576 2.086 1.576 2.085z" transform="translate(-675 -164) translate(122 154) translate(542 1) translate(11 9)"/>
                        <path stroke="#000" stroke-width="1.28" d="M10.103 1.233l2.326 2.152-2.326.111V1.233z" transform="translate(-675 -164) translate(122 154) translate(542 1) translate(11 9)"/>
                    </g>
                </g>
            </g>
        </g>
    </g>
</svg>
