<svg xmlns="http://www.w3.org/2000/svg" width="46" height="48" viewBox="0 0 46 48">
    <path fill="none" fill-rule="evenodd" stroke="#282423" stroke-linecap="round" stroke-width="2" d="M30 43h14l-2.516-24.5M30 43l2.516-24.5M30 43H16m16.516-24.5l.397-4.096c.05-.513.48-.904.995-.904h6.184c.515 0 .946.391.995.904l.397 4.096m-8.968 0h8.968M3 9c0-2.21 1.79-4 4-4s4 1.79 4 4c0-3.314 2.686-6 6-6s6 2.686 6 6c0-4.418 3.582-8 8-8s8 3.582 8 8M16 28.5v-3.162c0-1.383-1.37-2.349-2.673-1.883l-10 3.571C2.531 27.31 2 28.064 2 28.909V43h14m0-14.5V43m0-14.5l11.695-4M1 47h44m-7-23.5c0 .552-.448 1-1 1s-1-.448-1-1 .448-1 1-1 1 .448 1 1z"/>
</svg>
