<svg xmlns="http://www.w3.org/2000/svg" width="44" height="47" viewBox="0 0 44 47">
    <g fill="none" fill-rule="evenodd">
        <g stroke="#37383F" stroke-width="2">
            <path fill="#FFF" d="M2.332 1C1.597 1 1 1.597 1 2.332v33.9c0 .736.597 1.332 1.332 1.332h28.336c.735 0 1.332-.596 1.332-1.332v-33.9C32 1.597 31.403 1 30.668 1H2.332z"/>
            <path stroke-linecap="round" d="M10.607 12.477h11.808M10.607 19.282h11.808M10.607 26.087h11.808"/>
        </g>
        <ellipse cx="33" cy="36.154" fill="#FFF" rx="9.778" ry="9.641"/>
        <path fill="#E30329" fill-rule="nonzero" d="M32.936 25.514c-6.032 0-10.936 4.79-10.936 10.68s4.904 10.68 10.936 10.68c6.03 0 10.935-4.79 10.935-10.68s-4.904-10.68-10.935-10.68zm0 19.254c-4.851 0-8.79-3.847-8.79-8.584 0-4.738 3.939-8.584 8.79-8.584 4.85 0 8.789 3.846 8.789 8.584 0 4.737-3.939 8.584-8.79 8.584z"/>
        <path stroke="#E30329" stroke-linecap="round" stroke-width="2" d="M28.047 36.705l3.334 2.955a.124.124 0 0 0 .176-.012l5.045-5.872"/>
    </g>
</svg>
