<svg version="1.1" id="Layer_1" xmlns="http://www.w3.org/2000/svg" x="0px" y="0px"
	 width="512px" height="512px" viewBox="0 0 512 512" enable-background="new 0 0 512 512">
  <path d="M492.031,240L265.734,466.281c-56.156,56.125-147.5,56.125-203.641,0c-56.156-56.156-56.156-147.5,0-203.656l226.281-226.25
	c43.656-43.688,114.719-43.688,158.406,0c43.656,43.656,43.656,114.719,0,158.375L266.109,375.375
	c-15.047,15.281-35.156,23.719-56.641,23.813c-42.922,0.188-80.469-37.313-80.313-80.313c0.078-21.438,8.563-41.563,23.813-56.625
	L333.625,81.625l22.625,22.625l-181.031,181c-9.016,9.031-14.016,20.969-14.063,33.75c-0.109,25.781,22.406,48.313,48.188,48.188
	c12.766-0.031,24.75-5.031,33.766-14.063l181.047-181c31.188-31.188,31.188-81.938,0-113.125C392.938,27.813,342.188,27.813,311,59
	L84.719,285.25c-43.672,43.656-43.672,114.719,0,158.406c43.656,43.656,114.719,43.656,158.391,0l226.297-226.281L492.031,240z"/>
</svg>
