<svg width="14" height="18" viewBox="0 0 14 18" fill="none" xmlns="http://www.w3.org/2000/svg">
<path fill-rule="evenodd" clip-rule="evenodd" d="M1.59506 0.5C0.714134 0.5 0 1.21413 0 2.09506V15.7049C0 16.5859 0.714134 17.3 1.59506 17.3H12.4049C13.2859 17.3 14 16.5859 14 15.7049V2.09506C14 1.21413 13.2859 0.5 12.4049 0.5H1.59506ZM4.16667 4.67741C3.62911 4.67741 3.19333 5.11319 3.19333 5.65074C3.19333 6.1883 3.62911 6.62408 4.16667 6.62408H9.84412C10.3817 6.62408 10.8175 6.1883 10.8175 5.65074C10.8175 5.11319 10.3817 4.67741 9.84412 4.67741H4.16667ZM3.19333 8.96845C3.19333 8.43089 3.62911 7.99512 4.16667 7.99512H9.84412C10.3817 7.99512 10.8175 8.43089 10.8175 8.96845C10.8175 9.50601 10.3817 9.94178 9.84412 9.94178H4.16667C3.62911 9.94178 3.19333 9.50601 3.19333 8.96845ZM4.16667 11.3141C3.62911 11.3141 3.19333 11.7499 3.19333 12.2875C3.19333 12.825 3.62911 13.2608 4.16667 13.2608H9.84412C10.3817 13.2608 10.8175 12.825 10.8175 12.2875C10.8175 11.7499 10.3817 11.3141 9.84412 11.3141H4.16667Z" fill="white"/>
</svg>
