<svg xmlns="http://www.w3.org/2000/svg" width="131" height="35" viewBox="0 0 131 35">
  <g fill="none" fill-rule="evenodd">
    <path fill="#000" fill-rule="nonzero" d="M39.182 6.603c2.18-.187 4.076 1.401 4.17 3.55v.468c0 2.43-1.61 3.831-4.17 3.831h-5.12v3.925h-2.18V6.603h7.3zm.094 5.794c.948.093 1.802-.655 1.896-1.59v-.28a1.892 1.892 0 00-1.706-2.055h-5.498v3.925h5.308zM51.506 18.564c-3.792 0-6.92-2.523-6.92-6.167 0-3.645 3.128-6.168 6.92-6.168s6.92 2.523 6.92 6.168c0 3.644-3.128 6.167-6.92 6.167m0-10.373c-2.37-.187-4.456 1.589-4.645 3.925v.28c0 2.43 1.8 4.206 4.645 4.206 2.844 0 4.645-1.776 4.645-4.205 0-2.43-1.801-4.206-4.645-4.206" transform="translate(0 -.5)"/>
    <path fill="#000" d="M67.527 18.564c-3.981 0-6.92-2.523-6.92-6.167 0-3.645 3.033-6.168 6.92-6.168 1.991-.094 3.887.56 5.499 1.775l-1.138 1.682c-1.232-.934-2.75-1.495-4.266-1.495-2.939 0-4.74 1.776-4.74 4.112 0 2.336 1.801 4.205 4.74 4.205 1.612 0 3.128-.467 4.36-1.401l1.138 1.682a9.668 9.668 0 01-5.593 1.775" transform="translate(0 -.5)"/>
    <path fill="#000" fill-rule="nonzero" d="M92.08 15.387l-1.327 2.803h-2.37l5.783-11.68h2.275l5.783 11.68h-2.37l-1.327-2.803h-6.446zm.949-1.87h4.55l-2.275-4.765-2.275 4.766z" transform="translate(0 -.5)"/>
    <path fill="#000" d="M113.79 18.284L113.79 13.238 106.016 13.238 106.016 18.284 103.836 18.284 103.836 6.603 106.016 6.603 106.016 11.369 113.79 11.369 113.79 6.603 115.97 6.603 115.97 18.284zM119.288 18.284L119.288 6.603 121.469 6.603 121.469 12.023 127.441 6.603 130.096 6.603 124.028 12.21 130.38 18.284 127.441 18.284 121.469 12.583 121.469 18.284z" transform="translate(0 -.5)"/>
    <path fill="#000" fill-rule="nonzero" d="M82.885 10.808h-5.12v-2.43h8.438V6.51H75.49V18.19h7.3c2.56 0 4.36-1.401 4.36-3.738 0-2.336-1.61-3.644-4.265-3.644m.19 5.42h-5.31V12.77h5.31c1.327 0 2.18.748 2.18 1.776s-.664 1.775-2.18 1.682" transform="translate(0 -.5)"/>
    <path fill="#000" d="M73.215 33.142v.094c0 .56-.19 1.121-.569 1.588-.379.374-.948.654-1.516.654-1.233 0-2.18-1.027-2.18-2.149 0-.56.284-1.121.663-1.588.379-.374.948-.561 1.517-.561.758 0 1.422.374 1.8.934l-.568.374c-.284-.374-.758-.56-1.232-.56-.38 0-.759.093-1.043.373-.285.28-.474.654-.38 1.028 0 .374.095.748.38 1.028.284.28.663.374 1.043.374.568 0 1.137-.374 1.327-.935H70.94v-.747l2.275.093z" transform="translate(0 -.5)"/>
    <path fill="#000" fill-rule="nonzero" d="M78.05 35.385h-.758l-.854-1.495h-1.611v1.495h-.664v-4.018h2.655c.284 0 .663.093.853.374.19.28.284.56.284.934.095.56-.284 1.121-.853 1.215l.948 1.495zm-1.327-2.15c.284 0 .569-.186.569-.373v-.187c0-.374-.19-.56-.57-.56h-1.895v1.12h1.896zM83.074 33.33c0 1.214-.948 2.148-2.18 2.148-1.232 0-2.18-.934-2.18-2.149 0-.56.284-1.121.663-1.588.38-.374.948-.561 1.517-.561s1.043.187 1.422.56c.474.468.758 1.028.758 1.59m-.758 0c0-.375-.095-.748-.38-1.029-.284-.28-.663-.374-1.042-.374-.38 0-.758.094-1.043.374-.284.28-.474.654-.379 1.028 0 .374.095.748.38 1.028.663.56 1.516.56 2.18 0 .19-.28.379-.654.284-1.028" transform="translate(0 -.5)"/>
    <path fill="#000" d="M87.72 34.077c0 .374-.19.747-.474 1.028-.853.56-1.896.56-2.75 0-.284-.28-.568-.654-.568-1.028v-2.71h.663v2.523c0 .56.38.934 1.233.934.853 0 1.232-.28 1.232-.934v-2.523h.664v2.71z" transform="translate(0 -.5)"/>
    <path fill="#000" fill-rule="nonzero" d="M91.417 31.367c.284 0 .664.093.853.374.19.28.285.56.285.934s-.095.654-.285.935c-.284.28-.569.373-.948.373h-1.896v1.495h-.663V31.46h2.654v-.093zm-.095 1.869c.38 0 .569-.187.569-.561 0-.374-.19-.56-.664-.56h-1.896v1.12h1.991z" transform="translate(0 -.5)"/>
    <path fill="#000" d="M3.631 32.301c-.379-.28-.853-.374-1.422-.374-.758 0-1.042.187-1.042.468 0 .28.094.28.379.373l1.137.094c.38 0 .759.187 1.138.374.284.187.38.56.38.84 0 .375-.19.748-.475 1.029-.38.28-.853.373-1.327.373-.758 0-1.422-.186-1.99-.747l.378-.56c.474.373 1.043.56 1.707.56.284 0 .569 0 .853-.187a.513.513 0 00.284-.467c0-.187-.19-.374-.379-.467-.19-.094-.38-.094-.663-.094l-.854-.093c-.284 0-.663-.094-.853-.28-.19-.188-.284-.468-.284-.748 0-.374.19-.748.474-.935.379-.28.853-.374 1.327-.374.664 0 1.327.187 1.801.561l-.569.654z" transform="translate(0 -.5)"/>
    <path fill="#000" fill-rule="nonzero" d="M9.13 33.33c.095 1.12-.853 2.055-1.991 2.148h-.19c-1.232 0-2.18-1.027-2.18-2.149 0-.56.284-1.121.664-1.588a2.206 2.206 0 012.938 0c.474.467.759 1.027.759 1.588m-.664 0c0-.374-.095-.747-.379-1.028-.284-.28-.664-.374-1.043-.374-.379 0-.758.094-1.043.374-.284.28-.474.654-.379 1.028 0 .374.095.748.38 1.028.663.56 1.516.56 2.18 0 .095-.28.284-.654.284-1.028" transform="translate(0 -.5)"/>
    <path fill="#000" d="M13.965 32.301l-.57.28c-.284-.373-.852-.654-1.326-.654-.38 0-.854.094-1.138.374a1.452 1.452 0 000 2.056c.284.28.758.467 1.138.374.568 0 1.042-.28 1.327-.654l.569.374c-.38.654-1.138 1.027-1.896 1.027a2.598 2.598 0 01-1.612-.56c-.38-.374-.664-.935-.569-1.589 0-.56.19-1.215.664-1.588.379-.374.948-.561 1.422-.561.853 0 1.611.467 1.99 1.121M14.913 31.367H15.913V35.385H14.913zM20.127 35.385L16.619 35.385 16.619 31.367 20.032 31.367 20.032 32.021 17.283 32.021 17.283 32.955 19.179 32.955 19.179 33.61 17.283 33.61 17.283 34.637 20.127 34.637zM24.298 32.021L22.781 32.021 22.781 35.385 22.118 35.385 22.118 32.021 20.601 32.021 20.601 31.367 24.298 31.367zM28.564 35.385L25.056 35.385 25.056 31.367 28.469 31.367 28.469 32.021 25.72 32.021 25.72 32.955 27.616 32.955 27.616 33.61 25.72 33.61 25.72 34.637 28.564 34.637zM35.105 33.142v.094c0 .56-.19 1.121-.569 1.588-.379.374-.948.654-1.516.654-1.233 0-2.18-1.027-2.18-2.149 0-.56.284-1.121.663-1.588.379-.374.948-.561 1.517-.561.758 0 1.422.374 1.8.934l-.568.374c-.284-.374-.758-.56-1.232-.56-.38 0-.759.093-1.043.373a1.452 1.452 0 000 2.056c.284.28.663.374 1.043.374.663 0 1.137-.374 1.327-.935H32.83v-.747l2.275.093zM39.561 35.385L35.958 35.385 35.958 31.367 39.371 31.367 39.371 32.021 36.622 32.021 36.622 32.955 38.518 32.955 38.518 33.61 36.622 33.61 36.622 34.637 39.561 34.637zM44.206 35.385L43.258 35.385 40.983 32.021 40.983 35.385 40.319 35.385 40.319 31.367 41.267 31.367 43.543 34.731 43.543 31.367 44.206 31.367zM48.851 35.385L45.249 35.385 45.249 31.367 48.662 31.367 48.662 32.021 45.913 32.021 45.913 32.955 47.809 32.955 47.809 33.61 45.913 33.61 45.913 34.637 48.851 34.637z" transform="translate(0 -.5)"/>
    <path fill="#000" fill-rule="nonzero" d="M53.497 35.385h-.759l-.853-1.495h-1.612v1.495h-.663v-4.018h2.654c.285 0 .664.093.853.374.19.28.285.56.285.934.095.56-.285 1.121-.853 1.215l.948 1.495zm-1.328-2.15c.38 0 .57-.186.57-.56 0-.374-.19-.56-.664-.56h-1.896v1.12h1.99zM58.237 35.385h-.664l-.38-.841h-2.18l-.379.841h-.663l1.8-4.018h.76l1.706 4.018zm-1.328-1.589l-.758-1.775-.758 1.775h1.516z" transform="translate(0 -.5)"/>
    <path fill="#000" d="M62.029 35.385L58.9 35.385 58.9 31.367 59.564 31.367 59.564 34.637 62.029 34.637zM66.295 35.385L62.787 35.385 62.787 31.367 66.2 31.367 66.2 32.021 63.451 32.021 63.451 32.955 65.347 32.955 65.347 33.61 63.451 33.61 63.451 34.637 66.295 34.637z" transform="translate(0 -.5)"/>
    <path fill="#E9041E" d="M0.124 0.622H23.919V12.584H0.124z" transform="translate(0 -.5)"/>
    <path fill="#000" d="M0.124 12.397H23.919V24.078H0.124z" transform="translate(0 -.5)"/>
    <path fill="#FFF" d="M4.2 11.649H19.653V13.050999999999998H4.2z" transform="translate(0 -.5)"/>
  </g>
</svg>
