<svg xmlns="http://www.w3.org/2000/svg" width="44" height="44" viewBox="0 0 44 44">
    <g fill="none">
        <path fill="#FFF" d="M0 0H44V44H0z"/>
        <path fill="#282423" d="M39.32 31.999c-5.523 9.566-17.755 12.843-27.321 7.32l-1 1.733c10.522 6.075 23.977 2.47 30.053-8.053l-1.733-1zm-27.321 7.32C2.433 33.797-.844 21.565 4.679 12l-1.733-1C-3.129 21.521.476 34.976 11 41.052l1-1.733zM4.679 12C10.2 2.433 22.433-.844 31.998 4.679l1-1.733C22.477-3.129 9.022.476 2.946 11l1.732 1zm27.32-7.32c9.566 5.522 12.843 17.754 7.32 27.32l1.733 1c6.075-10.522 2.47-23.977-8.053-30.053l-1 1.732zm.618-1.86c-3.299-.392-7.05 1.102-10.516 3.647-3.494 2.565-6.836 6.296-9.346 10.644l1.732 1c2.382-4.126 5.543-7.643 8.798-10.032 3.282-2.41 6.523-3.578 9.096-3.272l.236-1.986zm-.919 1.592c1.552 2.076 2.16 5.466 1.714 9.514-.442 4.013-1.907 8.51-4.29 12.635l1.733 1c2.51-4.348 4.07-9.108 4.545-13.416.471-4.273-.11-8.27-2.1-10.93L31.698 4.41zm-18.943 12.7C10.244 21.46 8.777 26.057 8.4 30.21c-.373 4.129.324 7.935 2.297 10.574l1.602-1.197c-1.568-2.098-2.256-5.341-1.907-9.197.348-3.834 1.713-8.155 4.094-12.28l-1.732-1zm16.368 9.45c-2.382 4.124-5.441 7.467-8.588 9.684-3.165 2.23-6.318 3.257-8.918 2.948l-.236 1.986c3.272.389 6.917-.91 10.306-3.299 3.407-2.401 6.656-5.97 9.168-10.32l-1.732-1zM.783 19.39L34.866 39.07l1-1.732L1.781 17.66l-1 1.732zm7.35-12.73l34.082 19.678 1-1.732L9.133 4.929l-1 1.732z"/>
    </g>
</svg>
