<svg xmlns="http://www.w3.org/2000/svg" width="41" height="41" viewBox="0 0 41 41">
    <path fill="#282423" d="M5.964 8.234l.605.666.021-.02.02-.02-.646-.626zm1.3-.09l.575-.692-.048-.04-.054-.033-.473.765zm5.2 7.23l-.86.262.002.008.002.008.857-.277zm-.346 1.518l.7.566.005-.007.006-.007-.711-.552zm-1.647 2.231l.761.48.018-.028.016-.03-.795-.422zm.693 4.91l-.645.627.645-.627zm9.622 5.713l-.494-.753-.007.005.5.748zm2.167-1.696l.586.683.03-.027.03-.03-.646-.626zm1.473-.357l-.292.85.012.005.012.004.268-.86zm7.02 5.355l.728-.53-.004-.005-.004-.006-.72.541zm-.086 1.34l.666.605.023-.026.022-.028-.71-.552zM22 39.563l-.054-.898h-.016l.07.898zm-9.015-3.302l-.646.627.006.006.006.006.634-.64zm-8.841-9.105l-.646.627.646-.627zM.937 17.874l.897.065v-.007l.001-.008-.898-.05zm29.554 1.742l.871-.227-.87.227zm8.39-2.315l.871-.227-.87.227zm.047.183l-.873.22.873-.22zM6.61 8.86c.007-.008.009-.007.006-.006l.01-.001c.021-.001.082.005.165.056l.946-1.531c-.69-.427-1.702-.51-2.419.228L6.61 8.86zm.08-.024c2.597 2.157 4.113 4.16 4.913 6.799l1.723-.523c-.933-3.074-2.71-5.355-5.487-7.661L6.69 8.837zm4.918 6.815c.053.163.03.391-.2.688l1.42 1.104c.464-.596.787-1.438.493-2.347l-1.713.555zm-.19.674c-.373.461-1.168 1.292-1.742 2.376l1.59.843c.466-.88 1.058-1.477 1.552-2.087l-1.4-1.132zM9.71 18.643c-1.414 2.241-.598 4.568.809 6.017l1.291-1.254c-1.02-1.05-1.417-2.473-.578-3.802l-1.522-.96zm.809 6.017l4.854 4.998 1.291-1.254-4.854-4.998-1.291 1.254zm4.854 4.998c1.406 1.449 3.702 2.316 5.913.835l-1.001-1.495c-1.256.84-2.6.457-3.62-.594l-1.292 1.254zm5.906.84c1.012-.663 1.754-1.331 2.26-1.765l-1.173-1.366c-.534.458-1.18 1.04-2.074 1.626l.987 1.505zm2.32-1.821c.12-.125.367-.19.535-.133l.584-1.703c-.872-.3-1.839-.008-2.411.582l1.291 1.254zm.559-.125c2.63.82 4.566 2.372 6.57 5.037l1.438-1.082c-2.157-2.87-4.381-4.71-7.472-5.674l-.536 1.719zm6.561 5.026c.003.004.015.023.013.065-.002.04-.018.108-.083.192l1.422 1.104c.564-.726.626-1.703.103-2.42l-1.455 1.059zm-.024.203c-1.29 1.418-4.63 4.64-8.75 4.885l.107 1.797c4.895-.291 8.664-4.031 9.974-5.47l-1.331-1.212zm-8.765 4.886c-3.2.247-6.153-.904-8.312-3.044L12.351 36.9c2.522 2.5 5.984 3.849 9.717 3.56l-.138-1.794zm-8.3-3.032l-4.42-4.553-4.42-4.552-1.292 1.254 4.42 4.552 4.421 4.553 1.291-1.254zM4.79 26.53c-2.146-2.21-3.199-5.253-2.956-8.59L.04 17.807c-.277 3.804.924 7.366 3.46 9.976l1.29-1.254zm-2.955-8.606c.24-4.278 3.31-7.73 4.734-9.024L5.36 7.568C3.835 8.952.319 12.819.039 17.824l1.796.1zm27.785 1.918c.448 1.72.538 3.45.32 5.107l1.784.236c.248-1.884.145-3.847-.362-5.796l-1.742.453zm-14.616-9.347c6.43-1.344 12.881 2.68 14.616 9.347l1.742-.453C29.394 11.826 22.04 7.185 14.636 8.733l.368 1.762zm2.12-8.687c9.602-.26 18.292 5.75 20.886 15.72l1.742-.454C36.94 6.262 27.481-.273 17.076.01l.048 1.8zm20.886 15.72c.016.058.03.117.045.175l1.746-.439-.049-.19-1.742.453zm.045.175c.438 1.739.624 3.576.645 5.326l1.8-.021c-.023-1.856-.22-3.839-.7-5.744l-1.745.44z"/>
</svg>
