<svg xmlns="http://www.w3.org/2000/svg" width="42" height="42" viewBox="0 0 42 42">
    <g fill="none" fill-rule="evenodd">
        <path stroke="#282423" stroke-width="2" d="M38 41H2c-1.1 0-2-.9-2-2V8c0-1.1.9-2 2-2h36c1.1 0 2 .9 2 2v31c0 1.1-.9 2-2 2zM10 9L10 0M20 9L20 0M30 9L30 0M0 15L40 15" transform="translate(1)"/>
        <path fill="#282423" fill-rule="nonzero" d="M14.5 25c1.105 0 2-.895 2-2s-.895-2-2-2-2 .895-2 2 .895 2 2 2zM25.5 25c1.105 0 2-.895 2-2s-.895-2-2-2-2 .895-2 2 .895 2 2 2z" transform="translate(1)"/>
        <path stroke="#282423" stroke-width="2" d="M12.5 30c.5.5 3.5 3.2 8 3 3.9-.2 6.4-2.4 7-3" transform="translate(1)"/>
    </g>
</svg>
