<svg width="18" height="32" viewBox="0 0 18 32" fill="none" xmlns="http://www.w3.org/2000/svg">
<g clip-path="url(#clip0_1_508)">
<path d="M10.704 10.3255C7.87965 10.3255 5.58215 12.0594 5.01219 12.7774V10.6933H0V32H4.98281V24.4242C5.56844 25.1598 7.85027 26.8626 10.6884 26.8626C15.4067 26.8626 18 24.3172 18 18.5862C18 12.8708 15.4067 10.3255 10.704 10.3255ZM8.91969 22.7312C5.94451 22.7312 5.01806 21.657 5.01806 18.5629C5.01806 15.4532 5.94451 14.3946 8.91969 14.3946C11.9106 14.3946 12.8057 15.4532 12.8057 18.5629C12.8076 21.657 11.9106 22.7312 8.91969 22.7312Z" fill="white"/>
<path d="M0 2.08222V7.43761L17.3399 5.86329V0L0 2.08222Z" fill="#E4003A"/>
</g>
<defs>
<clipPath id="clip0_1_508">
<rect width="18" height="32" fill="white"/>
</clipPath>
</defs>
</svg>
