<svg width="16" height="15" viewBox="0 0 16 15" fill="none" xmlns="http://www.w3.org/2000/svg">
<path fill="none" d="M11.1968 5.8037H11.2074L11.2181 5.80341L12.0741 5.78H14.3911C14.6445 5.78 14.9252 5.90558 15.1096 6.09907C15.2185 6.24234 15.2315 6.35839 15.2127 6.45029C15.2126 6.4508 15.2125 6.4513 15.2124 6.45181L13.7275 13.3671L13.7258 13.3752L13.7242 13.3834C13.6098 13.9777 13.2401 14.22 12.8806 14.22H3.0944C2.82612 14.22 2.49578 14.0678 2.28166 13.411L2.27223 13.3671L0.788274 6.45591C0.764957 6.33071 0.786698 6.2211 0.902256 6.08893C1.06975 5.9062 1.34969 5.78 1.63342 5.78H3.95042L4.80644 5.80341L4.81709 5.8037H4.82775H11.1968Z" stroke="currentColor" stroke-width="1.56"/>
<path fill="none" d="M4 5.14844L6.44629 1" stroke="currentColor" stroke-width="1.56" stroke-linecap="round"/>
<path fill="none" d="M12.4463 5.14844L10 1" stroke="currentColor" stroke-width="1.56" stroke-linecap="round"/>
</svg>
