<svg width="17" height="18" viewBox="0 0 17 18" fill="none" xmlns="http://www.w3.org/2000/svg">
<path fill-rule="evenodd" clip-rule="evenodd" d="M12.5345 2.2988L14.3857 4.15001C14.4369 4.20117 14.4369 4.28411 14.3857 4.33527L7.81653 10.9045L5.78006 8.86801L12.3493 2.2988C12.4004 2.24765 12.4834 2.24764 12.5345 2.2988ZM4.67697 9.9711L4.20212 10.446L3.80025 12.8843L6.23858 12.4824L6.71344 12.0076L4.67697 9.9711ZM15.4888 5.43836L6.98707 13.9401L2.48896 14.6814C2.20338 14.7285 1.95602 14.4812 2.00309 14.1956L2.74443 9.69746L11.2462 1.19572C11.9066 0.53534 12.9772 0.535341 13.6376 1.19572L15.4888 3.04692C16.1492 3.7073 16.1492 4.77798 15.4888 5.43836Z" fill="currentColor"/>
<path fill-rule="evenodd" clip-rule="evenodd" d="M1.32373 16.6278C1.32373 16.197 1.67295 15.8478 2.10373 15.8478H15.8218C16.2526 15.8478 16.6018 16.197 16.6018 16.6278C16.6018 17.0586 16.2526 17.4078 15.8218 17.4078H2.10373C1.67295 17.4078 1.32373 17.0586 1.32373 16.6278Z" fill="currentColor"/>
</svg>
