<svg width="15" height="15" viewBox="0 0 15 15" xmlns="http://www.w3.org/2000/svg">
  <path fill-rule="evenodd" clip-rule="evenodd" d="M7.5 13.5C10.8137 13.5 13.5 10.8137 13.5 7.5C13.5 4.18629 10.8137 1.5 7.5 1.5C4.18629 1.5 1.5 4.18629 1.5 7.5C1.5 10.8137 4.18629 13.5 7.5 13.5ZM7.5 15C11.6421 15 15 11.6421 15 7.5C15 3.35786 11.6421 0 7.5 0C3.35786 0 0 3.35786 0 7.5C0 11.6421 3.35786 15 7.5 15Z"/>
  <path d="M8.16699 9.1543H6.92188C6.91862 8.97526 6.91699 8.86621 6.91699 8.82715C6.91699 8.4235 6.98372 8.09147 7.11719 7.83105C7.25065 7.57064 7.51758 7.27767 7.91797 6.95215C8.31836 6.62663 8.55762 6.41341 8.63574 6.3125C8.75618 6.15299 8.81641 5.97721 8.81641 5.78516C8.81641 5.51823 8.70898 5.29036 8.49414 5.10156C8.28255 4.90951 7.99609 4.81348 7.63477 4.81348C7.28646 4.81348 6.99512 4.91276 6.76074 5.11133C6.52637 5.3099 6.36523 5.61263 6.27734 6.01953L5.01758 5.86328C5.05339 5.2806 5.30078 4.78581 5.75977 4.37891C6.22201 3.97201 6.82747 3.76855 7.57617 3.76855C8.36393 3.76855 8.99056 3.97526 9.45605 4.38867C9.92155 4.79883 10.1543 5.27734 10.1543 5.82422C10.1543 6.12695 10.068 6.41341 9.89551 6.68359C9.72624 6.95378 9.36165 7.32161 8.80176 7.78711C8.51204 8.02799 8.33138 8.22168 8.25977 8.36816C8.19141 8.51465 8.16048 8.77669 8.16699 9.1543ZM6.92188 11V9.62793H8.29395V11H6.92188Z"/>
</svg>
