<svg xmlns="http://www.w3.org/2000/svg" width="17" height="17" viewBox="0 0 17 17">
    <g fill="none" fill-rule="evenodd">
        <g>
            <g transform="translate(-352 -283) translate(353 284)">
                <circle cx="7.5" cy="7.5" r="7.5" stroke="#2778D0"/>
                <path fill="#2778D0" fill-rule="nonzero" d="M8.26 8.48l.25-4.619H6.4l.25 4.62h1.61zm-.81 2.642c.32 0 .567-.082.745-.247.177-.164.266-.393.266-.686 0-.296-.086-.526-.256-.69-.171-.165-.423-.247-.755-.247-.335 0-.59.082-.766.247-.176.164-.264.394-.264.69 0 .293.091.522.273.686.183.165.435.247.757.247z"/>
            </g>
        </g>
    </g>
</svg>
