<svg width="10" height="14" viewBox="0 0 10 14" fill="none" xmlns="http://www.w3.org/2000/svg">
  <g fill="none">
    <path d="M1.12873 1.12551C1.21114 1.04515 1.323 1 1.43956 1H4.70487H5.21978H8.56044C8.677 1 8.78886 1.04515 8.87127 1.12551C8.95369 1.20587 9 1.31492 9 1.42857C9 4.17143 7.40874 5.64571 5.74725 6.97429C7.40874 8.33291 9 9.80286 9 12.5714C9 12.6851 8.95369 12.7941 8.87127 12.8745C8.78886 12.9548 8.677 13 8.56044 13H5.04396H4.95604H1.43956C1.323 13 1.21114 12.9548 1.12873 12.8745C1.04631 12.7941 1 12.6851 1 12.5714C1 9.80286 2.59126 8.33291 4.25275 6.97429C2.59126 5.64571 1 4.17143 1 1.42857C1 1.31492 1.04631 1.20587 1.12873 1.12551Z" stroke="#AEB4C1" stroke-width="2"/>
  </g>
</svg>
