<svg xmlns="http://www.w3.org/2000/svg" width="27" height="29" viewBox="0 0 27 29">
    <g fill="none" fill-rule="evenodd">
        <g>
            <g>
                <path stroke="#F11C41" stroke-width="1.23" d="M18.16.615H1.803c-.283 0-.54.115-.725.3-.185.186-.3.442-.3.725v24.862c0 .283.115.54.3.725.186.186.442.3.725.3h19.811c.283 0 .54-.114.725-.3.185-.185.3-.442.3-.725V5.107c0-.271-.107-.531-.299-.724L18.885.916c-.192-.193-.453-.301-.726-.301z" transform="translate(-40 -29) translate(40 29)"/>
                <path stroke="#F11C41" stroke-width="1.23" d="M18.007 0v3.608c0 .906.734 1.64 1.64 1.64h3.608" transform="translate(-40 -29) translate(40 29)"/>
                <path fill="#F11C41" d="M9.02 13.94H24.6c.906 0 1.64.734 1.64 1.64v7.38c0 .906-.734 1.64-1.64 1.64H9.02c-.906 0-1.64-.734-1.64-1.64v-7.38c0-.906.734-1.64 1.64-1.64z" transform="translate(-40 -29) translate(40 29)"/>
                <path fill="#FFF" fill-rule="nonzero" d="M9.713 22l1.261-2.044L12.225 22h.94l-1.682-2.577 1.562-2.42h-.881l-1.156 1.89-1.155-1.89h-.91l1.553 2.406L8.838 22h.875zm7.058 0v-.7h-2.116v-4.297h-.817V22h2.933zm1.931.068c.565 0 1.008-.126 1.33-.379.321-.253.482-.602.482-1.046 0-.226-.04-.421-.12-.588-.08-.166-.205-.315-.376-.448-.17-.132-.44-.274-.807-.427-.325-.134-.551-.242-.676-.325-.126-.082-.216-.169-.27-.261-.055-.092-.082-.203-.082-.333 0-.19.068-.341.205-.457.136-.115.337-.172.601-.172.349 0 .745.093 1.19.28l.26-.666c-.474-.21-.95-.315-1.43-.315-.498 0-.896.12-1.192.359-.296.24-.444.567-.444.984 0 .333.093.618.28.855.187.237.508.448.964.632.442.178.733.332.875.462.141.13.212.288.212.475 0 .207-.077.372-.231.495-.154.123-.393.185-.716.185-.221 0-.46-.03-.716-.092-.257-.062-.499-.146-.727-.253v.772c.36.176.823.263 1.388.263zM21.71 22l1.261-2.044L24.222 22h.94l-1.682-2.577 1.562-2.42h-.881l-1.156 1.89-1.155-1.89h-.91l1.553 2.406L20.835 22h.875z" transform="translate(-40 -29) translate(40 29)"/>
            </g>
        </g>
    </g>
</svg>
