<svg xmlns="http://www.w3.org/2000/svg" width="48" height="38" viewBox="0 0 48 38">
    <g fill="none" fill-rule="evenodd" stroke="#979797" stroke-width=".9">
        <path d="M15.815 37.55H46.55V8.633h-7.909V.45H15.815v37.1zM2.827 6.528h5.3v23.33"/>
        <path d="M.733 9.035h4.836v20.822M30.73 19.452c0-5.246-4.248-9.5-9.49-9.5-5.241 0-9.49 4.254-9.49 9.5 0 5.247 4.249 9.5 9.49 9.5h18.565"/>
        <path d="M28.134 19.452c0-3.747-3.061-6.785-6.836-6.785-3.776 0-6.836 3.038-6.836 6.785 0 3.748 3.06 6.786 6.836 6.786h18.465M38.763.322l7.91 8.168"/>
    </g>
</svg>
