<svg width="31" height="37" viewBox="0 0 31 37" fill="none" xmlns="http://www.w3.org/2000/svg">
<path fill-rule="evenodd" clip-rule="evenodd" d="M3.19995 0.25C1.68117 0.25 0.449951 1.48122 0.449951 3V33.32C0.449951 34.8388 1.68117 36.07 3.19995 36.07H27.36C28.8787 36.07 30.11 34.8388 30.11 33.32V7.22814C30.11 6.50034 29.8214 5.80222 29.3076 5.28675L25.0932 1.05862C24.5772 0.540958 23.8764 0.25 23.1455 0.25H3.19995ZM1.94995 3C1.94995 2.30965 2.5096 1.75 3.19995 1.75H22.21V5.4C22.21 6.91878 23.4412 8.15 24.96 8.15H28.61V33.32C28.61 34.0104 28.0503 34.57 27.36 34.57H3.19995C2.5096 34.57 1.94995 34.0104 1.94995 33.32V3ZM28.4682 6.65C28.4102 6.53887 28.3354 6.4361 28.2453 6.34569L24.0308 2.11755C23.9361 2.02246 23.8275 1.9442 23.71 1.88469V5.4C23.71 6.09035 24.2696 6.65 24.96 6.65H28.4682Z" fill="#1E2028"/>
<rect x="8" y="10" width="15" height="1.5" rx="0.75" fill="#1E2028"/>
<rect x="8" y="14" width="15" height="1.5" rx="0.75" fill="#1E2028"/>
<rect x="8" y="18" width="15" height="1.5" rx="0.75" fill="#1E2028"/>
<rect x="8" y="22" width="15" height="1.5" rx="0.75" fill="#1E2028"/>
<path d="M8 26.75C8 26.3358 8.33579 26 8.75 26H15.25C15.6642 26 16 26.3358 16 26.75V26.75C16 27.1642 15.6642 27.5 15.25 27.5H8.75C8.33579 27.5 8 27.1642 8 26.75V26.75Z" fill="#1E2028"/>
</svg>
