<svg width="97" height="109" viewBox="0 0 97 109" fill="none" xmlns="http://www.w3.org/2000/svg">
  <path fill-rule="evenodd" clip-rule="evenodd" d="M40.0207 2.0793C44.6443 -0.689846 50.3557 -0.689846 54.9793 2.0793L87.5257 21.5678C92.1594 24.337 95.0101 29.4678 95.0101 35.0061V73.9832C95.0101 79.5319 92.1594 84.6522 87.5257 87.4214L54.9793 106.91C50.3557 109.679 44.6443 109.679 40.0207 106.91L7.47429 87.4214C2.8507 84.6522 0 79.5215 0 73.9832V35.0061C0 29.4573 2.8507 24.337 7.47429 21.5678L40.0207 2.0793Z" fill="white" fill-opacity="0.5" />
  <path fill-rule="evenodd" clip-rule="evenodd" d="M41.1589 7.31479C45.3695 4.79644 50.5471 4.79644 54.7577 7.31479L84.3426 25.0374C88.5532 27.5557 91.142 32.2162 91.142 37.253V72.6876C91.142 77.7243 88.5532 82.3849 84.3426 84.9032L54.7577 102.626C50.5471 105.144 45.3695 105.144 41.1589 102.626L11.574 84.9032C7.36346 82.3849 4.77466 77.7243 4.77466 72.6876V37.253C4.77466 32.2162 7.36346 27.5557 11.574 25.0374L41.1589 7.31479Z" fill="white" fill-opacity="0.8" />
  <g filter="url(#filter0_d_1006_3)">
    <path d="M65.4575 39.8707L65.4181 48.0063V48.7316H31.5426V32.6173C31.5426 31.7449 32.2619 31.0294 33.1388 31.0294L57.5749 31V39.8707H65.4575Z" fill="white" stroke="#37383F" stroke-width="1.62" />
    <path fill-rule="evenodd" clip-rule="evenodd" d="M69.6057 48.0062H41.7505L39.0212 44.5167C38.5679 43.9384 37.8683 43.5953 37.1294 43.5953H27.3943C26.074 43.5953 25 44.6637 25 45.9772V75.6181C25 76.9315 26.074 77.9999 27.3943 77.9999H69.6057C70.926 77.9999 72 76.9315 72 75.6181V50.388C72 49.0746 70.926 48.0062 69.6057 48.0062V48.0062Z" fill="white" stroke="#37383F" stroke-width="1.62" />
    <path d="M67.3197 51.8191H45.2583" stroke="#37383F" stroke-width="1.62" stroke-linecap="round" />
    <path d="M67.3197 55.3478H51.4658" stroke="#37383F" stroke-width="1.62" stroke-linecap="round" />
    <path d="M32.5377 71.6974C33.5173 71.6974 34.3113 70.9075 34.3113 69.933C34.3113 68.9586 33.5173 68.1687 32.5377 68.1687C31.5582 68.1687 30.7642 68.9586 30.7642 69.933C30.7642 70.9075 31.5582 71.6974 32.5377 71.6974Z" fill="#FF5572" stroke="#37383F" stroke-width="1.3" />
    <path d="M38.7453 71.6974C39.7248 71.6974 40.5188 70.9075 40.5188 69.933C40.5188 68.9586 39.7248 68.1687 38.7453 68.1687C37.7657 68.1687 36.9717 68.9586 36.9717 69.933C36.9717 70.9075 37.7657 71.6974 38.7453 71.6974Z" fill="#FF5572" stroke="#37383F" stroke-width="1.3" />
    <path d="M44.9528 71.6974C45.9323 71.6974 46.7264 70.9075 46.7264 69.933C46.7264 68.9586 45.9323 68.1687 44.9528 68.1687C43.9733 68.1687 43.1792 68.9586 43.1792 69.933C43.1792 70.9075 43.9733 71.6974 44.9528 71.6974Z" fill="#FF5572" stroke="#37383F" stroke-width="1.3" />
  </g>
  <path d="M65.4574 39.3904V39.8707H57.5748V31H57.9887L65.4574 39.3904Z" fill="#E30329" stroke="#37383F" stroke-width="1.62" />
  <defs>
    <filter id="filter0_d_1006_3" x="15.1899" y="26.189" width="66.6201" height="66.621" filterUnits="userSpaceOnUse" color-interpolation-filters="sRGB">
      <feFlood flood-opacity="0" result="BackgroundImageFix" />
      <feColorMatrix in="SourceAlpha" type="matrix" values="0 0 0 0 0 0 0 0 0 0 0 0 0 0 0 0 0 0 127 0" result="hardAlpha" />
      <feOffset dy="5" />
      <feGaussianBlur stdDeviation="4.5" />
      <feComposite in2="hardAlpha" operator="out" />
      <feColorMatrix type="matrix" values="0 0 0 0 0.203922 0 0 0 0 0.219608 0 0 0 0 0.270588 0 0 0 0.25 0" />
      <feBlend mode="normal" in2="BackgroundImageFix" result="effect1_dropShadow_1006_3" />
      <feBlend mode="normal" in="SourceGraphic" in2="effect1_dropShadow_1006_3" result="shape" />
    </filter>
  </defs>
</svg>
