<svg width="10" height="14" viewBox="0 0 10 14" fill="none" xmlns="http://www.w3.org/2000/svg">
<path d="M8.20838 4.92188V3.2813C8.20838 1.46942 6.77196 0 5 0C3.22839 0 1.79162 1.46906 1.79162 3.2813V4.92188C0.905629 4.92188 0.1875 5.65633 0.1875 6.56247V11.4844C0.1875 12.3905 0.905629 13.125 1.79162 13.125H8.20838C9.09437 13.125 9.8125 12.3905 9.8125 11.4844V6.56247C9.8125 5.65633 9.09437 4.92188 8.20838 4.92188ZM3.39581 3.28117C3.39581 2.37504 4.11407 1.64058 4.99994 1.64058C5.88593 1.64058 6.60406 2.37517 6.60406 3.28117V4.92175L3.39569 4.92188L3.39581 3.28117Z" fill="white"/>
</svg>
