<svg width="26" height="20" viewBox="0 0 26 20" fill="none" xmlns="http://www.w3.org/2000/svg">
<path fill-rule="evenodd" clip-rule="evenodd" d="M1.6 1.6V6.14238H24.4V1.6H1.6ZM1.6 17.4667V7.74238H24.4V17.4667H1.6ZM1 0C0.447715 0 0 0.447717 0 1V18.0667C0 18.619 0.447716 19.0667 1 19.0667H25C25.5523 19.0667 26 18.619 26 18.0667V1C26 0.447715 25.5523 0 25 0H1ZM6.39355 11.3423C5.95173 11.3423 5.59355 11.7005 5.59355 12.1423C5.59355 12.5841 5.95173 12.9423 6.39355 12.9423H10.6101C11.0519 12.9423 11.4101 12.5841 11.4101 12.1423C11.4101 11.7005 11.0519 11.3423 10.6101 11.3423H6.39355Z" fill="#3E414D"/>
</svg>
