<svg width="22" height="27" viewBox="0 0 22 27" fill="none" xmlns="http://www.w3.org/2000/svg">
<path fill-rule="evenodd" clip-rule="evenodd" d="M17.2041 0.934266C16.8916 0.621846 16.3851 0.621846 16.0727 0.934266C15.7603 1.24669 15.7603 1.75322 16.0727 2.06564L18.3559 4.34888H5.0002C2.34923 4.34888 0.200195 6.49791 0.200195 9.14888V14.5319H1.8002V9.14888C1.8002 7.38157 3.23288 5.94888 5.0002 5.94888H18.356L16.0727 8.23214C15.7603 8.54456 15.7603 9.05109 16.0727 9.36351C16.3851 9.67593 16.8916 9.67593 17.2041 9.36351L20.4994 6.06813C21.0071 5.56044 21.0071 4.73733 20.4994 4.22965L17.2041 0.934266ZM16.2873 21.5508C18.0546 21.5508 19.4873 20.1181 19.4873 18.3508V12.9678H21.0873V18.3508C21.0873 21.0017 18.9383 23.1508 16.2873 23.1508H2.93157L5.21481 25.434C5.52723 25.7464 5.52723 26.253 5.21481 26.5654C4.90239 26.8778 4.39586 26.8778 4.08344 26.5654L0.788054 23.27C0.280373 22.7623 0.280371 21.9392 0.788053 21.4315L4.08344 18.1361C4.39586 17.8237 4.90239 17.8237 5.21481 18.1361C5.52723 18.4486 5.52723 18.9551 5.21481 19.2675L2.93155 21.5508H16.2873Z" fill="#141519"/>
</svg>
