<svg width="22" height="21" viewBox="0 0 22 21" fill="none" xmlns="http://www.w3.org/2000/svg">
<path fill-rule="evenodd" clip-rule="evenodd" d="M9.20868 2.5186V19.4757H12.6443V2.5186H9.20868ZM8.68292 0.997162C8.19896 0.997162 7.80664 1.42289 7.80664 1.94806V20.0462C7.80664 20.5714 8.19896 20.9971 8.68292 20.9971H13.17C13.654 20.9971 14.0463 20.5714 14.0463 20.0462V1.94806C14.0463 1.42289 13.654 0.997162 13.17 0.997162H8.68292ZM1.40204 12.5449V19.4757H4.83762V12.5449H1.40204ZM0.876275 11.0235C0.392322 11.0235 0 11.4492 0 11.9744V20.0462C0 20.5714 0.392322 20.9971 0.876275 20.9971H5.36339C5.84734 20.9971 6.23967 20.5714 6.23967 20.0462V11.9744C6.23967 11.4492 5.84734 11.0235 5.36339 11.0235H0.876275ZM17.1625 19.4757V7.87897H20.5981V19.4757H17.1625ZM15.7605 7.30843C15.7605 6.78326 16.1528 6.35753 16.6368 6.35753H21.1239C21.6078 6.35753 22.0002 6.78326 22.0002 7.30843V20.0463C22.0002 20.5714 21.6078 20.9972 21.1239 20.9972H16.6368C16.1528 20.9972 15.7605 20.5714 15.7605 20.0463V7.30843Z" fill="#141519"/>
</svg>
