<svg width="17" height="16" viewBox="0 0 17 16" fill="none" xmlns="http://www.w3.org/2000/svg">
<path fill-rule="evenodd" clip-rule="evenodd" d="M5.79267 12.1434L7.29274 13.0556L7.29274 6.65264C7.29274 6.24441 7.61925 5.91347 8.02201 5.91347C8.42478 5.91347 8.75129 6.24441 8.75129 6.65264L8.75129 13.0556L10.2514 12.1434C10.5967 11.9334 11.0447 12.0469 11.2519 12.3969C11.4591 12.747 11.3471 13.201 11.0018 13.4111L8.39722 14.995C8.16627 15.1355 7.87775 15.1355 7.6468 14.995L5.04225 13.4111C4.69689 13.201 4.58489 12.747 4.79212 12.3969C4.99934 12.0469 5.4473 11.9334 5.79267 12.1434ZM0 8.13099C0 6.32763 1.27429 4.82594 2.95999 4.5005C3.28578 1.96121 5.42794 8.2016e-05 8.02201 8.2016e-05C10.6161 8.2016e-05 12.7582 1.96121 13.084 4.5005C14.7697 4.82594 16.044 6.32763 16.044 8.13099C16.044 10.1722 14.4115 11.8269 12.3977 11.8269C11.9949 11.8269 11.6684 11.4959 11.6684 11.0877C11.6684 10.6795 11.9949 10.3485 12.3977 10.3485C13.606 10.3485 14.5855 9.35569 14.5855 8.13099C14.5855 6.90629 13.606 5.91347 12.3977 5.91347C11.9949 5.91347 11.6684 5.58253 11.6684 5.1743C11.6684 3.13313 10.0358 1.47843 8.02201 1.47843C6.00818 1.47843 4.37564 3.13313 4.37564 5.1743C4.37564 5.58253 4.04914 5.91347 3.64637 5.91347C2.43807 5.91347 1.45855 6.90629 1.45855 8.13099C1.45855 9.35569 2.43807 10.3485 3.64637 10.3485C4.04914 10.3485 4.37564 10.6795 4.37564 11.0877C4.37564 11.4959 4.04914 11.8269 3.64637 11.8269C1.63254 11.8269 0 10.1722 0 8.13099Z" fill="currenColor"/>
</svg>
