<svg xmlns="http://www.w3.org/2000/svg" width="120" height="34" viewBox="0 0 120 34">
    <g fill="none" fill-rule="evenodd">
        <path fill="#000" fill-rule="nonzero" d="M36.795 7.304c1.975-.17 3.692 1.273 3.778 3.225v.424c0 2.206-1.46 3.48-3.778 3.48h-4.637v3.563h-1.975V7.304h6.612zm.086 5.261c.859.085 1.631-.594 1.717-1.442v-.255a1.717 1.717 0 0 0-1.545-1.867h-4.981v3.564h4.809zM47.958 18.166c-3.435 0-6.268-2.291-6.268-5.6 0-3.31 2.833-5.602 6.268-5.602 3.435 0 6.269 2.292 6.269 5.601 0 3.31-2.834 5.601-6.269 5.601m0-9.42c-2.147-.17-4.036 1.443-4.208 3.565v.254c0 2.207 1.632 3.82 4.208 3.82 2.576 0 4.208-1.613 4.208-3.82 0-2.206-1.632-3.819-4.208-3.819"/>
        <path fill="#000" d="M62.47 18.166c-3.606 0-6.268-2.291-6.268-5.6 0-3.31 2.748-5.602 6.268-5.602 1.804-.085 3.52.51 4.98 1.613l-1.03 1.527c-1.116-.848-2.49-1.358-3.864-1.358-2.662 0-4.293 1.613-4.293 3.734 0 2.122 1.631 3.82 4.293 3.82 1.46 0 2.834-.425 3.95-1.274l1.03 1.528a8.742 8.742 0 0 1-5.066 1.612"/>
        <path fill="#000" fill-rule="nonzero" d="M84.71 15.28l-1.202 2.547h-2.146L86.6 7.219h2.06L93.9 17.827h-2.147L90.55 15.28h-5.84zm.86-1.696h4.121l-2.06-4.328-2.062 4.328z"/>
        <path fill="#000" d="M104.375 17.912v-4.583h-7.041v4.583h-1.975V7.304h1.975v4.328h7.041V7.304h1.975v10.608zM109.355 17.912V7.304h1.975v4.922l5.41-4.922h2.405l-5.496 5.091 5.753 5.517h-2.662l-5.41-5.177v5.177z"/>
        <path fill="#000" fill-rule="nonzero" d="M76.381 11.123h-4.637V8.916h7.643V7.22h-9.704v10.608h6.612c2.319 0 3.95-1.273 3.95-3.395 0-2.121-1.46-3.31-3.864-3.31m.172 4.923h-4.809v-3.14h4.809c1.202 0 1.975.679 1.975 1.612 0 .934-.601 1.612-1.975 1.528"/>
        <path fill="#000" d="M67.622 31.405v.085c0 .509-.171 1.018-.515 1.442-.343.34-.858.594-1.374.594-1.116 0-1.975-.933-1.975-1.951 0-.51.258-1.019.601-1.443.344-.34.86-.51 1.374-.51.687 0 1.288.34 1.632.85l-.515.339c-.258-.34-.687-.51-1.117-.51-.343 0-.687.085-.944.34-.258.255-.43.594-.344.934 0 .339.086.678.344.933.257.255.6.34.944.34.516 0 1.03-.34 1.202-.85h-1.373v-.678l2.06.085z"/>
        <path fill="#000" fill-rule="nonzero" d="M72.002 33.442h-.687l-.773-1.358h-1.46v1.358h-.6v-3.65h2.404c.257 0 .6.085.772.34.172.254.258.51.258.849.086.509-.258 1.018-.773 1.103l.859 1.358zM70.8 31.49c.257 0 .515-.17.515-.34v-.17c0-.339-.172-.509-.515-.509h-1.718v1.019H70.8zM76.553 31.575c0 1.103-.859 1.951-1.975 1.951s-1.975-.848-1.975-1.951c0-.51.258-1.019.601-1.443.344-.34.859-.51 1.374-.51.515 0 .945.17 1.288.51.43.424.687.933.687 1.443m-.687 0c0-.34-.086-.68-.343-.934-.258-.255-.602-.34-.945-.34-.344 0-.687.085-.945.34-.257.255-.429.594-.343.934 0 .339.086.678.343.933.601.51 1.374.51 1.975 0 .172-.255.344-.594.258-.933"/>
        <path fill="#000" d="M80.76 32.253c0 .34-.171.68-.429.934a2.22 2.22 0 0 1-2.49 0c-.258-.255-.515-.594-.515-.934v-2.46h.6v2.29c0 .51.344.85 1.117.85s1.117-.255 1.117-.85v-2.29h.6v2.46z"/>
        <path fill="#000" fill-rule="nonzero" d="M84.11 29.792c.257 0 .6.085.772.34.172.254.258.51.258.849 0 .339-.086.594-.258.848-.257.255-.515.34-.858.34h-1.718v1.357h-.6v-3.649h2.404v-.085zm-.086 1.698c.343 0 .515-.17.515-.51 0-.339-.172-.509-.601-.509H82.22v1.019h1.804z"/>
        <path fill="#000" d="M4.594 30.641c-.344-.255-.773-.34-1.288-.34-.687 0-.945.17-.945.425s.086.255.343.34l1.03.084c.344 0 .688.17 1.031.34.258.17.344.509.344.763 0 .34-.172.68-.43.934-.343.255-.772.34-1.202.34-.687 0-1.288-.17-1.803-.68l.343-.509c.43.34.945.51 1.546.51.258 0 .515 0 .773-.17a.466.466 0 0 0 .258-.425c0-.17-.172-.339-.344-.424-.172-.085-.343-.085-.601-.085l-.773-.085c-.257 0-.6-.084-.773-.254-.171-.17-.257-.424-.257-.68 0-.339.171-.678.43-.848.343-.254.772-.34 1.201-.34.601 0 1.202.17 1.632.51l-.515.594z"/>
        <path fill="#000" fill-rule="nonzero" d="M9.574 31.575c.086 1.018-.773 1.867-1.803 1.951h-.172c-1.116 0-1.975-.933-1.975-1.951 0-.51.258-1.019.601-1.443a1.994 1.994 0 0 1 2.662 0c.43.424.687.933.687 1.443m-.601 0c0-.34-.086-.68-.343-.934-.258-.255-.602-.34-.945-.34-.344 0-.687.085-.945.34-.257.255-.429.594-.343.934 0 .339.086.678.343.933.601.51 1.374.51 1.975 0 .086-.255.258-.594.258-.933"/>
        <path fill="#000" d="M13.953 30.641l-.515.255c-.257-.34-.773-.594-1.202-.594-.343 0-.773.084-1.03.34a1.32 1.32 0 0 0 0 1.866c.257.255.687.424 1.03.34.515 0 .945-.255 1.202-.595l.515.34c-.343.594-1.03.933-1.717.933a2.35 2.35 0 0 1-1.46-.509c-.343-.34-.6-.848-.515-1.442 0-.51.172-1.104.601-1.443.344-.34.859-.51 1.288-.51.773 0 1.46.425 1.803 1.02M14.812 29.792h1v3.649h-1zM19.535 33.442h-3.177v-3.65h3.091v.594h-2.49v.85h1.717v.593H16.96v.934h2.576zM23.313 30.386H21.94v3.056h-.6v-3.056h-1.375v-.594h3.35zM27.178 33.442H24v-3.65h3.092v.594h-2.49v.85h1.717v.593H24.6v.934h2.577zM33.103 31.405v.085c0 .509-.172 1.018-.516 1.442-.343.34-.858.594-1.374.594-1.116 0-1.975-.933-1.975-1.951 0-.51.258-1.019.601-1.443.344-.34.86-.51 1.374-.51.687 0 1.288.34 1.632.85l-.515.339c-.258-.34-.687-.51-1.117-.51-.343 0-.687.085-.944.34a1.32 1.32 0 0 0 0 1.867c.257.255.6.34.944.34.602 0 1.03-.34 1.203-.85h-1.374v-.678l2.06.085zM37.138 33.442h-3.263v-3.65h3.092v.594h-2.49v.85h1.717v.593h-1.718v.934h2.662zM41.346 33.442h-.859l-2.06-3.056v3.056h-.602v-3.65h.86l2.06 3.056v-3.056h.601zM45.554 33.442H42.29v-3.65h3.091v.594h-2.49v.85h1.717v.593h-1.717v.934h2.662z"/>
        <path fill="#000" fill-rule="nonzero" d="M49.761 33.442h-.687l-.772-1.358h-1.46v1.358h-.601v-3.65h2.404c.258 0 .601.085.773.34.172.254.258.51.258.849.085.509-.258 1.018-.773 1.103l.858 1.358zM48.56 31.49c.344 0 .515-.17.515-.51 0-.339-.171-.509-.6-.509h-1.718v1.019h1.803zM54.055 33.442h-.601l-.344-.764h-1.975l-.343.764h-.601l1.631-3.65h.687l1.546 3.65zm-1.202-1.443l-.687-1.613L51.479 32h1.374z"/>
        <path fill="#000" d="M57.49 33.442h-2.834v-3.65h.601v2.97h2.233zM61.354 33.442h-3.177v-3.65h3.091v.594h-2.49v.85h1.717v.593h-1.717v.934h2.576z"/>
        <path fill="#FFF" d="M0 0h24.567v24.556H0z"/>
        <path fill="#E9041E" d="M1.416 1.872h21.553v10.862H1.416z"/>
        <path fill="#000" d="M1.416 12.565h21.553v10.608H1.416z"/>
        <path fill="#FFF" d="M5.109 11.886h13.997v1.273H5.109z"/>
    </g>
</svg>
