<svg width="12" height="15" viewBox="0 0 12 15" fill="none" xmlns="http://www.w3.org/2000/svg">
<path d="M5.94569 13.5454H1.9819C1.80671 13.5454 1.63872 13.4741 1.51485 13.347C1.39087 13.22 1.32131 13.0478 1.32131 12.8682V2.03179C1.32131 1.85219 1.39087 1.67997 1.51485 1.55298C1.63872 1.42588 1.80673 1.35457 1.9819 1.35457H5.94569C6.18171 1.35457 6.3998 1.22543 6.51781 1.0159C6.63582 0.806366 6.63582 0.548206 6.51781 0.338671C6.3998 0.129141 6.18171 0 5.94569 0H1.9819C1.45636 0 0.952245 0.214064 0.580526 0.595141C0.208807 0.976218 0 1.49302 0 2.03179V12.8682C0 13.407 0.208807 13.9238 0.580526 14.3049C0.952245 14.6859 1.45636 14.9 1.9819 14.9H5.94569C6.18171 14.9 6.3998 14.7709 6.51781 14.5613C6.63582 14.3518 6.63582 14.0936 6.51781 13.8841C6.3998 13.6746 6.18171 13.5454 5.94569 13.5454V13.5454Z" fill="#CECECE"/>
<path d="M11.178 7.70751C11.2442 7.54265 11.2442 7.3576 11.178 7.19277C11.1466 7.10966 11.0995 7.03369 11.0393 6.96929L8.39685 4.26028H8.39674C8.22918 4.08839 7.98498 4.02138 7.75604 4.0842C7.52711 4.14712 7.3484 4.33046 7.28701 4.56503C7.22563 4.79973 7.29111 5.0502 7.45866 5.22197L8.97815 6.77292H4.62449C4.38848 6.77292 4.17038 6.90195 4.05237 7.11148C3.93437 7.32101 3.93437 7.57928 4.05237 7.78882C4.17038 7.99835 4.38847 8.12737 4.62449 8.12737H8.97815L7.45866 9.67833C7.33357 9.80554 7.26324 9.97869 7.26324 10.1592C7.26324 10.3398 7.33358 10.5129 7.45866 10.64C7.58275 10.7682 7.75164 10.8403 7.92769 10.8403C8.10387 10.8403 8.27277 10.7682 8.39672 10.64L11.0392 7.93099H11.0393C11.0995 7.86659 11.1466 7.79062 11.178 7.70751L11.178 7.70751Z" fill="#CECECE"/>
</svg>
