<svg width="56" height="56" viewBox="0 0 56 56" fill="none" xmlns="http://www.w3.org/2000/svg">
<g filter="url(#filter0_d_221_236)">
<circle cx="28" cy="23" r="17" fill="#E42851"/>
</g>
<path d="M35.3358 18.7875C34.7346 18.9278 34.2337 19.4083 34.0734 19.9892C33.8729 20.6701 34.1135 21.351 34.6144 21.7916C33.9732 22.6927 32.9313 23.2335 31.8092 23.2335C30.4866 23.2335 29.2844 22.4724 28.7233 21.2909C29.3044 21.0105 29.7052 20.4097 29.7052 19.7488C29.7052 18.6273 28.6432 17.7461 27.481 18.0666C26.8798 18.2268 26.399 18.7475 26.2586 19.3483C26.0783 20.2295 26.5392 21.0305 27.3007 21.331C26.7196 22.4726 25.5373 23.2135 24.2348 23.2135C23.1127 23.2135 22.0507 22.6528 21.4094 21.7315C21.77 21.4111 21.9904 20.9505 21.9904 20.4698C21.9904 19.3483 20.9484 18.4871 19.7861 18.7876C19.1849 18.9478 18.684 19.4485 18.5438 20.0693C18.3034 21.1507 19.0849 22.1321 20.1068 22.2122L22.2308 27.5594C22.331 27.8198 22.5914 28 22.8721 28H33.1918C33.4724 28 33.7329 27.8198 33.8331 27.5594L35.957 22.2122C36.8186 22.1121 37.5 21.3711 37.5 20.4699C37.5 19.3884 36.4781 18.5272 35.3359 18.7876L35.3358 18.7875Z" fill="white"/>
<defs>
<filter id="filter0_d_221_236" x="0" y="0" width="56" height="56" filterUnits="userSpaceOnUse" color-interpolation-filters="sRGB">
<feFlood flood-opacity="0" result="BackgroundImageFix"/>
<!--<feColorMatrix in="SourceAlpha" type="matrix" values="0 0 0 0 0 0 0 0 0 0 0 0 0 0 0 0 0 0 127 0" result="hardAlpha"/>-->
<feOffset dy="5"/>
<feGaussianBlur stdDeviation="5.5"/>
<feComposite in2="hardAlpha" operator="out"/>
<feColorMatrix type="matrix" values="0 0 0 0 0.937255 0 0 0 0 0.235294 0 0 0 0 0.266667 0 0 0 0.5 0"/>
<feBlend mode="normal" in2="BackgroundImageFix" result="effect1_dropShadow_221_236"/>
<feBlend mode="normal" in="SourceGraphic" in2="effect1_dropShadow_221_236" result="shape"/>
</filter>
</defs>
</svg>
