<svg xmlns="http://www.w3.org/2000/svg" xmlns:xlink="http://www.w3.org/1999/xlink" width="20" height="20" viewBox="0 0 20 20">
  <g fill="none" fill-rule="evenodd">
    <g transform="translate(-276 -370) translate(83 302) translate(0 68) translate(193)">
      <path fill="currentColor" fill-rule="nonzero" id="17c2czg9ea" d="M1.5 14h14c2.2 0 3.5-1.65 3.5-3.5C19 8.689 17.64 7 15.5 7H4c-1.207 0-2 .893-2 2s.793 2 2 2h10c.276 0 .5-.224.5-.5s-.224-.5-.5-.5H4c-.626 0-1-.42-1-1 0-.58.374-1 1-1h11.5c1.534 0 2.5 1.2 2.5 2.5 0 1.343-.911 2.5-2.5 2.5h-14c-.276 0-.5.224-.5.5s.224.5.5.5z"/>
    </g>
  </g>
</svg>
