<svg xmlns="http://www.w3.org/2000/svg" width="17" height="17" viewBox="0 0 17 17">
    <g fill="none" fill-rule="evenodd">
        <g>
            <g>
                <g>
                    <path stroke="#969696" stroke-width="1.8" d="M11.718-.9c.7 0 .942.105 1.195.24.322.172.575.425.747.747.135.253.24.494.24 1.195h0v10.436c0 .7-.105.942-.24 1.195-.172.322-.425.575-.747.747-.253.135-.494.24-1.195.24h0H1.282c-.7 0-.942-.105-1.195-.24-.322-.172-.575-.425-.747-.747-.135-.253-.24-.494-.24-1.195h0V1.282c0-.7.105-.942.24-1.195.172-.322.425-.575.747-.747C.34-.795.581-.9 1.282-.9h0z" transform="translate(-1263 -1518) translate(892 1506) translate(373 14)"/>
                    <path fill="#A2A2A2" d="M6.374 5.132c.497 0 .9.403.9.9v7.936c0 .497-.403.9-.9.9s-.9-.403-.9-.9V6.032c0-.497.403-.9.9-.9z" transform="translate(-1263 -1518) translate(892 1506) translate(373 14) rotate(90 6.374 10)"/>
                </g>
            </g>
        </g>
    </g>
</svg>
