<svg width="14" height="15" viewBox="0 0 14 15" fill="none"
  xmlns="http://www.w3.org/2000/svg">
  <path fill-rule="evenodd" clip-rule="evenodd" d="M11.2815 3.01406L9.98643 1.71898C9.93527 1.66782 9.85233 1.66782 9.80117 1.71898L4.32196 7.19819L5.8023 8.67854L11.2815 3.19932C11.3327 3.14817 11.3327 3.06522 11.2815 3.01406ZM2.92515 8.59499L3.21887 8.30128L4.69922 9.78162L4.4055 10.0753L2.63303 10.3675L2.92515 8.59499ZM5.15399 11.533L12.3846 4.30241C13.045 3.64203 13.045 2.57135 12.3846 1.91098L11.0895 0.615891C10.4291 -0.0444854 9.35846 -0.0444847 8.69808 0.615892L1.46747 7.8465L0.835867 11.6788C0.7888 11.9643 1.03616 12.2117 1.32174 12.1646L5.15399 11.533ZM0.910889 13.0887C0.480107 13.0887 0.130889 13.438 0.130889 13.8687C0.130889 14.2995 0.480107 14.6487 0.910889 14.6487H12.8308C13.2616 14.6487 13.6108 14.2995 13.6108 13.8687C13.6108 13.438 13.2616 13.0887 12.8308 13.0887H0.910889Z" fill="currentColor"/>
</svg>
