<svg width="17" height="17" viewBox="0 0 17 17" fill="none" xmlns="http://www.w3.org/2000/svg">
<path d="M16.4659 6.5135L14.9446 6.0277L14.8096 5.70001L15.5403 4.2793L15.5404 4.27943C15.6152 4.13408 15.6418 3.96882 15.6166 3.80733C15.5913 3.64583 15.5153 3.49659 15.3996 3.38108L13.62 1.60185C13.5042 1.48662 13.3549 1.41091 13.1934 1.38604C13.0318 1.36103 12.8667 1.38806 12.7216 1.46309L11.3025 2.19563L10.9748 2.06063L10.4907 0.537853C10.4412 0.381879 10.3433 0.245666 10.2112 0.148984C10.0792 0.0523049 9.9198 0.000134247 9.75611 0H7.24956C7.08615 0 6.92691 0.0519022 6.79484 0.148178C6.66277 0.244454 6.56485 0.380261 6.51496 0.535843L6.02904 2.05862L5.70317 2.19362L4.28213 1.46108L4.28227 1.46121C4.13688 1.38645 3.97159 1.35969 3.81006 1.38497C3.64853 1.41025 3.49924 1.48622 3.38371 1.60186L1.60597 3.38109C1.49044 3.49659 1.41445 3.64584 1.38917 3.80734C1.36388 3.96883 1.39051 4.13408 1.46529 4.27944L2.196 5.70016L2.05909 6.02784L0.535965 6.51351C0.380358 6.56339 0.24452 6.66142 0.148212 6.79332C0.0517799 6.92536 -0.000134017 7.08457 2.60629e-07 7.24794V9.75392C-0.000134224 9.91729 0.0517799 10.0765 0.148212 10.2085C0.24451 10.3406 0.380347 10.4385 0.535965 10.4884L2.05723 10.9742L2.19414 11.3018L1.46343 12.7226C1.38865 12.8678 1.36189 13.0332 1.38718 13.1945C1.41246 13.356 1.48845 13.5053 1.60411 13.6208L3.38185 15.4C3.49738 15.5156 3.64667 15.5916 3.8082 15.6169C3.96959 15.6422 4.13502 15.6155 4.28027 15.5408L5.70131 14.8082L6.02718 14.9432L6.5131 16.4642C6.56286 16.6197 6.6609 16.7555 6.79298 16.8518C6.92491 16.9481 7.08415 17 7.24769 17H9.75425H9.75411C9.91779 16.9999 10.0773 16.9477 10.2094 16.851C10.3415 16.7543 10.4392 16.6181 10.4887 16.4621L10.9726 14.9431L11.3004 14.8081L12.7194 15.5407L12.7196 15.5408C12.8647 15.6158 13.03 15.6427 13.1915 15.6178C13.3529 15.5928 13.5023 15.5173 13.6181 15.402L15.3978 13.6228V13.6227C15.5134 13.5072 15.5894 13.3581 15.6147 13.1966C15.64 13.0351 15.6132 12.8698 15.5384 12.7245L14.8077 11.3037L14.9428 10.9761L16.464 10.4903C16.6196 10.4405 16.7555 10.3425 16.8518 10.2104C16.9481 10.0785 17 9.91933 17 9.75583V7.24984V7.24998C17.0005 7.08647 16.9492 6.927 16.8531 6.79467C16.7571 6.66222 16.6215 6.5638 16.4659 6.51351L16.4659 6.5135ZM8.50081 11.882C7.60266 11.8815 6.74149 11.5242 6.10684 10.8888C5.47229 10.2533 5.11618 9.39179 5.11697 8.49385C5.11791 7.59591 5.47553 6.73508 6.11142 6.10081C6.74731 5.46654 7.60913 5.11089 8.50728 5.1121C9.40543 5.1133 10.2663 5.47126 10.9005 6.10711C11.5346 6.74313 11.89 7.6049 11.8884 8.50284C11.8859 9.39957 11.528 10.2588 10.8929 10.8922C10.258 11.5255 9.39775 11.8815 8.50081 11.882Z" fill="currentColor"/>
</svg>
