<svg xmlns="http://www.w3.org/2000/svg" width="20" height="20" viewBox="0 0 20 20">
    <g>
        <path d="M10 20c-1.612 0-3.215-.392-4.635-1.138-1.373-.72-2.58-1.766-3.488-3.027-.246-.347-.17-.827.177-1.073.346-.25.827-.17 1.073.176 1.588 2.204 4.158 3.524 6.873 3.524 4.665 0 8.462-3.797 8.462-8.462 0-.97-.162-1.915-.481-2.82-.143-.4.069-.838.469-.98.4-.142.838.07.98.47.378 1.065.57 2.188.57 3.33 0 2.67-1.038 5.18-2.93 7.07C15.18 18.961 12.67 20 10 20zM1.296 13.846c-.315 0-.615-.196-.727-.511C.192 12.265 0 11.142 0 10c0-2.67 1.038-5.18 2.93-7.07C4.824 1.043 7.33 0 10 0c1.612 0 3.215.392 4.635 1.138 1.373.72 2.58 1.766 3.488 3.027.246.347.17.827-.177 1.073-.346.25-.827.17-1.073-.176C15.285 2.858 12.715 1.538 10 1.538c-4.665 0-8.462 3.797-8.462 8.462 0 .97.162 1.915.481 2.82.143.4-.069.838-.469.98-.085.03-.17.046-.254.046z"/>
        <path d="M17.692 5.385h-3.846c-.423 0-.77-.347-.77-.77 0-.423.347-.769.77-.769h3.077V.77c0-.423.346-.769.77-.769.422 0 .769.346.769.77v3.845c0 .423-.347.77-.77.77zM2.308 20c-.423 0-.77-.346-.77-.77v-3.845c0-.423.347-.77.77-.77h3.846c.423 0 .77.347.77.77 0 .423-.347.769-.77.769H3.077v3.077c0 .423-.346.769-.77.769z"/>
    </g>
</svg>
