<svg xmlns="http://www.w3.org/2000/svg" viewBox="0 0 26 15">
  <path fill="#2778d0" fill-rule="evenodd"
        d="M0,4C0,1.79,1.79,0,4,0H22c2.21,0,4,1.79,4,4v7c0,2.21-1.79,4-4,4H4c-2.21,0-4-1.79-4-4V4Z"/>
  <path class="cls-1" fill="#fff"
        d="M14.81,9.93h5.14c.52,0,.94-.41,.94-.92v-3.02c0-.51-.42-.92-.94-.92h-5.14c-.3,0-.55-.24-.55-.54s.25-.54,.55-.54h5.14c1.13,0,2.04,.89,2.04,1.99v3.02c0,1.1-.92,1.99-2.04,1.99h-5.14c-.3,0-.55-.24-.55-.54s.25-.54,.55-.54ZM6.04,4h5.14c.3,0,.55,.24,.55,.54s-.25,.54-.55,.54H6.04c-.52,0-.94,.41-.94,.92v3.02c0,.51,.42,.92,.94,.92h5.14c.3,0,.55,.24,.55,.54s-.25,.54-.55,.54H6.04c-1.13,0-2.04-.89-2.04-1.99v-3.02c0-1.1,.92-1.99,2.04-1.99Zm10.83,3.5c0,.3-.25,.54-.55,.54h-6.64c-.3,0-.55-.24-.55-.54s.25-.54,.55-.54h6.64c.3,0,.55,.24,.55,.54Z"/>
</svg>
