<svg width="56" height="56" viewBox="0 0 56 56" fill="none" xmlns="http://www.w3.org/2000/svg">
<g filter="url(#filter0_d_501_3779)">
<circle cx="28" cy="23" r="17" fill="#AEB4C1"/>
</g>
<path fill-rule="evenodd" clip-rule="evenodd" d="M27.9999 15C26.5911 15 25.3699 16.0142 25.0693 17.4335C24.8318 18.5549 25.221 19.692 26.0259 20.4194H25C24.7349 20.4194 24.4805 20.5282 24.293 20.7218C24.1055 20.9153 24 21.178 24 21.4516V21.9677C24 22.2413 24.1055 22.504 24.293 22.6976C24.4805 22.8911 24.7349 23 25 23H25.9922C25.9111 26.3329 24.2998 27.7179 23.1982 28.2939C22.7712 28.5106 22.5 28.9604 22.5 29.4516V29.9678C22.5 30.2414 22.6055 30.5041 22.793 30.6976C22.9805 30.8911 23.2349 31 23.5 31H32.5C32.7651 31 33.0195 30.8911 33.207 30.6976C33.3945 30.504 33.5 30.2414 33.5 29.9678V29.4516C33.5 28.9604 33.2288 28.5106 32.8018 28.2939C31.7002 27.718 30.0889 26.333 30.0078 23H31C31.2651 23 31.5195 22.8911 31.707 22.6976C31.8945 22.504 32 22.2413 32 21.9677V21.4516C32 21.178 31.8945 20.9153 31.707 20.7218C31.5195 20.5282 31.2651 20.4194 31 20.4194H29.9741C30.779 19.6921 31.1682 18.555 30.9307 17.4335C30.63 16.0142 29.4088 15 28.0001 15H27.9999Z" fill="white"/>
<defs>
<filter id="filter0_d_501_3779" x="0" y="0" width="56" height="56" filterUnits="userSpaceOnUse" color-interpolation-filters="sRGB">
<feFlood flood-opacity="0" result="BackgroundImageFix"/>
<!--<feColorMatrix in="SourceAlpha" type="matrix" values="0 0 0 0 0 0 0 0 0 0 0 0 0 0 0 0 0 0 127 0" result="hardAlpha"/>-->
<feOffset dy="5"/>
<feGaussianBlur stdDeviation="5.5"/>
<feComposite in2="hardAlpha" operator="out"/>
<feColorMatrix type="matrix" values="0 0 0 0 0.682353 0 0 0 0 0.705882 0 0 0 0 0.756863 0 0 0 0.5 0"/>
<feBlend mode="normal" in2="BackgroundImageFix" result="effect1_dropShadow_501_3779"/>
<feBlend mode="normal" in="SourceGraphic" in2="effect1_dropShadow_501_3779" result="shape"/>
</filter>
</defs>
</svg>
