<svg xmlns="http://www.w3.org/2000/svg" width="27" height="29" viewBox="0 0 27 29">
    <g fill="none" fill-rule="evenodd">
        <path stroke="#F11C41" stroke-width="1.23" d="M1.804.615C1.238.615.779 1.074.779 1.64v24.862c0 .566.459 1.025 1.025 1.025h19.811c.566 0 1.025-.459 1.025-1.025V5.107c0-.271-.107-.531-.299-.724L18.885.916c-.192-.193-.453-.301-.726-.301H1.804z"/>
        <path stroke="#F11C41" stroke-width="1.23" d="M18.007 0v3.608c0 .906.734 1.64 1.64 1.64h3.608"/>
        <path fill="#F11C41" d="M9.02 13.94H24.6c.906 0 1.64.734 1.64 1.64v7.38c0 .906-.734 1.64-1.64 1.64H9.02c-.906 0-1.64-.734-1.64-1.64v-7.38c0-.906.734-1.64 1.64-1.64z"/>
        <path fill="#FFF" fill-rule="nonzero" d="M10.688 22v-2.137h.593c.722 0 1.278-.159 1.668-.476.39-.318.586-.775.586-1.371 0-.568-.178-.998-.533-1.29-.356-.291-.89-.437-1.604-.437H9.754V22h.934zm.496-2.922h-.496V17.07h.648c.424 0 .737.081.937.242.201.162.301.407.301.735 0 .354-.112.614-.336.781-.224.167-.575.25-1.054.25zM16.274 22c.984 0 1.738-.25 2.261-.748.524-.499.785-1.22.785-2.162 0-.888-.252-1.577-.758-2.067-.505-.49-1.212-.734-2.12-.734h-1.766V22h1.597zm0-.785h-.665V17.07h.809c1.279 0 1.918.684 1.918 2.051 0 1.396-.688 2.094-2.063 2.094zm5.199.785v-2.344h2.152v-.793h-2.152v-1.785h2.297v-.789h-3.223V22h.926z"/>
    </g>
</svg>
