<svg xmlns="http://www.w3.org/2000/svg" width="48" height="45" viewBox="0 0 48 45">
    <g fill="none" fill-rule="evenodd">
        <g stroke="#282423" stroke-width="2">
            <g transform="translate(-331 -519) translate(332 520)">
                <path d="M3.613 31.784c.322-1.47 2.945-4.92 6.248-5.092 3.86-.534 7.603 3.681 7.752 7.498m-2.967-12.248c0 2.624-2.143 4.751-4.785 4.751-2.643 0-4.785-2.127-4.785-4.752 0-2.624 2.142-4.751 4.785-4.751 2.643 0 4.785 2.127 4.785 4.752z"/>
                <path d="M15.538 30.062c1.094-3.577 3.848-6.068 7.054-6.245 3.206.177 5.883 2.471 6.946 6.245M27.237 18.94c0 2.694-2.08 4.878-4.645 4.878-2.566 0-4.645-2.184-4.645-4.878s2.08-4.878 4.645-4.878c2.565 0 4.645 2.184 4.645 4.878z"/>
                <circle cx="21" cy="21.062" r="21"/>
                <circle cx="37.487" cy="33.504" r="8.5" fill="#FFF" fill-rule="nonzero"/>
                <path d="M33.539 33.727L36.448 36.727 41.539 30.727"/>
            </g>
        </g>
    </g>
</svg>
