<svg xmlns="http://www.w3.org/2000/svg" width="46" height="46" viewBox="0 0 46 46">
    <g fill="none" fill-rule="evenodd">
        <path stroke="#282423" stroke-width="2" d="M44 22c0 2.667-4.333 4.556-5.333 6.889-1 2.444.777 6.778-1.111 8.667-1.89 1.888-6.223.11-8.667 1.11C26.556 39.667 24.667 44 22 44s-4.556-4.333-6.889-5.333c-2.444-1-6.778.777-8.667-1.111-1.888-1.89-.11-6.223-1.11-8.667C4.333 26.556 0 24.667 0 22s4.333-4.556 5.333-6.889c1-2.444-.777-6.778 1.111-8.667 1.89-1.888 6.223-.11 8.667-1.11C17.444 4.333 19.333 0 22 0s4.556 4.333 6.889 5.333c2.444 1 6.778-.777 8.667 1.111 1.888 1.89.11 6.223 1.11 8.667C39.667 17.444 44 19.333 44 22z" transform="translate(1 1)"/>
        <path fill="#282423" fill-rule="nonzero" d="M15.222 18.554c1.228 0 2.222-.995 2.222-2.222 0-1.228-.994-2.223-2.222-2.223-1.227 0-2.222.995-2.222 2.223 0 1.227.995 2.222 2.222 2.222zM28.668 29.776c1.227 0 2.222-.994 2.222-2.222 0-1.227-.995-2.222-2.223-2.222-1.227 0-2.222.995-2.222 2.222 0 1.228.995 2.223 2.223 2.223z" transform="translate(1 1)"/>
        <path stroke="#282423" stroke-width="2" d="M15.109 29.221L28.887 15.332" transform="translate(1 1)"/>
    </g>
</svg>
