<svg xmlns="http://www.w3.org/2000/svg" width="13" height="20" viewBox="0 0 13 20" fill="none">
  <path d="M0.75 15.3254C0.75 12.3039 3.1139 9.94019 6.13526 9.94019C9.15681 9.94019 11.5205 12.3041 11.5205 15.3254C11.5205 16.2726 11.3966 17.1196 11.0542 17.7101C10.7531 18.2293 10.2434 18.6248 9.20285 18.6248H3.0676C2.00833 18.6248 1.5054 18.2446 1.21295 17.7504C0.875679 17.1805 0.75 16.3404 0.75 15.3254Z" stroke="currentColor" stroke-width="1.5" fill="none"/>
  <path d="M2.83557 4.65046C2.83557 2.85585 4.34048 1.35107 6.13496 1.35107C7.92956 1.35107 9.43434 2.85598 9.43434 4.65046C9.43434 6.44509 7.92958 7.94984 6.13496 7.94984C4.34035 7.94984 2.83557 6.44494 2.83557 4.65046Z" stroke="currentColor" stroke-width="1.5" fill="none"/>
</svg>