<svg xmlns="http://www.w3.org/2000/svg" width="17" height="19" viewBox="0 0 17 19">
    <g fill="none" fill-rule="evenodd">
        <path stroke="currentColor" stroke-linecap="round" stroke-width="1.56" d="M13.67 4.049c-3.754-1.75-8.217-.127-9.967 3.627-1.75 3.754-.127 8.217 3.627 9.967 3.754 1.75 8.217.127 9.967-3.627" transform="translate(-2 -1)"/>
        <path fill="currentColor" d="M15.69 1.926L11.622 6.28c-.188.202-.178.518.024.707.093.086.215.134.342.134h4.069c.276 0 .5-.223.5-.5V2.267c0-.276-.224-.5-.5-.5-.139 0-.27.058-.365.159z" transform="translate(-2 -1)"/>
    </g>
</svg>
