<svg width="137" height="37" viewBox="0 0 137 37" fill="none" xmlns="http://www.w3.org/2000/svg">
<path fill-rule="evenodd" clip-rule="evenodd" d="M46 9.62967C45.9008 7.44197 43.9174 5.82497 41.6364 6.0152H34V18H36.281V14.0051H41.6364C44.314 14.0051 46 12.5783 46 10.1053V9.62967ZM43.719 10.2955C43.6198 11.2467 42.7273 12.0076 41.7355 11.9125H36.1818V7.91755H41.5372H41.9339C43.0248 8.01267 43.8182 8.96384 43.719 10.0101V10.2955Z" fill="white"/>
<path fill-rule="evenodd" clip-rule="evenodd" d="M47 12.5C47 16.3409 50.3904 19 54.5 19C58.6096 19 62 16.3409 62 12.5C62 8.65909 58.6096 6 54.5 6C50.3904 6 47 8.65909 47 12.5ZM49.4658 12.2045C49.6712 9.74242 51.9315 7.87121 54.5 8.06818C57.5822 8.06818 59.5342 9.93939 59.5342 12.5C59.5342 15.0606 57.5822 16.9318 54.5 16.9318C51.4178 16.9318 49.4658 15.0606 49.4658 12.5V12.2045Z" fill="white"/>
<path fill-rule="evenodd" clip-rule="evenodd" d="M71.1894 19C67.053 19 64 16.3428 64 12.5046C64 8.66647 67.1515 6.00927 71.1894 6.00927C73.2576 5.91086 75.2273 6.59976 76.9015 7.87915L75.7197 9.65061C74.4394 8.66647 72.8636 8.07598 71.2879 8.07598C68.2348 8.07598 66.3636 9.94586 66.3636 12.4062C66.3636 14.8666 68.2348 16.8349 71.2879 16.8349C72.9621 16.8349 74.5379 16.3428 75.8182 15.3587L77 17.1301C75.2273 18.4095 73.1591 19 71.1894 19Z" fill="white"/>
<path fill-rule="evenodd" clip-rule="evenodd" d="M95.5685 18L97.0068 15.12H103.993L105.432 18H108L101.733 6H99.2671L93 18H95.5685ZM100.5 8.304L102.966 13.2H98.0342L100.5 8.304Z" fill="white"/>
<path fill-rule="evenodd" clip-rule="evenodd" d="M119.664 18V12.816H111.336V18H109V6H111.336V10.896H119.664V6H122V18H119.664Z" fill="white"/>
<path fill-rule="evenodd" clip-rule="evenodd" d="M126 18V6H128.162V11.568L134.085 6H136.718L130.701 11.76L137 18H134.085L128.162 12.144V18H126Z" fill="white"/>
<path fill-rule="evenodd" clip-rule="evenodd" d="M82.3415 10.416H87.6098C90.3415 10.416 92 11.76 92 14.16C92 16.56 90.1463 18 87.5122 18H80V6H91.0244V7.92H82.3415V10.416ZM82.3415 15.984H87.8049C89.3659 16.08 90.0488 15.312 90.0488 14.256C90.0488 13.2 89.1707 12.432 87.8049 12.432H82.3415V15.984Z" fill="white"/>
<path fill-rule="evenodd" clip-rule="evenodd" d="M77 34.2826V34.3913C77 35.0435 76.8222 35.6957 76.4667 36.2391C76.1111 36.6739 75.5778 37 75.0444 37C73.8889 37 73 35.8043 73 34.5C73 33.8478 73.2667 33.1957 73.6222 32.6522C73.9778 32.2174 74.5111 32 75.0444 32C75.7556 32 76.3778 32.4348 76.7333 33.087L76.2 33.5217C75.9333 33.087 75.4889 32.8696 75.0444 32.8696C74.6889 32.8696 74.3333 32.9783 74.0667 33.3043C73.8 33.6304 73.6222 34.0652 73.7111 34.5C73.7111 34.9348 73.8 35.3696 74.0667 35.6957C74.3333 36.0217 74.6889 36.1304 75.0444 36.1304C75.5778 36.1304 76.1111 35.6957 76.2889 35.0435H74.8667V34.1739L77 34.2826Z" fill="white"/>
<path fill-rule="evenodd" clip-rule="evenodd" d="M80.3415 34.5116L81.2195 36H82L81.0244 34.5116C81.6098 34.4186 82 33.8605 81.9024 33.3023C81.9024 32.9302 81.8049 32.6512 81.6098 32.3721C81.4146 32.093 81.0244 32 80.7317 32H78V36H78.6829V34.5116H80.3415ZM81.2195 33.4884C81.2195 33.6744 80.9268 33.8605 80.6341 33.8605H78.6829V32.7442H80.6341C81.0244 32.7442 81.2195 32.9302 81.2195 33.3023V33.4884Z" fill="white"/>
<path fill-rule="evenodd" clip-rule="evenodd" d="M85.5 37C86.913 37 88 35.913 88 34.5C88 33.8478 87.6739 33.1957 87.1304 32.6522C86.6957 32.2174 86.1522 32 85.5 32C84.8478 32 84.1957 32.2174 83.7609 32.6522C83.3261 33.1957 83 33.8478 83 34.5C83 35.913 84.087 37 85.5 37ZM86.6957 33.3043C87.0217 33.6304 87.1304 34.0652 87.1304 34.5C87.2391 34.9348 87.0217 35.3696 86.8043 35.6957C86.0435 36.3478 85.0652 36.3478 84.3043 35.6957C83.9783 35.3696 83.8696 34.9348 83.8696 34.5C83.7609 34.0652 83.9783 33.6304 84.3043 33.3043C84.6304 32.9783 85.0652 32.8696 85.5 32.8696C85.9348 32.8696 86.3696 32.9783 86.6957 33.3043Z" fill="white"/>
<path fill-rule="evenodd" clip-rule="evenodd" d="M93 35.6067C93 35.9663 92.8 36.3258 92.5 36.5955C91.6 37.1348 90.5 37.1348 89.6 36.5955C89.3 36.3258 89 35.9663 89 35.6067V33H89.7V35.427C89.7 35.9663 90.1 36.3258 91 36.3258C91.9 36.3258 92.3 36.0562 92.3 35.427V33H93V35.6067Z" fill="white"/>
<path fill-rule="evenodd" clip-rule="evenodd" d="M97.7 33.3636C97.5 33.0909 97.1 33 96.8 33V33.0909H94V37H94.7V35.5455H96.7C97.1 35.5455 97.4 35.4545 97.7 35.1818C97.9 34.9091 98 34.6364 98 34.2727C98 33.9091 97.9 33.6364 97.7 33.3636ZM97.3 34.2727C97.3 34.6364 97.1 34.8182 96.7 34.8182H94.6V33.7273H96.6C97.1 33.7273 97.3 33.9091 97.3 34.2727Z" fill="white"/>
<path fill-rule="evenodd" clip-rule="evenodd" d="M3.4 33.383C3 33.0638 2.5 32.9574 1.9 32.9574C1.1 32.9574 0.8 33.1702 0.8 33.4894C0.8 33.8085 0.9 33.8085 1.2 33.9149L2.4 34.0213C2.8 34.0213 3.2 34.234 3.6 34.4468C3.9 34.6596 4 35.0851 4 35.4043C4 35.8298 3.8 36.2553 3.5 36.5745C3.1 36.8936 2.6 37 2.1 37C1.3 37 0.6 36.7872 0 36.1489L0.4 35.5106C0.9 35.9362 1.5 36.1489 2.2 36.1489C2.5 36.1489 2.8 36.1489 3.1 35.9362C3.3 35.8298 3.4 35.617 3.4 35.4043C3.4 35.1915 3.2 34.9787 3 34.8723C2.8 34.766 2.6 34.766 2.3 34.766L1.4 34.6596C1.1 34.6596 0.7 34.5532 0.5 34.3404C0.3 34.1277 0.2 33.8085 0.2 33.4894C0.2 33.0638 0.4 32.6383 0.7 32.4255C1.1 32.1064 1.6 32 2.1 32C2.8 32 3.5 32.2128 4 32.6383L3.4 33.383Z" fill="white"/>
<path fill-rule="evenodd" clip-rule="evenodd" d="M7.71332 37C9.01571 36.8913 10.101 35.8043 9.99251 34.5C9.99251 33.8478 9.66691 33.1957 9.12424 32.6522C8.14745 31.7826 6.73652 31.7826 5.75973 32.6522C5.3256 33.1957 5 33.8478 5 34.5C5 35.8043 6.08533 37 7.49625 37H7.71332ZM8.79865 33.3043C9.12424 33.6304 9.23278 34.0652 9.23278 34.5C9.23278 34.8321 9.1061 35.1643 8.9979 35.448C8.96447 35.5356 8.9328 35.6187 8.90718 35.6957C8.14745 36.3478 7.17065 36.3478 6.41093 35.6957C6.08533 35.3696 5.97679 34.9348 5.97679 34.5C5.86826 34.0652 6.08533 33.6304 6.41093 33.3043C6.73652 32.9783 7.17065 32.8696 7.60479 32.8696C8.03892 32.8696 8.47305 32.9783 8.79865 33.3043Z" fill="white"/>
<path fill-rule="evenodd" clip-rule="evenodd" d="M15 33.3043L14.4444 33.6304C14.1665 33.1957 13.6109 32.8696 13.1479 32.8696C12.7775 32.8696 12.3144 32.9783 12.0366 33.3043C11.481 33.9565 11.481 35.0435 12.0366 35.6957C12.3144 36.0217 12.7775 36.2391 13.1479 36.1304C13.7035 36.1304 14.1665 35.8043 14.4444 35.3696L15 35.8043C14.6296 36.5652 13.8887 37 13.1479 37C12.5922 37 12.0366 36.7826 11.5736 36.3478C11.2032 35.913 10.9253 35.2609 11.0179 34.5C11.0179 33.8478 11.2032 33.087 11.6662 32.6522C12.0366 32.2174 12.5922 32 13.0553 32C13.8887 32 14.6296 32.5435 15 33.3043Z" fill="white"/>
<rect x="15" y="32" width="1" height="4" fill="white"/>
<path fill-rule="evenodd" clip-rule="evenodd" d="M21 36H17V32H20.8919V32.6512H17.7568V33.5814H19.9189V34.2326H17.7568V35.2558H21V36Z" fill="white"/>
<path fill-rule="evenodd" clip-rule="evenodd" d="M25 32.6512H23.359V36H22.641V32.6512H21V32H25V32.6512Z" fill="white"/>
<path fill-rule="evenodd" clip-rule="evenodd" d="M30 36H26V32H29.8919V32.6512H26.7568V33.5814H28.9189V34.2326H26.7568V35.2558H30V36Z" fill="white"/>
<path fill-rule="evenodd" clip-rule="evenodd" d="M37 34.2826V34.3913C37 35.0435 36.8222 35.6957 36.4667 36.2391C36.1111 36.6739 35.5778 37 35.0444 37C33.8889 37 33 35.8043 33 34.5C33 33.8478 33.2667 33.1957 33.6222 32.6522C33.9778 32.2174 34.5111 32 35.0444 32C35.7556 32 36.3778 32.4348 36.7333 33.087L36.2 33.5217C35.9333 33.087 35.4889 32.8696 35.0444 32.8696C34.6889 32.8696 34.3333 32.9783 34.0667 33.3043C33.5333 33.9565 33.5333 35.0435 34.0667 35.6957C34.3333 36.0217 34.6889 36.1304 35.0444 36.1304C35.6667 36.1304 36.1111 35.6957 36.2889 35.0435H34.8667V34.1739L37 34.2826Z" fill="white"/>
<path fill-rule="evenodd" clip-rule="evenodd" d="M42 36H38V32H41.7895V32.6512H38.7368V33.5814H40.8421V34.2326H38.7368V35.2558H42V36Z" fill="white"/>
<path fill-rule="evenodd" clip-rule="evenodd" d="M47 36H46.0244L43.6829 32.6512V36H43V32H43.9756L46.3171 35.3488V32H47V36Z" fill="white"/>
<path fill-rule="evenodd" clip-rule="evenodd" d="M52 36H48V32H51.7895V32.6512H48.7368V33.5814H50.8421V34.2326H48.7368V35.2558H52V36Z" fill="white"/>
<path fill-rule="evenodd" clip-rule="evenodd" d="M55.3415 34.5116L56.2195 36H57L56.0244 34.5116C56.6098 34.4186 57 33.8605 56.9024 33.3023C56.9024 32.9302 56.8049 32.6512 56.6098 32.3721C56.4146 32.093 56.0244 32 55.7317 32H53V36H53.6829V34.5116H55.3415ZM56.2195 33.3023C56.2195 33.6744 56.0244 33.8605 55.6341 33.8605H53.5854V32.7442H55.5366C56.0244 32.7442 56.2195 32.9302 56.2195 33.3023Z" fill="white"/>
<path fill-rule="evenodd" clip-rule="evenodd" d="M60.3778 36H61L59.4 32H58.6889L57 36H57.6222L57.9778 35.1628H60.0222L60.3778 36ZM59.0444 32.6512L59.7556 34.4186H58.3333L59.0444 32.6512Z" fill="white"/>
<path fill-rule="evenodd" clip-rule="evenodd" d="M65 36H62V32H62.6364V35.2558H65V36Z" fill="white"/>
<path fill-rule="evenodd" clip-rule="evenodd" d="M70 36H66V32H69.8919V32.6512H66.7568V33.5814H68.9189V34.2326H66.7568V35.2558H70V36Z" fill="white"/>
<rect width="25" height="12" fill="#E9041E"/>
<rect y="13" width="25" height="12" fill="black"/>
<rect x="4" y="11" width="16" height="2" fill="white"/>
</svg>
