<svg width="119" height="24" viewBox="0 0 119 24" fill="none" xmlns="http://www.w3.org/2000/svg">
<path d="M0 0H24V23.5H0V0Z" fill="white"/>
<path fill-rule="evenodd" clip-rule="evenodd" d="M40.2177 9.66117C40.1325 7.70817 38.4284 6.26465 36.4687 6.43447H29.908V17.1335H31.8677V13.5672H36.4687C38.7693 13.5672 40.2177 12.2935 40.2177 10.0857V9.66117ZM38.258 10.2556C38.1728 11.1047 37.406 11.784 36.5539 11.6991H31.7825V8.13273H36.3835H36.7243C37.6616 8.21765 38.3432 9.06678 38.258 10.0008V10.2556Z" fill="white"/>
<path fill-rule="evenodd" clip-rule="evenodd" d="M41.3254 11.699C41.3254 15.0106 44.1372 17.3032 47.5454 17.3032C50.9536 17.3032 53.7654 15.0106 53.7654 11.699C53.7654 8.38738 50.9536 6.09473 47.5454 6.09473C44.1372 6.09473 41.3254 8.38738 41.3254 11.699ZM43.3704 11.4442C43.5408 9.32142 45.4153 7.70807 47.5454 7.8779C50.1015 7.8779 51.7204 9.49125 51.7204 11.699C51.7204 13.9067 50.1015 15.5201 47.5454 15.5201C44.9892 15.5201 43.3704 13.9067 43.3704 11.699V11.4442Z" fill="white"/>
<path fill-rule="evenodd" clip-rule="evenodd" d="M61.9451 17.3032C58.3664 17.3032 55.7251 15.0105 55.7251 11.6989C55.7251 8.38732 58.4517 6.09467 61.9451 6.09467C63.7344 6.00976 65.4385 6.60415 66.8869 7.70802L65.8645 9.23645C64.7568 8.38732 63.3935 7.87785 62.0303 7.87785C59.3889 7.87785 57.77 9.49119 57.77 11.614C57.77 13.7368 59.3889 15.4351 62.0303 15.4351C63.4787 15.4351 64.842 15.0105 65.9497 14.1614L66.9721 15.6898C65.4385 16.7937 63.6492 17.3032 61.9451 17.3032" fill="white"/>
<path fill-rule="evenodd" clip-rule="evenodd" d="M82.8203 16.9637L84.0132 14.4163H89.8071L91 16.9637H93.1301L87.9326 6.34961H85.8877L80.6902 16.9637H82.8203ZM86.9101 8.38752L88.9551 12.7181H84.8652L86.9101 8.38752Z" fill="white"/>
<path fill-rule="evenodd" clip-rule="evenodd" d="M103.525 17.0485V12.4632H96.5383V17.0485H94.5786V6.43433H96.5383V10.7649H103.525V6.43433H105.485V17.0485H103.525Z" fill="white"/>
<path fill-rule="evenodd" clip-rule="evenodd" d="M108.467 17.0485V6.43433H110.427V11.3593L115.794 6.43433H118.18L112.727 11.5291L118.436 17.0485H115.794L110.427 11.8688V17.0485H108.467Z" fill="white"/>
<path fill-rule="evenodd" clip-rule="evenodd" d="M71.1472 10.2556H75.7483C78.134 10.2556 79.5825 11.4444 79.5825 13.5672C79.5825 15.69 77.9636 16.9637 75.6631 16.9637H69.1023V6.34961H78.7304V8.04787H71.1472V10.2556ZM71.1472 15.1806H75.9187C77.282 15.2655 77.8784 14.5862 77.8784 13.6521C77.8784 12.7181 77.1116 12.0388 75.9187 12.0388H71.1472V15.1806Z" fill="white"/>
<rect x="1.3645" y="1" width="21.3864" height="10.8689" fill="#E9041E"/>
<rect x="1.3645" y="11.699" width="21.3864" height="10.6141" fill="black"/>
<rect x="5.02808" y="11.0198" width="13.8884" height="1.2737" fill="white"/>
</svg>
