<svg xmlns="http://www.w3.org/2000/svg" width="46" height="36" viewBox="0 0 46 36">
    <g fill="none" fill-rule="evenodd">
        <circle cx="15.5" cy="16.5" r="6.5" fill="#E30329"/>
        <path fill="#37383F" d="M3.5 32.635c-.544 0-1.087-.001-1.63-.003a1.647 1.647 0 0 1-1.165-.497 1.647 1.647 0 0 1-.455-1.122 9243.52 9243.52 0 0 1 0-29.26C.252 1.314.44.877.759.576c.296-.28.7-.442 1.111-.445C15.956.11 30.044.11 44.13.132c.47.003.931.216 1.236.576.244.29.382.665.384 1.044.015 9.754.015 19.508 0 29.261-.002.428-.18.854-.487 1.155a1.642 1.642 0 0 1-1.133.464c-.543.002-1.086.003-1.63.003v1.628a1.651 1.651 0 0 1-.79 1.389c-.25.15-.54.23-.83.23-1.086.002-2.174.002-3.26 0a1.65 1.65 0 0 1-1.328-.695 1.632 1.632 0 0 1-.292-.929v-1.615c-8.667.008-17.333.008-26 0v1.62a1.648 1.648 0 0 1-.473 1.14c-.3.302-.719.478-1.147.48H5.12a1.649 1.649 0 0 1-1.276-.626 1.641 1.641 0 0 1-.344-.999v-1.623zm1.625.002v1.62c0 .001 0 0 0 0 1.084 0 2.167.002 3.25 0v-1.616c-1.083 0-2.167-.002-3.25-.004zm35.75 0l-3.25.004v1.616c0 .001 0 0 0 0 1.084 0 2.167.002 3.25 0v-1.62zm.88-1.626l2.37-.004c.138-9.748.015-19.499 0-29.249-14.083-.111-28.166 0-42.25 0-.046 9.75-.046 19.5 0 29.25h7.313l.034.002c9.159.003 18.318.011 27.478.005l.033-.004.08-.004h4.874l.068.004zm-1.693-3.254H5.938c-.027 0-.053 0-.08-.003a.814.814 0 0 1-.729-.73l-.004-.08V5.82l.004-.08a.826.826 0 0 1 .729-.729l.08-.004h34.124c.027.002.053.004.08.004.026.004.053.007.079.013a.819.819 0 0 1 .65.716l.004.08v2.437h.813c.026.002.052.004.08.004.025.004.052.007.078.013a.826.826 0 0 1 .65.716l.004.08v3.25l-.004.08a.828.828 0 0 1-.729.73c-.027.002-.053.002-.08.002h-.812v6.5h.813c.026.002.052.004.08.004.025.004.052.007.078.013a.828.828 0 0 1 .65.716l.004.08v3.25l-.004.08a.828.828 0 0 1-.729.73c-.027.002-.053.002-.08.002h-.812v2.438l-.004.08a.828.828 0 0 1-.729.73c-.027.002-.053.002-.08.002zm-.812-19.5V6.632H6.75v19.5h32.5v-1.625h-2.438c-.026 0-.052 0-.08-.003a.814.814 0 0 1-.729-.73l-.003-.08v-3.25l.004-.079a.82.82 0 0 1 .293-.548.824.824 0 0 1 .436-.18c.027-.003.053-.003.08-.005h2.437v-6.5h-2.438c-.026 0-.052 0-.08-.003a.814.814 0 0 1-.729-.73l-.003-.08V9.07l.004-.079a.826.826 0 0 1 .729-.729l.08-.004h2.437zM15.7 9.07a7.364 7.364 0 0 1 2.956.629 7.317 7.317 0 0 1 4.314 6.007 7.367 7.367 0 0 1-.94 4.316 7.403 7.403 0 0 1-3.538 3.115 7.368 7.368 0 0 1-4.914.25 7.391 7.391 0 0 1-4.132-3.194 7.363 7.363 0 0 1-1.037-4.522 7.34 7.34 0 0 1 1.38-3.61 7.372 7.372 0 0 1 3.704-2.655 7.362 7.362 0 0 1 2.182-.336h.025zm25.175 12.187h-3.25v1.625h3.25v-1.625zM15.679 10.695a5.71 5.71 0 0 0-2.307.492 5.752 5.752 0 0 0-2.71 2.532 5.734 5.734 0 0 0-.608 3.45 5.7 5.7 0 0 0 1.036 2.56 5.742 5.742 0 0 0 3.52 2.24 5.727 5.727 0 0 0 3.25-.329 5.763 5.763 0 0 0 2.958-2.8 5.718 5.718 0 0 0 .455-3.534 5.703 5.703 0 0 0-5.595-4.61v-.001zm25.196-.813h-3.25v1.625h3.25V9.882z"/>
        <circle cx="15.7" cy="16.5" r="2" fill="#FFF" stroke="#37383F"/>
    </g>
</svg>
