<svg width="19" height="18" viewBox="0 0 19 18" fill="none" xmlns="http://www.w3.org/2000/svg">
  <path fill-rule="evenodd" clip-rule="evenodd" d="M15.4049 6.264H17.066C17.762 6.264 18.3281 6.83008 18.3281 7.52608V10.1059C18.3281 10.8019 17.762 11.368 17.066 11.368H15.5951C15.5719 11.4329 15.5464 11.4979 15.5209 11.5628L15.5209 11.5629L16.5092 12.5512C17.001 13.043 17.001 13.8434 16.5092 14.3353L14.6833 16.1611C14.1915 16.653 13.3911 16.653 12.8993 16.1611L11.9597 15.2215C11.9388 15.2308 11.9173 15.2395 11.8959 15.2482C11.8744 15.2569 11.8529 15.2656 11.8321 15.2749V16.6042C11.8321 17.3002 11.266 17.8663 10.57 17.8663H7.99014C7.29414 17.8663 6.72806 17.3002 6.72806 16.6042V15.2749C6.64686 15.2424 6.56566 15.2076 6.48678 15.1705L5.49614 16.1611C5.0043 16.653 4.2039 16.653 3.71206 16.1611L1.8839 14.3376C1.39206 13.8458 1.39206 13.0454 1.8839 12.5535L2.99054 11.4469L2.9627 11.3703H1.49182C0.795816 11.3703 0.229736 10.8042 0.229736 10.1082V7.5284C0.229736 6.8324 0.795816 6.26632 1.49182 6.26632H3.00214L2.05094 5.31512C1.5591 4.82328 1.5591 4.02288 2.05094 3.53104L3.87678 1.7052C4.36862 1.21336 5.16902 1.21336 5.66086 1.7052L6.72806 2.7724V1.26208C6.72806 0.56608 7.29414 0 7.99014 0H10.5677C11.2637 0 11.8297 0.56608 11.8297 1.26208V2.60768L12.8969 1.54048C13.3888 1.04864 14.1892 1.04864 14.681 1.54048L16.5069 3.36632C16.7435 3.60296 16.8757 3.9208 16.8757 4.2572C16.8757 4.5936 16.7458 4.90912 16.5069 5.14808L15.4002 6.25472C15.4014 6.25588 15.402 6.25762 15.4025 6.25936C15.4031 6.2611 15.4037 6.26284 15.4049 6.264ZM15.5023 9.976H16.9361V7.656H15.3213C14.8202 7.656 14.3701 7.36368 14.1706 6.91128C14.1497 6.86256 14.1265 6.81385 14.1033 6.76513L14.1033 6.76512C13.876 6.28488 13.9757 5.71184 14.3516 5.336L15.4304 4.25488L13.7901 2.61464L12.6 3.8048C12.245 4.15976 11.7137 4.27112 11.2451 4.08552C10.7533 3.89296 10.4401 3.43128 10.4401 2.9116V1.392H8.12006V2.91392C8.12006 3.4336 7.80918 3.89296 7.32662 4.0832C7.3032 4.09198 7.27979 4.10168 7.25696 4.11114C7.24359 4.11668 7.23043 4.12214 7.21758 4.12728C6.74662 4.3268 6.20606 4.21776 5.84414 3.85584L4.76998 2.78168L3.12974 4.42192L4.1575 5.44968C4.52638 5.81856 4.63078 6.38464 4.41502 6.86024L4.39414 6.90432C4.1923 7.36136 3.7399 7.656 3.2411 7.656H1.62406V9.976H3.05782C3.59142 9.976 4.06934 10.3147 4.24798 10.8251L4.24798 10.8251C4.27118 10.8901 4.29438 10.955 4.3199 11.0177C4.5055 11.4863 4.39414 12.0176 4.03918 12.3726L2.96502 13.4467L4.60526 15.087L5.57038 14.1218C5.9439 13.746 6.51926 13.6462 6.99718 13.8736C7.10622 13.9246 7.21526 13.971 7.32662 14.0151C7.80918 14.203 8.12006 14.6624 8.12006 15.1844V16.472H10.4401V15.1844C10.4401 14.6624 10.7533 14.203 11.2405 14.0105C11.3193 13.9803 11.3959 13.9478 11.4725 13.913C11.9457 13.6996 12.5141 13.8017 12.8807 14.1706L13.7925 15.0823L15.4327 13.4421L14.4745 12.4839C14.1126 12.122 14.0059 11.5838 14.2031 11.1105C14.2425 11.013 14.2797 10.9179 14.3145 10.8182C14.4908 10.3147 14.9687 9.976 15.5023 9.976Z" fill="#929292"/>
  <path fill-rule="evenodd" clip-rule="evenodd" d="M5.45203 9.04797C5.45203 6.93677 7.16883 5.21997 9.28003 5.21997C11.3912 5.21997 13.108 6.93677 13.108 9.04797C13.108 11.1592 11.3912 12.876 9.28003 12.876C7.16883 12.876 5.45203 11.1592 5.45203 9.04797ZM6.84403 9.04797C6.84403 10.3913 7.93675 11.484 9.28003 11.484C10.6233 11.484 11.716 10.3913 11.716 9.04797C11.716 7.70469 10.6233 6.61197 9.28003 6.61197C7.93675 6.61197 6.84403 7.70469 6.84403 9.04797Z" fill="#929292"/>
</svg>
