<svg xmlns="http://www.w3.org/2000/svg" width="37" height="49" viewBox="0 0 37 49">
    <g fill="none" fill-rule="evenodd">
        <g fill-rule="nonzero">
            <g>
                <g>
                    <path stroke="#37383F" stroke-width="1.54" d="M17.433 45.31C-.493 30.725.149 8.733.149 8.733 9.542 8.733 17.433 0 17.433 0s7.891 8.733 17.284 8.733c0 0 .642 21.992-17.284 36.577z" transform="translate(-1656.000000, -80.000000) translate(1624.000000, 60.000000) translate(33.000000, 22.000000)"/>
                    <path fill="#E30329" d="M17.433 33.022c-8.365-6.921-8.066-17.358-8.066-17.358 4.383 0 8.066-4.145 8.066-4.145s3.683 4.145 8.066 4.145c0 0 .3 10.437-8.066 17.358z" transform="translate(-1656.000000, -80.000000) translate(1624.000000, 60.000000) translate(33.000000, 22.000000)"/>
                    <path stroke="#37383F" stroke-width="1.54" d="M17.433 33.022c-8.365-6.921-8.066-17.358-8.066-17.358 4.383 0 8.066-4.145 8.066-4.145s3.683 4.145 8.066 4.145c0 0 .3 10.437-8.066 17.358z" transform="translate(-1656.000000, -80.000000) translate(1624.000000, 60.000000) translate(33.000000, 22.000000)"/>
                    <path fill="#FFF" stroke="#37383F" stroke-width="1.309" d="M17.433 26.879c-3.585-2.967-3.457-7.44-3.457-7.44 1.879 0 3.457-1.776 3.457-1.776s1.578 1.776 3.457 1.776c0 0 .128 4.473-3.457 7.44z" transform="translate(-1656.000000, -80.000000) translate(1624.000000, 60.000000) translate(33.000000, 22.000000)"/>
                </g>
            </g>
        </g>
    </g>
</svg>
