<svg width="45" height="39" viewBox="0 0 45 39" fill="none" xmlns="http://www.w3.org/2000/svg">
<path d="M8.26726 14.8409C8.03541 14.6407 7.73821 14.533 7.43163 14.5385C7.06421 14.5451 6.71905 14.7123 6.48722 14.9974C5.35372 16.3491 4.69434 18.1682 4.69434 20.1439C4.69434 22.1197 5.35547 23.9352 6.48589 25.2891C6.92108 25.822 7.70633 25.9009 8.23882 25.466C8.77204 25.0308 8.85059 24.2456 8.41575 23.7131C8.41019 23.7062 8.40428 23.6992 8.39872 23.6926C7.6691 22.8184 7.18628 21.5604 7.18628 20.1446C7.18628 18.7289 7.67049 17.4647 8.39667 16.5987C8.84577 16.0773 8.78806 15.2904 8.26736 14.8409L8.26726 14.8409Z" fill="#E30329"/>
<path d="M4.93026 29.2888C5.46035 28.8501 5.53508 28.0649 5.09676 27.5348C5.08911 27.5258 5.08181 27.5167 5.07382 27.5081C3.4961 25.6523 2.49118 23.0456 2.49118 20.1445C2.49118 17.2378 3.49645 14.6315 5.07284 12.782C5.52681 12.2647 5.47501 11.4774 4.95778 11.0238C4.72767 10.8218 4.43116 10.712 4.12458 10.7148C3.75717 10.7182 3.41061 10.8834 3.17635 11.1656C1.19294 13.4935 0 16.666 0 20.1452C0 23.6194 1.1933 26.7913 3.17635 29.1229C3.61433 29.653 4.39954 29.7278 4.93034 29.2891L4.93026 29.2888Z" fill="#E30329"/>
<path d="M37.8577 14.9976C37.6175 14.7025 37.2563 14.5336 36.8761 14.5388C36.1878 14.5479 35.6372 15.1124 35.6463 15.8006C35.6501 16.094 35.7575 16.3766 35.9487 16.5991C36.6762 17.4667 37.1646 18.732 37.1646 20.145C37.1646 21.5583 36.6783 22.8173 35.9473 23.6929C35.4999 24.2157 35.5611 25.0027 36.0839 25.4493C36.6067 25.8963 37.3937 25.8355 37.8403 25.3127C37.8469 25.3051 37.8531 25.2974 37.8598 25.2898C38.9884 23.938 39.6562 22.1228 39.6562 20.1446C39.6562 18.1665 38.9898 16.3481 37.8577 14.9977L37.8577 14.9976Z" fill="#E30329"/>
<path d="M40.1891 10.7148C39.5008 10.7283 38.9544 11.2967 38.9676 11.9849C38.9735 12.2779 39.0823 12.5598 39.2756 12.7805C40.8488 14.6312 41.8582 17.2389 41.8582 20.1441C41.8582 23.0445 40.8491 25.6525 39.2745 27.5094C38.8219 28.0277 38.8754 28.815 39.3937 29.2676C39.912 29.7202 40.6993 29.6667 41.1519 29.1484C41.1599 29.1394 41.1672 29.1303 41.1748 29.1209C43.1513 26.7906 44.3499 23.6198 44.3499 20.145C44.3499 16.6652 43.1513 13.494 41.1741 11.1672C40.9318 10.8741 40.569 10.7076 40.1891 10.715L40.1891 10.7148Z" fill="#E30329"/>
<path d="M37.0924 27.0045C36.7684 27.0045 36.5546 26.9068 36.2567 26.6058C35.9592 26.3047 35.6457 25.7854 35.3975 25.15C34.9018 23.8789 34.6675 22.168 34.6675 21.0636V16.4486C34.6675 10.506 30.6083 5.46506 25.1389 4.09468V3.12109C25.1389 1.4696 23.8618 0 22.1725 0C20.4845 0 19.2061 1.46551 19.2061 3.12109V4.09539C13.7404 5.46533 9.67658 10.5058 9.67658 16.4484V21.0635C9.67658 22.1688 9.44334 23.8791 8.9487 25.1502C8.70122 25.7856 8.38802 26.3043 8.09048 26.6053C7.79293 26.9056 7.57881 27.0044 7.25276 27.0044C6.56451 27.0044 6.00696 27.5619 6.00696 28.2502V33.2233C6.00696 33.9116 6.56451 34.4691 7.25276 34.4691H17.6668C18.1485 36.5412 19.9501 38.1491 22.172 38.1491C24.3967 38.1491 26.2001 36.5412 26.6825 34.4691H37.0921C37.7803 34.4691 38.3379 33.9116 38.3379 33.2233V28.2502C38.3375 27.5616 37.78 27.004 37.0924 27.004L37.0924 27.0045ZM22.173 35.6573C21.327 35.6573 20.6276 35.1922 20.2766 34.4689H24.0748C23.7237 35.1929 23.0237 35.6573 22.1731 35.6573H22.173ZM35.8466 31.9775H8.49858V29.2576C9.0238 29.0539 9.48926 28.7338 9.86148 28.358C10.5077 27.7052 10.9415 26.8998 11.2707 26.0541C11.9294 24.3623 12.1685 22.4797 12.1685 21.0632V16.4482C12.1685 11.3377 15.8826 7.09844 20.6468 6.33939C21.2517 6.24311 21.6969 5.72136 21.6969 5.1089V3.11962C21.6969 2.71605 21.9702 2.49012 22.1718 2.49012C22.3824 2.49012 22.6466 2.71189 22.6466 3.11962V5.1089C22.6466 5.72137 23.0922 6.24311 23.6967 6.33939C28.4665 7.09785 32.175 11.3365 32.175 16.4482V21.0632C32.175 22.4804 32.4155 24.363 33.0749 26.0545C33.4048 26.9002 33.8382 27.7049 34.4841 28.3573C34.8557 28.7331 35.3204 29.0525 35.845 29.2569L35.8453 31.9775H35.8466Z" fill="#37383F"/>
<path d="M28.0843 10.7414C27.8671 10.544 27.5869 10.4296 27.2935 10.4185C26.606 10.3924 26.0273 10.9288 26.0015 11.6164C25.9869 11.9959 26.1464 12.3613 26.4349 12.6091C27.0126 13.1194 27.4117 13.9373 27.4117 14.8879C27.4117 15.0572 27.3978 15.2279 27.3714 15.4017C27.2588 16.0805 27.7176 16.7222 28.3965 16.8348C29.0754 16.9473 29.7171 16.4886 29.8296 15.8097C29.8317 15.7985 29.8331 15.7878 29.8345 15.7766C29.878 15.493 29.9033 15.1955 29.9033 14.8882C29.903 13.2423 29.2179 11.7423 28.0844 10.7413L28.0843 10.7414Z" fill="#E30329"/>
</svg>
