<svg width="20" height="20" viewBox="0 0 20 20" fill="none" xmlns="http://www.w3.org/2000/svg">
<circle cx="10" cy="10" r="10" fill="#E42851"/>
<path d="M10.0001 13.4999C9.735 13.4999 9.48056 13.6054 9.29307 13.7929C9.10559 13.9804 9.0003 14.2347 9.0003 14.5C9.0003 14.7652 9.10559 15.0195 9.29307 15.207C9.48056 15.3947 9.73497 15.5 10.0001 15.5C10.2653 15.5 10.5197 15.3947 10.7072 15.207C10.8947 15.0195 11 14.7652 11 14.5C11 14.2347 10.8947 13.9804 10.7072 13.7929C10.5197 13.6054 10.2653 13.4999 10.0001 13.4999ZM9.99985 5.5C9.7347 5.5 9.48026 5.6053 9.29277 5.79281C9.10529 5.98031 9 6.23476 9 6.49996V10.5C9 10.8572 9.1905 11.1874 9.49984 11.366C9.80919 11.5446 10.1905 11.5446 10.4999 11.366C10.8092 11.1874 10.9997 10.8572 10.9997 10.5V6.49996C10.9997 6.23478 10.8944 5.98031 10.7069 5.79281C10.5194 5.6053 10.265 5.5 9.99985 5.5Z" fill="white"/>
</svg>
