<svg width="25" height="10" viewBox="0 0 25 10" fill="none" xmlns="http://www.w3.org/2000/svg">
<path d="M15.0186 8.46437H22.1619C22.8821 8.46437 23.4686 7.87674 23.4686 7.15448V2.84654C23.4686 2.12377 22.8826 1.53563 22.1619 1.53563H15.0186C14.5959 1.53563 14.2529 1.19216 14.2529 0.767813C14.2529 0.34398 14.5959 0 15.0186 0H22.1619C23.7264 0 25 1.27662 25 2.84654V7.15448C25 8.72287 23.7269 10 22.1619 10H15.0186C14.5959 10 14.2529 9.65602 14.2529 9.23219C14.2529 8.80835 14.5954 8.46437 15.0186 8.46437ZM2.83761 0H9.98091C10.4036 0 10.7466 0.34398 10.7466 0.767813C10.7466 1.19216 10.4036 1.53563 9.98091 1.53563H2.83761C2.11736 1.53563 1.53136 2.12326 1.53136 2.84654V7.15448C1.53136 7.87623 2.11685 8.46437 2.83761 8.46437H9.98091C10.4036 8.46437 10.7466 8.80835 10.7466 9.23219C10.7466 9.65602 10.4036 10 9.98091 10H2.83761C1.27307 10 0 8.72338 0 7.15448V2.84654C0.000511169 1.27713 1.27307 0 2.83761 0ZM17.8792 5C17.8792 5.42383 17.5366 5.76781 17.1135 5.76781H7.88651C7.46386 5.76781 7.12083 5.42383 7.12083 5C7.12083 4.57617 7.46386 4.23219 7.88651 4.23219H17.1135C17.5366 4.23219 17.8792 4.57617 17.8792 5Z" fill="currentColor" stroke="currentColor"/>
</svg>
