<svg xmlns="http://www.w3.org/2000/svg" width="36" height="39" viewBox="0 0 36 39">
    <g fill="none" fill-rule="evenodd">
        <g stroke="#37383F" stroke-width="2">
            <path fill="#FFF" d="M1.9 1a.9.9 0 0 0-.9.9v28.2a.9.9 0 0 0 .9.9h23.2a.9.9 0 0 0 .9-.9V1.9a.9.9 0 0 0-.9-.9H1.9z"/>
            <path stroke-linecap="round" d="M8.679 10.353h9.66M8.679 16h9.66M8.679 21.647h9.66"/>
        </g>
        <circle cx="27" cy="30" r="8" fill="#FFF"/>
        <g fill="#E30329" fill-rule="nonzero">
            <path d="M29.977 29.79h-2.512v-3.592a.88.88 0 0 0-.878-.878.88.88 0 0 0-.878.878v4.47c0 .482.387.877.87.877h3.406a.88.88 0 0 0 .878-.878.883.883 0 0 0-.886-.878z"/>
            <path d="M27 21.079c-4.935 0-8.947 4.013-8.947 8.947 0 4.935 4.012 8.948 8.947 8.948s8.947-4.013 8.947-8.948c0-4.934-4.012-8.947-8.947-8.947zm0 16.13a7.195 7.195 0 0 1-7.191-7.191A7.195 7.195 0 0 1 27 22.826a7.195 7.195 0 0 1 7.191 7.192A7.195 7.195 0 0 1 27 37.208z"/>
        </g>
    </g>
</svg>
