<svg xmlns="http://www.w3.org/2000/svg" width="74" height="73" viewBox="0 0 74 73">
    <g fill="#96979A" fill-rule="nonzero">
        <path d="M36.919 73c20.167 0 36.593-16.384 36.593-36.5S57.086 0 36.92 0C16.752 0 .325 16.384.325 36.5S16.67 73 36.92 73zm0-69.593c18.296 0 33.178 14.843 33.178 33.093 0 18.25-14.882 33.093-33.178 33.093C18.622 69.593 3.74 54.75 3.74 36.5c0-18.25 14.881-33.093 33.178-33.093z"/>
        <path d="M36.919 38.203h18.459c2.196 0 2.196-3.406 0-3.406H38.626V14.194c0-2.19-3.415-2.19-3.415 0V36.5c0 .973.732 1.703 1.708 1.703z"/>
    </g>
</svg>
