<svg xmlns="http://www.w3.org/2000/svg" width="42" height="36" viewBox="0 0 42 43">
  <g fill="none" fill-rule="evenodd">
    <path fill-rule="evenodd" clip-rule="evenodd" d="M35.8485 2H32.4086L32.1259 0.775111L30.1771 1.22489L30.356 2H11.644L11.8229 1.22489L9.8741 0.77511L9.59139 2H6.15152C3.92742 2 2 3.96541 2 6.54919C2 9.13297 3.92742 11.0984 6.15152 11.0984H7.49146L7.31257 11.8735L7.02986 13.0984H6.15152C2.6854 13.0984 0 10.0949 0 6.54919C0 3.0035 2.6854 0 6.15152 0H35.8485C39.3146 0 42 3.0035 42 6.54919C42 10.0949 39.3146 13.0984 35.8485 13.0984H34.9701L34.6874 11.8735L34.5085 11.0984H35.8485C38.0726 11.0984 40 9.13297 40 6.54919C40 3.96541 38.0726 2 35.8485 2ZM33.713 12.0984V11.0984H34.5085L32.4086 2H30.356L32.7387 12.3233L36.0602 26.7144C36.4124 28.2407 35.3276 29.5413 34.0938 29.5413H27.2121V31.5413H34.0938C36.7995 31.5413 38.6072 28.8567 38.0089 26.2646L34.9701 13.0984H33.713V12.0984ZM7.02986 13.0984H8.28696V11.0984H7.49146L9.59139 2H11.644L9.26134 12.3233L5.93985 26.7144C5.58758 28.2407 6.67242 29.5413 7.90625 29.5413H14.7879V31.5413H7.90625C5.20047 31.5413 3.39283 28.8567 3.99108 26.2646L7.02986 13.0984Z" fill="#282423"/>
    <path fill-rule="evenodd" clip-rule="evenodd" d="M27.4585 11.871C27.4585 12.9954 26.8244 14.1063 25.6126 14.9749C24.4025 15.8423 22.6798 16.41 20.7312 16.41C18.7825 16.41 17.0599 15.8423 15.8498 14.9749C14.6379 14.1063 14.0039 12.9954 14.0039 11.871C14.0039 10.7467 14.6379 9.63578 15.8498 8.76713C17.0599 7.89971 18.7825 7.33203 20.7312 7.33203C22.6798 7.33203 24.4025 7.89971 25.6126 8.76713C26.8244 9.63578 27.4585 10.7467 27.4585 11.871Z" stroke="black" stroke-width="2"/>
    <path fill-rule="evenodd" clip-rule="evenodd" d="M22.0009 38.4356V40.176H21.6015L21.0016 39.5231L22.0009 38.4356ZM20.0009 38.4342L17.1924 35.3778L15.7197 36.731L20.2652 41.6778L21.0015 42.4791L21.7379 41.6778L26.2833 36.731L24.8106 35.3778L22.0009 38.4356V29H20.0009V38.4342ZM20.0009 38.4342L21.0016 39.5231L20.4017 40.176H20.0009V38.4342ZM21.0016 41.0012L21.7379 40.3245L21.6015 40.176H20.4017L20.2652 40.3245L21.0016 41.0012ZM21.0016 41.0012L21.7307 41.6711L21.0015 41.0012L21.0016 41.0012Z" fill="#282423"/>
    <path d="M8.36719 34.6328H14.683V32.6328H8.36719V34.6328ZM27.3146 34.6328H33.6303V32.6328H27.3146V34.6328Z" fill="black"/>
  </g>
</svg>
