<svg width="56" height="56" viewBox="0 0 56 56" fill="none" xmlns="http://www.w3.org/2000/svg">
<g filter="url(#filter0_d_3504_826)">
<circle cx="28" cy="23" r="17" fill="#E42851"/>
</g>
<path d="M28.1002 27.7999C27.676 27.7999 27.2689 27.9686 26.9689 28.2686C26.6689 28.5686 26.5005 28.9755 26.5005 29.4001C26.5005 29.8244 26.6689 30.2312 26.9689 30.5312C27.2689 30.8315 27.676 31 28.1002 31C28.5245 31 28.9316 30.8315 29.2316 30.5312C29.5315 30.2312 29.7 29.8243 29.7 29.4001C29.7 28.9755 29.5315 28.5686 29.2316 28.2686C28.9316 27.9686 28.5245 27.7999 28.1002 27.7999ZM28.0998 15C27.6755 15 27.2684 15.1685 26.9684 15.4685C26.6685 15.7685 26.5 16.1756 26.5 16.5999V23C26.5 23.5716 26.8048 24.0998 27.2997 24.3856C27.7947 24.6714 28.4048 24.6714 28.8998 24.3856C29.3947 24.0998 29.6995 23.5716 29.6995 23V16.5999C29.6995 16.1756 29.5311 15.7685 29.2311 15.4685C28.9311 15.1685 28.524 15 28.0998 15Z" fill="white"/>
<defs>
<filter id="filter0_d_3504_826" x="0" y="0" width="56" height="56" filterUnits="userSpaceOnUse" color-interpolation-filters="sRGB">
<feFlood flood-opacity="0" result="BackgroundImageFix"/>
<feColorMatrix in="SourceAlpha" type="matrix" values="0 0 0 0 0 0 0 0 0 0 0 0 0 0 0 0 0 0 127 0" result="hardAlpha"/>
<feOffset dy="5"/>
<feGaussianBlur stdDeviation="5.5"/>
<feComposite in2="hardAlpha" operator="out"/>
<feColorMatrix type="matrix" values="0 0 0 0 0.937255 0 0 0 0 0.235294 0 0 0 0 0.266667 0 0 0 0.5 0"/>
<feBlend mode="normal" in2="BackgroundImageFix" result="effect1_dropShadow_3504_826"/>
<feBlend mode="normal" in="SourceGraphic" in2="effect1_dropShadow_3504_826" result="shape"/>
</filter>
</defs>
</svg>
