<svg xmlns="http://www.w3.org/2000/svg" width="27" height="29" viewBox="0 0 27 29">
    <g fill="none" fill-rule="evenodd">
        <path stroke="#F11C41" stroke-width="1.23" d="M1.804.615C1.238.615.779 1.074.779 1.64v24.862c0 .566.459 1.025 1.025 1.025h19.811c.566 0 1.025-.459 1.025-1.025V5.107c0-.271-.107-.531-.299-.724L18.885.916c-.192-.193-.453-.301-.726-.301H1.804z"/>
        <path stroke="#F11C41" stroke-width="1.23" d="M18.007 0v3.608c0 .906.734 1.64 1.64 1.64h3.608"/>
        <path fill="#F11C41" d="M9.02 13.94H24.6c.906 0 1.64.734 1.64 1.64v7.38c0 .906-.734 1.64-1.64 1.64H9.02c-.906 0-1.64-.734-1.64-1.64v-7.38c0-.906.734-1.64 1.64-1.64z"/>
        <path fill="#FFF" fill-rule="nonzero" d="M17.659 21.48L18.631 20.958 17.479 19.439 19.236 19.297 19.1 18.238 17.22 18.765 17.42 16.9 16.307 16.9 16.507 18.765 14.671 18.238 14.5 19.297 16.248 19.439 15.12 20.958 16.121 21.48 16.849 19.83z"/>
    </g>
</svg>
