<svg xmlns="http://www.w3.org/2000/svg" width="76" height="57" viewBox="0 0 76 57">
    <g fill="none" fill-rule="evenodd">
        <path fill-rule="nonzero" stroke="#FFF" stroke-width="2" d="M38 1.638c-5.758 0-11.546 2.168-15.936 6.502-3.265 3.223-5.244 7.221-6.083 11.39C7.462 21.162 1 28.507 1 37.373c0 10.06 8.311 18.265 18.5 18.265h39.413c8.87 0 16.087-7.125 16.087-15.883 0-8.265-6.45-14.993-14.63-15.733.039-5.749-2.03-11.51-6.459-15.882C49.525 3.81 43.758 1.638 38 1.638z"/>
        <path fill="#FFF" d="M38 22a1 1 0 0 1 1 1v19a1 1 0 0 1-2 0V23a1 1 0 0 1 1-1z"/>
        <path stroke="#FFF" stroke-linecap="round" stroke-width="2" d="M30.5 29.138l7.147-6.802a.5.5 0 0 1 .698.008l6.817 6.794"/>
    </g>
</svg>
