<svg xmlns="http://www.w3.org/2000/svg" width="23" height="20" viewBox="0 0 23 20">
    <path fill="#000" fill-rule="nonzero" d="M21.881 8.686h-.103V6.117c0-1.477-1.177-2.693-2.674-2.824l-.193-1.013A2.727 2.727 0 0 0 17.679.48a2.914 2.914 0 0 0-2.2-.382L3.05 2.807C1.513 3.143.309 4.598.309 6.117v11.018c0 1.564 1.319 2.837 2.94 2.837h15.588c1.622 0 2.94-1.273 2.94-2.837v-2.57h.104c.567 0 1.029-.444 1.029-.991V9.678c0-.547-.461-.992-1.029-.992zm-6.116-7.37c.42-.091.847-.018 1.2.207.355.225.593.575.671.984l.148.774H6.76l9.005-1.965zm4.717 15.82c0 .875-.738 1.587-1.644 1.587H3.249c-.907 0-1.645-.712-1.645-1.587V6.118c0-.876.738-1.588 1.645-1.588h15.588c.907 0 1.645.712 1.645 1.587v2.569h-3.77c-.445 0-.953.256-1.208.609l-1.189 1.648c-.281.39-.281.978 0 1.367l1.19 1.647c.254.353.762.61 1.208.61h3.769v2.569zm1.343-3.616h-5.112a.544.544 0 0 1-.318-.16l-1.19-1.647c-.022-.036-.022-.137 0-.172l1.19-1.648c.05-.07.23-.16.318-.16h5.112v3.787zm-3.63-.714c.675 0 1.223-.53 1.223-1.18 0-.65-.548-1.18-1.223-1.18s-1.224.53-1.224 1.18c0 .651.55 1.18 1.224 1.18zm0-1.501c.183 0 .333.144.333.322 0 .176-.15.32-.333.32a.327.327 0 0 1-.333-.32c0-.178.15-.322.333-.322z"/>
</svg>
