<svg width="32" height="32" viewBox="0 0 32 32" fill="none" xmlns="http://www.w3.org/2000/svg">
  <path d="M5.37368 32H26.6263C29.5794 32 32 29.5794 32 26.6263V5.37368C32 2.42058 29.5794 0 26.6263 0H5.37368C2.42058 0 0 2.42058 0 5.37368V26.6263C0 29.5794 2.42058 32 5.37368 32ZM1.83964 5.42209C1.83964 3.48563 3.43722 1.88805 5.37368 1.88805H26.6263C28.5628 1.88805 30.1604 3.48563 30.1604 5.42209V26.6747C30.1604 28.6112 28.5628 30.2088 26.6263 30.2088H5.37368C3.43722 30.2088 1.83964 28.6112 1.83964 26.6747V5.42209Z" fill="#37383F"/>
  <path d="M6.72949 9.92409C6.72949 9.43998 7.11679 9.00428 7.64932 9.00428H8.95642V7.69716C8.95642 7.21304 9.34371 6.77734 9.87624 6.77734C10.3604 6.77734 10.7961 7.16463 10.7961 7.69716V9.00428H12.1032C12.5873 9.00428 13.023 9.39156 13.023 9.92409C13.023 10.4566 12.6357 10.8439 12.1032 10.8439H10.7961V12.151C10.7961 12.6351 10.4088 13.0708 9.87624 13.0708C9.39212 13.0708 8.95642 12.6835 8.95642 12.151V10.8439H7.64932C7.1652 10.8439 6.72949 10.4082 6.72949 9.92409ZM18.9776 9.92409C18.9776 9.43998 19.3649 9.00428 19.8974 9.00428H24.3513C24.8354 9.00428 25.2711 9.39156 25.2711 9.92409C25.2711 10.4566 24.8838 10.8439 24.3513 10.8439H19.8974C19.3649 10.8439 18.9776 10.4082 18.9776 9.92409ZM18.9776 23.3825C18.9776 22.8984 19.3649 22.4627 19.8974 22.4627H24.3513C24.8354 22.4627 25.2711 22.85 25.2711 23.3825C25.2711 23.915 24.8838 24.3023 24.3513 24.3023H19.8974C19.3649 24.2539 18.9776 23.8666 18.9776 23.3825ZM18.9776 20.9135C18.9776 20.4294 19.3649 19.9937 19.8974 19.9937H24.3513C24.8354 19.9937 25.2711 20.381 25.2711 20.9135C25.2711 21.446 24.8838 21.8333 24.3513 21.8333H19.8974C19.3649 21.7849 18.9776 21.3976 18.9776 20.9135ZM12.1032 21.204L11.1834 22.1238L12.1032 23.0436C12.4421 23.3825 12.4421 23.9634 12.1032 24.3023C11.9095 24.496 11.7159 24.5444 11.4738 24.5444C11.2318 24.5444 10.9897 24.4475 10.8445 24.3023L9.92465 23.3825L9.00484 24.3023C8.81119 24.496 8.61754 24.5444 8.37549 24.5444C8.13343 24.5444 7.89137 24.4475 7.74614 24.3023C7.40726 23.9634 7.40726 23.3825 7.74614 23.0436L8.66595 22.1238L7.74614 21.204C7.40726 20.8651 7.40726 20.2842 7.74614 19.9453C8.08502 19.6064 8.66596 19.6064 9.00484 19.9453L9.92465 20.8651L10.8445 19.9453C11.1833 19.6064 11.7643 19.6064 12.1032 19.9453C12.4421 20.2842 12.4421 20.8651 12.1032 21.204Z" fill="#E42851"/>
</svg>
