<svg xmlns="http://www.w3.org/2000/svg" width="27" height="29" viewBox="0 0 27 29">
    <g fill="none" fill-rule="evenodd">
        <g>
            <g>
                <path stroke="#F11C41" stroke-width="1.23" d="M18.16.615H1.803c-.283 0-.54.115-.725.3-.185.186-.3.442-.3.725v24.862c0 .283.115.54.3.725.186.186.442.3.725.3h19.811c.283 0 .54-.114.725-.3.185-.185.3-.442.3-.725V5.107c0-.271-.107-.531-.299-.724L18.885.916c-.192-.193-.453-.301-.726-.301z" transform="translate(-100 -29) translate(100 29)"/>
                <path stroke="#F11C41" stroke-width="1.23" d="M18.007 0v3.608c0 .906.734 1.64 1.64 1.64h3.608" transform="translate(-100 -29) translate(100 29)"/>
                <path fill="#F11C41" d="M9.02 13.94H24.6c.906 0 1.64.734 1.64 1.64v7.38c0 .906-.734 1.64-1.64 1.64H9.02c-.906 0-1.64-.734-1.64-1.64v-7.38c0-.906.734-1.64 1.64-1.64z" transform="translate(-100 -29) translate(100 29)"/>
                <path fill="#FFF" fill-rule="nonzero" d="M9.668 22l1.441-2.336L12.54 22h1.074l-1.922-2.945 1.786-2.766h-1.008l-1.32 2.16-1.32-2.16h-1.04l1.774 2.75L8.668 22h1zm5.562 0v-2.777c0-.62-.022-1.284-.066-1.993h.031L16.852 22h.824l1.715-4.762h.03c-.01.097-.022.373-.036.828-.015.456-.022.826-.022 1.11V22h.899v-5.71h-1.32l-1.633 4.542h-.024L15.7 16.289h-1.316V22h.847zm9.887 0v-.8H22.7v-4.91h-.933V22h3.351z" transform="translate(-100 -29) translate(100 29)"/>
            </g>
        </g>
    </g>
</svg>
