<svg xmlns="http://www.w3.org/2000/svg" width="27" height="29" viewBox="0 0 27 29">
    <g fill="none" fill-rule="evenodd">
        <path stroke="#F11C41" stroke-width="1.23" d="M1.804.615C1.238.615.779 1.074.779 1.64v24.862c0 .566.459 1.025 1.025 1.025h19.811c.566 0 1.025-.459 1.025-1.025V5.107c0-.271-.107-.531-.299-.724L18.885.916c-.192-.193-.453-.301-.726-.301H1.804z"/>
        <path stroke="#F11C41" stroke-width="1.23" d="M18.007 0v3.608c0 .906.734 1.64 1.64 1.64h3.608"/>
        <path fill="#F11C41" d="M9.02 13.94H24.6c.906 0 1.64.734 1.64 1.64v7.38c0 .906-.734 1.64-1.64 1.64H9.02c-.906 0-1.64-.734-1.64-1.64v-7.38c0-.906.734-1.64 1.64-1.64z"/>
        <path fill="#FFF" fill-rule="nonzero" d="M14.84 22.06v-.82h-3.043l2.963-4.361v-.673h-4.028v.821h2.871l-2.95 4.368v.665h4.187zm1.994 0v-5.854h-.957v5.854h.957zm2.503 0v-2.19h.608c.74 0 1.31-.163 1.71-.489.4-.325.6-.794.6-1.405 0-.582-.182-1.022-.546-1.321-.364-.3-.912-.449-1.644-.449H18.38v5.854h.957zm.508-2.995h-.508v-2.058H20c.435 0 .756.083.961.248.206.166.309.417.309.753 0 .363-.115.63-.345.8-.23.172-.59.257-1.08.257z"/>
    </g>
</svg>
